%TF.GenerationSoftware,KiCad,Pcbnew,8.0.4*%
%TF.CreationDate,2025-01-10T13:29:25-08:00*%
%TF.ProjectId,X17_Pi_Shield,5831375f-5069-45f5-9368-69656c642e6b,rev?*%
%TF.SameCoordinates,Original*%
%TF.FileFunction,Legend,Bot*%
%TF.FilePolarity,Positive*%
%FSLAX46Y46*%
G04 Gerber Fmt 4.6, Leading zero omitted, Abs format (unit mm)*
G04 Created by KiCad (PCBNEW 8.0.4) date 2025-01-10 13:29:25*
%MOMM*%
%LPD*%
G01*
G04 APERTURE LIST*
G04 Aperture macros list*
%AMRoundRect*
0 Rectangle with rounded corners*
0 $1 Rounding radius*
0 $2 $3 $4 $5 $6 $7 $8 $9 X,Y pos of 4 corners*
0 Add a 4 corners polygon primitive as box body*
4,1,4,$2,$3,$4,$5,$6,$7,$8,$9,$2,$3,0*
0 Add four circle primitives for the rounded corners*
1,1,$1+$1,$2,$3*
1,1,$1+$1,$4,$5*
1,1,$1+$1,$6,$7*
1,1,$1+$1,$8,$9*
0 Add four rect primitives between the rounded corners*
20,1,$1+$1,$2,$3,$4,$5,0*
20,1,$1+$1,$4,$5,$6,$7,0*
20,1,$1+$1,$6,$7,$8,$9,0*
20,1,$1+$1,$8,$9,$2,$3,0*%
%AMFreePoly0*
4,1,19,0.500000,-0.750000,0.000000,-0.750000,0.000000,-0.744911,-0.071157,-0.744911,-0.207708,-0.704816,-0.327430,-0.627875,-0.420627,-0.520320,-0.479746,-0.390866,-0.500000,-0.250000,-0.500000,0.250000,-0.479746,0.390866,-0.420627,0.520320,-0.327430,0.627875,-0.207708,0.704816,-0.071157,0.744911,0.000000,0.744911,0.000000,0.750000,0.500000,0.750000,0.500000,-0.750000,0.500000,-0.750000,
$1*%
%AMFreePoly1*
4,1,19,0.000000,0.744911,0.071157,0.744911,0.207708,0.704816,0.327430,0.627875,0.420627,0.520320,0.479746,0.390866,0.500000,0.250000,0.500000,-0.250000,0.479746,-0.390866,0.420627,-0.520320,0.327430,-0.627875,0.207708,-0.704816,0.071157,-0.744911,0.000000,-0.744911,0.000000,-0.750000,-0.500000,-0.750000,-0.500000,0.750000,0.000000,0.750000,0.000000,0.744911,0.000000,0.744911,
$1*%
G04 Aperture macros list end*
%ADD10C,0.100000*%
%ADD11C,0.153162*%
%ADD12C,0.508000*%
%ADD13C,0.120000*%
%ADD14C,0.127000*%
%ADD15C,0.200000*%
%ADD16R,1.700000X1.700000*%
%ADD17O,1.700000X1.700000*%
%ADD18C,1.020000*%
%ADD19R,1.520000X1.520000*%
%ADD20C,1.520000*%
%ADD21O,2.404000X1.204000*%
%ADD22O,2.004000X1.204000*%
%ADD23RoundRect,0.102000X-0.685000X-0.685000X0.685000X-0.685000X0.685000X0.685000X-0.685000X0.685000X0*%
%ADD24C,1.574000*%
%ADD25C,2.700000*%
%ADD26RoundRect,0.237500X0.250000X0.237500X-0.250000X0.237500X-0.250000X-0.237500X0.250000X-0.237500X0*%
%ADD27RoundRect,0.237500X0.300000X0.237500X-0.300000X0.237500X-0.300000X-0.237500X0.300000X-0.237500X0*%
%ADD28RoundRect,0.237500X-0.250000X-0.237500X0.250000X-0.237500X0.250000X0.237500X-0.250000X0.237500X0*%
%ADD29RoundRect,0.250000X-1.100000X0.412500X-1.100000X-0.412500X1.100000X-0.412500X1.100000X0.412500X0*%
%ADD30C,1.982000*%
%ADD31RoundRect,0.237500X0.237500X-0.250000X0.237500X0.250000X-0.237500X0.250000X-0.237500X-0.250000X0*%
%ADD32RoundRect,0.237500X-0.237500X0.250000X-0.237500X-0.250000X0.237500X-0.250000X0.237500X0.250000X0*%
%ADD33RoundRect,0.076750X0.810250X0.230250X-0.810250X0.230250X-0.810250X-0.230250X0.810250X-0.230250X0*%
%ADD34RoundRect,0.237500X-0.237500X0.300000X-0.237500X-0.300000X0.237500X-0.300000X0.237500X0.300000X0*%
%ADD35FreePoly0,270.000000*%
%ADD36FreePoly1,270.000000*%
%ADD37RoundRect,0.237500X-0.300000X-0.237500X0.300000X-0.237500X0.300000X0.237500X-0.300000X0.237500X0*%
%ADD38RoundRect,0.237500X0.237500X-0.300000X0.237500X0.300000X-0.237500X0.300000X-0.237500X-0.300000X0*%
%ADD39RoundRect,0.032160X1.004840X0.369840X-1.004840X0.369840X-1.004840X-0.369840X1.004840X-0.369840X0*%
G04 APERTURE END LIST*
D10*
X168750000Y-129100000D02*
X179450000Y-129100000D01*
X179450000Y-132700000D01*
X168750000Y-132700000D01*
X168750000Y-129100000D01*
G36*
X168750000Y-129100000D02*
G01*
X179450000Y-129100000D01*
X179450000Y-132700000D01*
X168750000Y-132700000D01*
X168750000Y-129100000D01*
G37*
D11*
X179070664Y-122444586D02*
X178470664Y-123460586D01*
X178470664Y-122444586D02*
X179070664Y-123460586D01*
X177656378Y-123460586D02*
X178170664Y-123460586D01*
X177913521Y-123460586D02*
X177913521Y-122444586D01*
X177913521Y-122444586D02*
X177999235Y-122589729D01*
X177999235Y-122589729D02*
X178084950Y-122686491D01*
X178084950Y-122686491D02*
X178170664Y-122734872D01*
X177356378Y-122444586D02*
X176756378Y-122444586D01*
X176756378Y-122444586D02*
X177142092Y-123460586D01*
X175727807Y-123460586D02*
X175727807Y-122444586D01*
X175727807Y-122444586D02*
X175384950Y-122444586D01*
X175384950Y-122444586D02*
X175299235Y-122492967D01*
X175299235Y-122492967D02*
X175256378Y-122541348D01*
X175256378Y-122541348D02*
X175213521Y-122638110D01*
X175213521Y-122638110D02*
X175213521Y-122783253D01*
X175213521Y-122783253D02*
X175256378Y-122880015D01*
X175256378Y-122880015D02*
X175299235Y-122928396D01*
X175299235Y-122928396D02*
X175384950Y-122976777D01*
X175384950Y-122976777D02*
X175727807Y-122976777D01*
X174827807Y-123460586D02*
X174827807Y-122783253D01*
X174827807Y-122444586D02*
X174870664Y-122492967D01*
X174870664Y-122492967D02*
X174827807Y-122541348D01*
X174827807Y-122541348D02*
X174784950Y-122492967D01*
X174784950Y-122492967D02*
X174827807Y-122444586D01*
X174827807Y-122444586D02*
X174827807Y-122541348D01*
X173756379Y-123412206D02*
X173627808Y-123460586D01*
X173627808Y-123460586D02*
X173413522Y-123460586D01*
X173413522Y-123460586D02*
X173327808Y-123412206D01*
X173327808Y-123412206D02*
X173284950Y-123363825D01*
X173284950Y-123363825D02*
X173242093Y-123267063D01*
X173242093Y-123267063D02*
X173242093Y-123170301D01*
X173242093Y-123170301D02*
X173284950Y-123073539D01*
X173284950Y-123073539D02*
X173327808Y-123025158D01*
X173327808Y-123025158D02*
X173413522Y-122976777D01*
X173413522Y-122976777D02*
X173584950Y-122928396D01*
X173584950Y-122928396D02*
X173670665Y-122880015D01*
X173670665Y-122880015D02*
X173713522Y-122831634D01*
X173713522Y-122831634D02*
X173756379Y-122734872D01*
X173756379Y-122734872D02*
X173756379Y-122638110D01*
X173756379Y-122638110D02*
X173713522Y-122541348D01*
X173713522Y-122541348D02*
X173670665Y-122492967D01*
X173670665Y-122492967D02*
X173584950Y-122444586D01*
X173584950Y-122444586D02*
X173370665Y-122444586D01*
X173370665Y-122444586D02*
X173242093Y-122492967D01*
X172856379Y-123460586D02*
X172856379Y-122444586D01*
X172470665Y-123460586D02*
X172470665Y-122928396D01*
X172470665Y-122928396D02*
X172513522Y-122831634D01*
X172513522Y-122831634D02*
X172599236Y-122783253D01*
X172599236Y-122783253D02*
X172727807Y-122783253D01*
X172727807Y-122783253D02*
X172813522Y-122831634D01*
X172813522Y-122831634D02*
X172856379Y-122880015D01*
X172042093Y-123460586D02*
X172042093Y-122783253D01*
X172042093Y-122444586D02*
X172084950Y-122492967D01*
X172084950Y-122492967D02*
X172042093Y-122541348D01*
X172042093Y-122541348D02*
X171999236Y-122492967D01*
X171999236Y-122492967D02*
X172042093Y-122444586D01*
X172042093Y-122444586D02*
X172042093Y-122541348D01*
X171270665Y-123412206D02*
X171356379Y-123460586D01*
X171356379Y-123460586D02*
X171527808Y-123460586D01*
X171527808Y-123460586D02*
X171613522Y-123412206D01*
X171613522Y-123412206D02*
X171656379Y-123315444D01*
X171656379Y-123315444D02*
X171656379Y-122928396D01*
X171656379Y-122928396D02*
X171613522Y-122831634D01*
X171613522Y-122831634D02*
X171527808Y-122783253D01*
X171527808Y-122783253D02*
X171356379Y-122783253D01*
X171356379Y-122783253D02*
X171270665Y-122831634D01*
X171270665Y-122831634D02*
X171227808Y-122928396D01*
X171227808Y-122928396D02*
X171227808Y-123025158D01*
X171227808Y-123025158D02*
X171656379Y-123121920D01*
X170713521Y-123460586D02*
X170799236Y-123412206D01*
X170799236Y-123412206D02*
X170842093Y-123315444D01*
X170842093Y-123315444D02*
X170842093Y-122444586D01*
X169984950Y-123460586D02*
X169984950Y-122444586D01*
X169984950Y-123412206D02*
X170070664Y-123460586D01*
X170070664Y-123460586D02*
X170242092Y-123460586D01*
X170242092Y-123460586D02*
X170327807Y-123412206D01*
X170327807Y-123412206D02*
X170370664Y-123363825D01*
X170370664Y-123363825D02*
X170413521Y-123267063D01*
X170413521Y-123267063D02*
X170413521Y-122976777D01*
X170413521Y-122976777D02*
X170370664Y-122880015D01*
X170370664Y-122880015D02*
X170327807Y-122831634D01*
X170327807Y-122831634D02*
X170242092Y-122783253D01*
X170242092Y-122783253D02*
X170070664Y-122783253D01*
X170070664Y-122783253D02*
X169984950Y-122831634D01*
X178984950Y-125096289D02*
X178984950Y-124080289D01*
X178984950Y-124080289D02*
X178470664Y-125096289D01*
X178470664Y-125096289D02*
X178470664Y-124080289D01*
X178042093Y-125096289D02*
X178042093Y-124418956D01*
X178042093Y-124080289D02*
X178084950Y-124128670D01*
X178084950Y-124128670D02*
X178042093Y-124177051D01*
X178042093Y-124177051D02*
X177999236Y-124128670D01*
X177999236Y-124128670D02*
X178042093Y-124080289D01*
X178042093Y-124080289D02*
X178042093Y-124177051D01*
X177227808Y-125047909D02*
X177313522Y-125096289D01*
X177313522Y-125096289D02*
X177484950Y-125096289D01*
X177484950Y-125096289D02*
X177570665Y-125047909D01*
X177570665Y-125047909D02*
X177613522Y-124999528D01*
X177613522Y-124999528D02*
X177656379Y-124902766D01*
X177656379Y-124902766D02*
X177656379Y-124612480D01*
X177656379Y-124612480D02*
X177613522Y-124515718D01*
X177613522Y-124515718D02*
X177570665Y-124467337D01*
X177570665Y-124467337D02*
X177484950Y-124418956D01*
X177484950Y-124418956D02*
X177313522Y-124418956D01*
X177313522Y-124418956D02*
X177227808Y-124467337D01*
X176842093Y-125096289D02*
X176842093Y-124080289D01*
X176456379Y-125096289D02*
X176456379Y-124564099D01*
X176456379Y-124564099D02*
X176499236Y-124467337D01*
X176499236Y-124467337D02*
X176584950Y-124418956D01*
X176584950Y-124418956D02*
X176713521Y-124418956D01*
X176713521Y-124418956D02*
X176799236Y-124467337D01*
X176799236Y-124467337D02*
X176842093Y-124515718D01*
X175899235Y-125096289D02*
X175984950Y-125047909D01*
X175984950Y-125047909D02*
X176027807Y-124999528D01*
X176027807Y-124999528D02*
X176070664Y-124902766D01*
X176070664Y-124902766D02*
X176070664Y-124612480D01*
X176070664Y-124612480D02*
X176027807Y-124515718D01*
X176027807Y-124515718D02*
X175984950Y-124467337D01*
X175984950Y-124467337D02*
X175899235Y-124418956D01*
X175899235Y-124418956D02*
X175770664Y-124418956D01*
X175770664Y-124418956D02*
X175684950Y-124467337D01*
X175684950Y-124467337D02*
X175642093Y-124515718D01*
X175642093Y-124515718D02*
X175599235Y-124612480D01*
X175599235Y-124612480D02*
X175599235Y-124902766D01*
X175599235Y-124902766D02*
X175642093Y-124999528D01*
X175642093Y-124999528D02*
X175684950Y-125047909D01*
X175684950Y-125047909D02*
X175770664Y-125096289D01*
X175770664Y-125096289D02*
X175899235Y-125096289D01*
X175084949Y-125096289D02*
X175170664Y-125047909D01*
X175170664Y-125047909D02*
X175213521Y-124951147D01*
X175213521Y-124951147D02*
X175213521Y-124080289D01*
X174356378Y-125096289D02*
X174356378Y-124564099D01*
X174356378Y-124564099D02*
X174399235Y-124467337D01*
X174399235Y-124467337D02*
X174484949Y-124418956D01*
X174484949Y-124418956D02*
X174656378Y-124418956D01*
X174656378Y-124418956D02*
X174742092Y-124467337D01*
X174356378Y-125047909D02*
X174442092Y-125096289D01*
X174442092Y-125096289D02*
X174656378Y-125096289D01*
X174656378Y-125096289D02*
X174742092Y-125047909D01*
X174742092Y-125047909D02*
X174784949Y-124951147D01*
X174784949Y-124951147D02*
X174784949Y-124854385D01*
X174784949Y-124854385D02*
X174742092Y-124757623D01*
X174742092Y-124757623D02*
X174656378Y-124709242D01*
X174656378Y-124709242D02*
X174442092Y-124709242D01*
X174442092Y-124709242D02*
X174356378Y-124660861D01*
X173970663Y-125047909D02*
X173884949Y-125096289D01*
X173884949Y-125096289D02*
X173713520Y-125096289D01*
X173713520Y-125096289D02*
X173627806Y-125047909D01*
X173627806Y-125047909D02*
X173584949Y-124951147D01*
X173584949Y-124951147D02*
X173584949Y-124902766D01*
X173584949Y-124902766D02*
X173627806Y-124806004D01*
X173627806Y-124806004D02*
X173713520Y-124757623D01*
X173713520Y-124757623D02*
X173842092Y-124757623D01*
X173842092Y-124757623D02*
X173927806Y-124709242D01*
X173927806Y-124709242D02*
X173970663Y-124612480D01*
X173970663Y-124612480D02*
X173970663Y-124564099D01*
X173970663Y-124564099D02*
X173927806Y-124467337D01*
X173927806Y-124467337D02*
X173842092Y-124418956D01*
X173842092Y-124418956D02*
X173713520Y-124418956D01*
X173713520Y-124418956D02*
X173627806Y-124467337D01*
X172599235Y-124080289D02*
X171999235Y-124080289D01*
X171999235Y-124080289D02*
X172599235Y-125096289D01*
X172599235Y-125096289D02*
X171999235Y-125096289D01*
X171656378Y-125096289D02*
X171656378Y-124080289D01*
X171270664Y-125096289D02*
X171270664Y-124564099D01*
X171270664Y-124564099D02*
X171313521Y-124467337D01*
X171313521Y-124467337D02*
X171399235Y-124418956D01*
X171399235Y-124418956D02*
X171527806Y-124418956D01*
X171527806Y-124418956D02*
X171613521Y-124467337D01*
X171613521Y-124467337D02*
X171656378Y-124515718D01*
X170456378Y-125096289D02*
X170456378Y-124564099D01*
X170456378Y-124564099D02*
X170499235Y-124467337D01*
X170499235Y-124467337D02*
X170584949Y-124418956D01*
X170584949Y-124418956D02*
X170756378Y-124418956D01*
X170756378Y-124418956D02*
X170842092Y-124467337D01*
X170456378Y-125047909D02*
X170542092Y-125096289D01*
X170542092Y-125096289D02*
X170756378Y-125096289D01*
X170756378Y-125096289D02*
X170842092Y-125047909D01*
X170842092Y-125047909D02*
X170884949Y-124951147D01*
X170884949Y-124951147D02*
X170884949Y-124854385D01*
X170884949Y-124854385D02*
X170842092Y-124757623D01*
X170842092Y-124757623D02*
X170756378Y-124709242D01*
X170756378Y-124709242D02*
X170542092Y-124709242D01*
X170542092Y-124709242D02*
X170456378Y-124660861D01*
X170027806Y-124418956D02*
X170027806Y-125096289D01*
X170027806Y-124515718D02*
X169984949Y-124467337D01*
X169984949Y-124467337D02*
X169899234Y-124418956D01*
X169899234Y-124418956D02*
X169770663Y-124418956D01*
X169770663Y-124418956D02*
X169684949Y-124467337D01*
X169684949Y-124467337D02*
X169642092Y-124564099D01*
X169642092Y-124564099D02*
X169642092Y-125096289D01*
X168827806Y-124418956D02*
X168827806Y-125241432D01*
X168827806Y-125241432D02*
X168870663Y-125338194D01*
X168870663Y-125338194D02*
X168913520Y-125386575D01*
X168913520Y-125386575D02*
X168999234Y-125434956D01*
X168999234Y-125434956D02*
X169127806Y-125434956D01*
X169127806Y-125434956D02*
X169213520Y-125386575D01*
X168827806Y-125047909D02*
X168913520Y-125096289D01*
X168913520Y-125096289D02*
X169084948Y-125096289D01*
X169084948Y-125096289D02*
X169170663Y-125047909D01*
X169170663Y-125047909D02*
X169213520Y-124999528D01*
X169213520Y-124999528D02*
X169256377Y-124902766D01*
X169256377Y-124902766D02*
X169256377Y-124612480D01*
X169256377Y-124612480D02*
X169213520Y-124515718D01*
X169213520Y-124515718D02*
X169170663Y-124467337D01*
X169170663Y-124467337D02*
X169084948Y-124418956D01*
X169084948Y-124418956D02*
X168913520Y-124418956D01*
X168913520Y-124418956D02*
X168827806Y-124467337D01*
X179113521Y-125715992D02*
X178813521Y-126731992D01*
X178813521Y-126731992D02*
X178513521Y-125715992D01*
X178213521Y-126731992D02*
X178213521Y-126054659D01*
X178213521Y-125715992D02*
X178256378Y-125764373D01*
X178256378Y-125764373D02*
X178213521Y-125812754D01*
X178213521Y-125812754D02*
X178170664Y-125764373D01*
X178170664Y-125764373D02*
X178213521Y-125715992D01*
X178213521Y-125715992D02*
X178213521Y-125812754D01*
X177784950Y-126054659D02*
X177784950Y-126925516D01*
X177784950Y-126925516D02*
X177827807Y-127022278D01*
X177827807Y-127022278D02*
X177913521Y-127070659D01*
X177913521Y-127070659D02*
X177956378Y-127070659D01*
X177784950Y-125715992D02*
X177827807Y-125764373D01*
X177827807Y-125764373D02*
X177784950Y-125812754D01*
X177784950Y-125812754D02*
X177742093Y-125764373D01*
X177742093Y-125764373D02*
X177784950Y-125715992D01*
X177784950Y-125715992D02*
X177784950Y-125812754D01*
X176970665Y-126731992D02*
X176970665Y-126199802D01*
X176970665Y-126199802D02*
X177013522Y-126103040D01*
X177013522Y-126103040D02*
X177099236Y-126054659D01*
X177099236Y-126054659D02*
X177270665Y-126054659D01*
X177270665Y-126054659D02*
X177356379Y-126103040D01*
X176970665Y-126683612D02*
X177056379Y-126731992D01*
X177056379Y-126731992D02*
X177270665Y-126731992D01*
X177270665Y-126731992D02*
X177356379Y-126683612D01*
X177356379Y-126683612D02*
X177399236Y-126586850D01*
X177399236Y-126586850D02*
X177399236Y-126490088D01*
X177399236Y-126490088D02*
X177356379Y-126393326D01*
X177356379Y-126393326D02*
X177270665Y-126344945D01*
X177270665Y-126344945D02*
X177056379Y-126344945D01*
X177056379Y-126344945D02*
X176970665Y-126296564D01*
X176627807Y-126054659D02*
X176413521Y-126731992D01*
X176199236Y-126054659D02*
X176413521Y-126731992D01*
X176413521Y-126731992D02*
X176499236Y-126973897D01*
X176499236Y-126973897D02*
X176542093Y-127022278D01*
X176542093Y-127022278D02*
X176627807Y-127070659D01*
X175813522Y-126683612D02*
X175813522Y-126731992D01*
X175813522Y-126731992D02*
X175856379Y-126828754D01*
X175856379Y-126828754D02*
X175899236Y-126877135D01*
X174742094Y-126731992D02*
X174742094Y-125715992D01*
X174742094Y-125715992D02*
X174527808Y-125715992D01*
X174527808Y-125715992D02*
X174399237Y-125764373D01*
X174399237Y-125764373D02*
X174313522Y-125861135D01*
X174313522Y-125861135D02*
X174270665Y-125957897D01*
X174270665Y-125957897D02*
X174227808Y-126151421D01*
X174227808Y-126151421D02*
X174227808Y-126296564D01*
X174227808Y-126296564D02*
X174270665Y-126490088D01*
X174270665Y-126490088D02*
X174313522Y-126586850D01*
X174313522Y-126586850D02*
X174399237Y-126683612D01*
X174399237Y-126683612D02*
X174527808Y-126731992D01*
X174527808Y-126731992D02*
X174742094Y-126731992D01*
X173456380Y-126731992D02*
X173456380Y-126199802D01*
X173456380Y-126199802D02*
X173499237Y-126103040D01*
X173499237Y-126103040D02*
X173584951Y-126054659D01*
X173584951Y-126054659D02*
X173756380Y-126054659D01*
X173756380Y-126054659D02*
X173842094Y-126103040D01*
X173456380Y-126683612D02*
X173542094Y-126731992D01*
X173542094Y-126731992D02*
X173756380Y-126731992D01*
X173756380Y-126731992D02*
X173842094Y-126683612D01*
X173842094Y-126683612D02*
X173884951Y-126586850D01*
X173884951Y-126586850D02*
X173884951Y-126490088D01*
X173884951Y-126490088D02*
X173842094Y-126393326D01*
X173842094Y-126393326D02*
X173756380Y-126344945D01*
X173756380Y-126344945D02*
X173542094Y-126344945D01*
X173542094Y-126344945D02*
X173456380Y-126296564D01*
X173027808Y-126054659D02*
X173027808Y-126731992D01*
X173027808Y-126151421D02*
X172984951Y-126103040D01*
X172984951Y-126103040D02*
X172899236Y-126054659D01*
X172899236Y-126054659D02*
X172770665Y-126054659D01*
X172770665Y-126054659D02*
X172684951Y-126103040D01*
X172684951Y-126103040D02*
X172642094Y-126199802D01*
X172642094Y-126199802D02*
X172642094Y-126731992D01*
X172213522Y-126731992D02*
X172213522Y-126054659D01*
X172213522Y-125715992D02*
X172256379Y-125764373D01*
X172256379Y-125764373D02*
X172213522Y-125812754D01*
X172213522Y-125812754D02*
X172170665Y-125764373D01*
X172170665Y-125764373D02*
X172213522Y-125715992D01*
X172213522Y-125715992D02*
X172213522Y-125812754D01*
X171442094Y-126683612D02*
X171527808Y-126731992D01*
X171527808Y-126731992D02*
X171699237Y-126731992D01*
X171699237Y-126731992D02*
X171784951Y-126683612D01*
X171784951Y-126683612D02*
X171827808Y-126586850D01*
X171827808Y-126586850D02*
X171827808Y-126199802D01*
X171827808Y-126199802D02*
X171784951Y-126103040D01*
X171784951Y-126103040D02*
X171699237Y-126054659D01*
X171699237Y-126054659D02*
X171527808Y-126054659D01*
X171527808Y-126054659D02*
X171442094Y-126103040D01*
X171442094Y-126103040D02*
X171399237Y-126199802D01*
X171399237Y-126199802D02*
X171399237Y-126296564D01*
X171399237Y-126296564D02*
X171827808Y-126393326D01*
X170884950Y-126731992D02*
X170970665Y-126683612D01*
X170970665Y-126683612D02*
X171013522Y-126586850D01*
X171013522Y-126586850D02*
X171013522Y-125715992D01*
X178556378Y-128367695D02*
X178984950Y-128367695D01*
X178984950Y-128367695D02*
X178984950Y-127351695D01*
X177913522Y-128319315D02*
X177999236Y-128367695D01*
X177999236Y-128367695D02*
X178170665Y-128367695D01*
X178170665Y-128367695D02*
X178256379Y-128319315D01*
X178256379Y-128319315D02*
X178299236Y-128222553D01*
X178299236Y-128222553D02*
X178299236Y-127835505D01*
X178299236Y-127835505D02*
X178256379Y-127738743D01*
X178256379Y-127738743D02*
X178170665Y-127690362D01*
X178170665Y-127690362D02*
X177999236Y-127690362D01*
X177999236Y-127690362D02*
X177913522Y-127738743D01*
X177913522Y-127738743D02*
X177870665Y-127835505D01*
X177870665Y-127835505D02*
X177870665Y-127932267D01*
X177870665Y-127932267D02*
X178299236Y-128029029D01*
X177356378Y-128367695D02*
X177442093Y-128319315D01*
X177442093Y-128319315D02*
X177484950Y-128270934D01*
X177484950Y-128270934D02*
X177527807Y-128174172D01*
X177527807Y-128174172D02*
X177527807Y-127883886D01*
X177527807Y-127883886D02*
X177484950Y-127787124D01*
X177484950Y-127787124D02*
X177442093Y-127738743D01*
X177442093Y-127738743D02*
X177356378Y-127690362D01*
X177356378Y-127690362D02*
X177227807Y-127690362D01*
X177227807Y-127690362D02*
X177142093Y-127738743D01*
X177142093Y-127738743D02*
X177099236Y-127787124D01*
X177099236Y-127787124D02*
X177056378Y-127883886D01*
X177056378Y-127883886D02*
X177056378Y-128174172D01*
X177056378Y-128174172D02*
X177099236Y-128270934D01*
X177099236Y-128270934D02*
X177142093Y-128319315D01*
X177142093Y-128319315D02*
X177227807Y-128367695D01*
X177227807Y-128367695D02*
X177356378Y-128367695D01*
X176627807Y-128319315D02*
X176627807Y-128367695D01*
X176627807Y-128367695D02*
X176670664Y-128464457D01*
X176670664Y-128464457D02*
X176713521Y-128512838D01*
X175556379Y-128367695D02*
X175556379Y-127351695D01*
X175042093Y-128367695D02*
X175427807Y-127787124D01*
X175042093Y-127351695D02*
X175556379Y-127932267D01*
X174313522Y-128319315D02*
X174399236Y-128367695D01*
X174399236Y-128367695D02*
X174570665Y-128367695D01*
X174570665Y-128367695D02*
X174656379Y-128319315D01*
X174656379Y-128319315D02*
X174699236Y-128222553D01*
X174699236Y-128222553D02*
X174699236Y-127835505D01*
X174699236Y-127835505D02*
X174656379Y-127738743D01*
X174656379Y-127738743D02*
X174570665Y-127690362D01*
X174570665Y-127690362D02*
X174399236Y-127690362D01*
X174399236Y-127690362D02*
X174313522Y-127738743D01*
X174313522Y-127738743D02*
X174270665Y-127835505D01*
X174270665Y-127835505D02*
X174270665Y-127932267D01*
X174270665Y-127932267D02*
X174699236Y-128029029D01*
X173756378Y-128367695D02*
X173842093Y-128319315D01*
X173842093Y-128319315D02*
X173884950Y-128270934D01*
X173884950Y-128270934D02*
X173927807Y-128174172D01*
X173927807Y-128174172D02*
X173927807Y-127883886D01*
X173927807Y-127883886D02*
X173884950Y-127787124D01*
X173884950Y-127787124D02*
X173842093Y-127738743D01*
X173842093Y-127738743D02*
X173756378Y-127690362D01*
X173756378Y-127690362D02*
X173627807Y-127690362D01*
X173627807Y-127690362D02*
X173542093Y-127738743D01*
X173542093Y-127738743D02*
X173499236Y-127787124D01*
X173499236Y-127787124D02*
X173456378Y-127883886D01*
X173456378Y-127883886D02*
X173456378Y-128174172D01*
X173456378Y-128174172D02*
X173499236Y-128270934D01*
X173499236Y-128270934D02*
X173542093Y-128319315D01*
X173542093Y-128319315D02*
X173627807Y-128367695D01*
X173627807Y-128367695D02*
X173756378Y-128367695D01*
X173070664Y-127690362D02*
X173070664Y-128367695D01*
X173070664Y-127787124D02*
X173027807Y-127738743D01*
X173027807Y-127738743D02*
X172942092Y-127690362D01*
X172942092Y-127690362D02*
X172813521Y-127690362D01*
X172813521Y-127690362D02*
X172727807Y-127738743D01*
X172727807Y-127738743D02*
X172684950Y-127835505D01*
X172684950Y-127835505D02*
X172684950Y-128367695D01*
X171870664Y-128367695D02*
X171870664Y-127835505D01*
X171870664Y-127835505D02*
X171913521Y-127738743D01*
X171913521Y-127738743D02*
X171999235Y-127690362D01*
X171999235Y-127690362D02*
X172170664Y-127690362D01*
X172170664Y-127690362D02*
X172256378Y-127738743D01*
X171870664Y-128319315D02*
X171956378Y-128367695D01*
X171956378Y-128367695D02*
X172170664Y-128367695D01*
X172170664Y-128367695D02*
X172256378Y-128319315D01*
X172256378Y-128319315D02*
X172299235Y-128222553D01*
X172299235Y-128222553D02*
X172299235Y-128125791D01*
X172299235Y-128125791D02*
X172256378Y-128029029D01*
X172256378Y-128029029D02*
X172170664Y-127980648D01*
X172170664Y-127980648D02*
X171956378Y-127980648D01*
X171956378Y-127980648D02*
X171870664Y-127932267D01*
X178482143Y-103362055D02*
X178732143Y-102878246D01*
X178910714Y-103362055D02*
X178910714Y-102346055D01*
X178910714Y-102346055D02*
X178625000Y-102346055D01*
X178625000Y-102346055D02*
X178553571Y-102394436D01*
X178553571Y-102394436D02*
X178517857Y-102442817D01*
X178517857Y-102442817D02*
X178482143Y-102539579D01*
X178482143Y-102539579D02*
X178482143Y-102684722D01*
X178482143Y-102684722D02*
X178517857Y-102781484D01*
X178517857Y-102781484D02*
X178553571Y-102829865D01*
X178553571Y-102829865D02*
X178625000Y-102878246D01*
X178625000Y-102878246D02*
X178910714Y-102878246D01*
X178196428Y-102442817D02*
X178160714Y-102394436D01*
X178160714Y-102394436D02*
X178089286Y-102346055D01*
X178089286Y-102346055D02*
X177910714Y-102346055D01*
X177910714Y-102346055D02*
X177839286Y-102394436D01*
X177839286Y-102394436D02*
X177803571Y-102442817D01*
X177803571Y-102442817D02*
X177767857Y-102539579D01*
X177767857Y-102539579D02*
X177767857Y-102636341D01*
X177767857Y-102636341D02*
X177803571Y-102781484D01*
X177803571Y-102781484D02*
X178232143Y-103362055D01*
X178232143Y-103362055D02*
X177767857Y-103362055D01*
X177482142Y-102442817D02*
X177446428Y-102394436D01*
X177446428Y-102394436D02*
X177375000Y-102346055D01*
X177375000Y-102346055D02*
X177196428Y-102346055D01*
X177196428Y-102346055D02*
X177125000Y-102394436D01*
X177125000Y-102394436D02*
X177089285Y-102442817D01*
X177089285Y-102442817D02*
X177053571Y-102539579D01*
X177053571Y-102539579D02*
X177053571Y-102636341D01*
X177053571Y-102636341D02*
X177089285Y-102781484D01*
X177089285Y-102781484D02*
X177517857Y-103362055D01*
X177517857Y-103362055D02*
X177053571Y-103362055D01*
X144565294Y-79217856D02*
X144613675Y-79182142D01*
X144613675Y-79182142D02*
X144662055Y-79074999D01*
X144662055Y-79074999D02*
X144662055Y-79003571D01*
X144662055Y-79003571D02*
X144613675Y-78896428D01*
X144613675Y-78896428D02*
X144516913Y-78824999D01*
X144516913Y-78824999D02*
X144420151Y-78789285D01*
X144420151Y-78789285D02*
X144226627Y-78753571D01*
X144226627Y-78753571D02*
X144081484Y-78753571D01*
X144081484Y-78753571D02*
X143887960Y-78789285D01*
X143887960Y-78789285D02*
X143791198Y-78824999D01*
X143791198Y-78824999D02*
X143694436Y-78896428D01*
X143694436Y-78896428D02*
X143646055Y-79003571D01*
X143646055Y-79003571D02*
X143646055Y-79074999D01*
X143646055Y-79074999D02*
X143694436Y-79182142D01*
X143694436Y-79182142D02*
X143742817Y-79217856D01*
X144662055Y-79932142D02*
X144662055Y-79503571D01*
X144662055Y-79717856D02*
X143646055Y-79717856D01*
X143646055Y-79717856D02*
X143791198Y-79646428D01*
X143791198Y-79646428D02*
X143887960Y-79574999D01*
X143887960Y-79574999D02*
X143936341Y-79503571D01*
X143646055Y-80575000D02*
X143646055Y-80432142D01*
X143646055Y-80432142D02*
X143694436Y-80360714D01*
X143694436Y-80360714D02*
X143742817Y-80325000D01*
X143742817Y-80325000D02*
X143887960Y-80253571D01*
X143887960Y-80253571D02*
X144081484Y-80217857D01*
X144081484Y-80217857D02*
X144468532Y-80217857D01*
X144468532Y-80217857D02*
X144565294Y-80253571D01*
X144565294Y-80253571D02*
X144613675Y-80289285D01*
X144613675Y-80289285D02*
X144662055Y-80360714D01*
X144662055Y-80360714D02*
X144662055Y-80503571D01*
X144662055Y-80503571D02*
X144613675Y-80575000D01*
X144613675Y-80575000D02*
X144565294Y-80610714D01*
X144565294Y-80610714D02*
X144468532Y-80646428D01*
X144468532Y-80646428D02*
X144226627Y-80646428D01*
X144226627Y-80646428D02*
X144129865Y-80610714D01*
X144129865Y-80610714D02*
X144081484Y-80575000D01*
X144081484Y-80575000D02*
X144033103Y-80503571D01*
X144033103Y-80503571D02*
X144033103Y-80360714D01*
X144033103Y-80360714D02*
X144081484Y-80289285D01*
X144081484Y-80289285D02*
X144129865Y-80253571D01*
X144129865Y-80253571D02*
X144226627Y-80217857D01*
X178522143Y-105043805D02*
X178772143Y-104559996D01*
X178950714Y-105043805D02*
X178950714Y-104027805D01*
X178950714Y-104027805D02*
X178665000Y-104027805D01*
X178665000Y-104027805D02*
X178593571Y-104076186D01*
X178593571Y-104076186D02*
X178557857Y-104124567D01*
X178557857Y-104124567D02*
X178522143Y-104221329D01*
X178522143Y-104221329D02*
X178522143Y-104366472D01*
X178522143Y-104366472D02*
X178557857Y-104463234D01*
X178557857Y-104463234D02*
X178593571Y-104511615D01*
X178593571Y-104511615D02*
X178665000Y-104559996D01*
X178665000Y-104559996D02*
X178950714Y-104559996D01*
X178236428Y-104124567D02*
X178200714Y-104076186D01*
X178200714Y-104076186D02*
X178129286Y-104027805D01*
X178129286Y-104027805D02*
X177950714Y-104027805D01*
X177950714Y-104027805D02*
X177879286Y-104076186D01*
X177879286Y-104076186D02*
X177843571Y-104124567D01*
X177843571Y-104124567D02*
X177807857Y-104221329D01*
X177807857Y-104221329D02*
X177807857Y-104318091D01*
X177807857Y-104318091D02*
X177843571Y-104463234D01*
X177843571Y-104463234D02*
X178272143Y-105043805D01*
X178272143Y-105043805D02*
X177807857Y-105043805D01*
X177093571Y-105043805D02*
X177522142Y-105043805D01*
X177307857Y-105043805D02*
X177307857Y-104027805D01*
X177307857Y-104027805D02*
X177379285Y-104172948D01*
X177379285Y-104172948D02*
X177450714Y-104269710D01*
X177450714Y-104269710D02*
X177522142Y-104318091D01*
X169124999Y-98499865D02*
X169374999Y-98499865D01*
X169374999Y-99032055D02*
X169374999Y-98016055D01*
X169374999Y-98016055D02*
X169017856Y-98016055D01*
X168482142Y-98499865D02*
X168374999Y-98548246D01*
X168374999Y-98548246D02*
X168339285Y-98596627D01*
X168339285Y-98596627D02*
X168303571Y-98693389D01*
X168303571Y-98693389D02*
X168303571Y-98838532D01*
X168303571Y-98838532D02*
X168339285Y-98935294D01*
X168339285Y-98935294D02*
X168374999Y-98983675D01*
X168374999Y-98983675D02*
X168446428Y-99032055D01*
X168446428Y-99032055D02*
X168732142Y-99032055D01*
X168732142Y-99032055D02*
X168732142Y-98016055D01*
X168732142Y-98016055D02*
X168482142Y-98016055D01*
X168482142Y-98016055D02*
X168410714Y-98064436D01*
X168410714Y-98064436D02*
X168374999Y-98112817D01*
X168374999Y-98112817D02*
X168339285Y-98209579D01*
X168339285Y-98209579D02*
X168339285Y-98306341D01*
X168339285Y-98306341D02*
X168374999Y-98403103D01*
X168374999Y-98403103D02*
X168410714Y-98451484D01*
X168410714Y-98451484D02*
X168482142Y-98499865D01*
X168482142Y-98499865D02*
X168732142Y-98499865D01*
X167589285Y-99032055D02*
X168017856Y-99032055D01*
X167803571Y-99032055D02*
X167803571Y-98016055D01*
X167803571Y-98016055D02*
X167874999Y-98161198D01*
X167874999Y-98161198D02*
X167946428Y-98257960D01*
X167946428Y-98257960D02*
X168017856Y-98306341D01*
X163874999Y-103434705D02*
X163839285Y-103386325D01*
X163839285Y-103386325D02*
X163732142Y-103337944D01*
X163732142Y-103337944D02*
X163660714Y-103337944D01*
X163660714Y-103337944D02*
X163553571Y-103386325D01*
X163553571Y-103386325D02*
X163482142Y-103483086D01*
X163482142Y-103483086D02*
X163446428Y-103579848D01*
X163446428Y-103579848D02*
X163410714Y-103773372D01*
X163410714Y-103773372D02*
X163410714Y-103918515D01*
X163410714Y-103918515D02*
X163446428Y-104112039D01*
X163446428Y-104112039D02*
X163482142Y-104208801D01*
X163482142Y-104208801D02*
X163553571Y-104305563D01*
X163553571Y-104305563D02*
X163660714Y-104353944D01*
X163660714Y-104353944D02*
X163732142Y-104353944D01*
X163732142Y-104353944D02*
X163839285Y-104305563D01*
X163839285Y-104305563D02*
X163874999Y-104257182D01*
X164553571Y-104353944D02*
X164196428Y-104353944D01*
X164196428Y-104353944D02*
X164160714Y-103870134D01*
X164160714Y-103870134D02*
X164196428Y-103918515D01*
X164196428Y-103918515D02*
X164267857Y-103966896D01*
X164267857Y-103966896D02*
X164446428Y-103966896D01*
X164446428Y-103966896D02*
X164517857Y-103918515D01*
X164517857Y-103918515D02*
X164553571Y-103870134D01*
X164553571Y-103870134D02*
X164589285Y-103773372D01*
X164589285Y-103773372D02*
X164589285Y-103531467D01*
X164589285Y-103531467D02*
X164553571Y-103434705D01*
X164553571Y-103434705D02*
X164517857Y-103386325D01*
X164517857Y-103386325D02*
X164446428Y-103337944D01*
X164446428Y-103337944D02*
X164267857Y-103337944D01*
X164267857Y-103337944D02*
X164196428Y-103386325D01*
X164196428Y-103386325D02*
X164160714Y-103434705D01*
X144862055Y-87917856D02*
X144378246Y-87667856D01*
X144862055Y-87489285D02*
X143846055Y-87489285D01*
X143846055Y-87489285D02*
X143846055Y-87774999D01*
X143846055Y-87774999D02*
X143894436Y-87846428D01*
X143894436Y-87846428D02*
X143942817Y-87882142D01*
X143942817Y-87882142D02*
X144039579Y-87917856D01*
X144039579Y-87917856D02*
X144184722Y-87917856D01*
X144184722Y-87917856D02*
X144281484Y-87882142D01*
X144281484Y-87882142D02*
X144329865Y-87846428D01*
X144329865Y-87846428D02*
X144378246Y-87774999D01*
X144378246Y-87774999D02*
X144378246Y-87489285D01*
X144862055Y-88632142D02*
X144862055Y-88203571D01*
X144862055Y-88417856D02*
X143846055Y-88417856D01*
X143846055Y-88417856D02*
X143991198Y-88346428D01*
X143991198Y-88346428D02*
X144087960Y-88274999D01*
X144087960Y-88274999D02*
X144136341Y-88203571D01*
X144862055Y-88989285D02*
X144862055Y-89132142D01*
X144862055Y-89132142D02*
X144813675Y-89203571D01*
X144813675Y-89203571D02*
X144765294Y-89239285D01*
X144765294Y-89239285D02*
X144620151Y-89310714D01*
X144620151Y-89310714D02*
X144426627Y-89346428D01*
X144426627Y-89346428D02*
X144039579Y-89346428D01*
X144039579Y-89346428D02*
X143942817Y-89310714D01*
X143942817Y-89310714D02*
X143894436Y-89275000D01*
X143894436Y-89275000D02*
X143846055Y-89203571D01*
X143846055Y-89203571D02*
X143846055Y-89060714D01*
X143846055Y-89060714D02*
X143894436Y-88989285D01*
X143894436Y-88989285D02*
X143942817Y-88953571D01*
X143942817Y-88953571D02*
X144039579Y-88917857D01*
X144039579Y-88917857D02*
X144281484Y-88917857D01*
X144281484Y-88917857D02*
X144378246Y-88953571D01*
X144378246Y-88953571D02*
X144426627Y-88989285D01*
X144426627Y-88989285D02*
X144475008Y-89060714D01*
X144475008Y-89060714D02*
X144475008Y-89203571D01*
X144475008Y-89203571D02*
X144426627Y-89275000D01*
X144426627Y-89275000D02*
X144378246Y-89310714D01*
X144378246Y-89310714D02*
X144281484Y-89346428D01*
X161874999Y-94837944D02*
X161624999Y-95321753D01*
X161446428Y-94837944D02*
X161446428Y-95853944D01*
X161446428Y-95853944D02*
X161732142Y-95853944D01*
X161732142Y-95853944D02*
X161803571Y-95805563D01*
X161803571Y-95805563D02*
X161839285Y-95757182D01*
X161839285Y-95757182D02*
X161874999Y-95660420D01*
X161874999Y-95660420D02*
X161874999Y-95515277D01*
X161874999Y-95515277D02*
X161839285Y-95418515D01*
X161839285Y-95418515D02*
X161803571Y-95370134D01*
X161803571Y-95370134D02*
X161732142Y-95321753D01*
X161732142Y-95321753D02*
X161446428Y-95321753D01*
X162232142Y-94837944D02*
X162374999Y-94837944D01*
X162374999Y-94837944D02*
X162446428Y-94886325D01*
X162446428Y-94886325D02*
X162482142Y-94934705D01*
X162482142Y-94934705D02*
X162553571Y-95079848D01*
X162553571Y-95079848D02*
X162589285Y-95273372D01*
X162589285Y-95273372D02*
X162589285Y-95660420D01*
X162589285Y-95660420D02*
X162553571Y-95757182D01*
X162553571Y-95757182D02*
X162517857Y-95805563D01*
X162517857Y-95805563D02*
X162446428Y-95853944D01*
X162446428Y-95853944D02*
X162303571Y-95853944D01*
X162303571Y-95853944D02*
X162232142Y-95805563D01*
X162232142Y-95805563D02*
X162196428Y-95757182D01*
X162196428Y-95757182D02*
X162160714Y-95660420D01*
X162160714Y-95660420D02*
X162160714Y-95418515D01*
X162160714Y-95418515D02*
X162196428Y-95321753D01*
X162196428Y-95321753D02*
X162232142Y-95273372D01*
X162232142Y-95273372D02*
X162303571Y-95224991D01*
X162303571Y-95224991D02*
X162446428Y-95224991D01*
X162446428Y-95224991D02*
X162517857Y-95273372D01*
X162517857Y-95273372D02*
X162553571Y-95321753D01*
X162553571Y-95321753D02*
X162589285Y-95418515D01*
X178517856Y-108434705D02*
X178482142Y-108386325D01*
X178482142Y-108386325D02*
X178374999Y-108337944D01*
X178374999Y-108337944D02*
X178303571Y-108337944D01*
X178303571Y-108337944D02*
X178196428Y-108386325D01*
X178196428Y-108386325D02*
X178124999Y-108483086D01*
X178124999Y-108483086D02*
X178089285Y-108579848D01*
X178089285Y-108579848D02*
X178053571Y-108773372D01*
X178053571Y-108773372D02*
X178053571Y-108918515D01*
X178053571Y-108918515D02*
X178089285Y-109112039D01*
X178089285Y-109112039D02*
X178124999Y-109208801D01*
X178124999Y-109208801D02*
X178196428Y-109305563D01*
X178196428Y-109305563D02*
X178303571Y-109353944D01*
X178303571Y-109353944D02*
X178374999Y-109353944D01*
X178374999Y-109353944D02*
X178482142Y-109305563D01*
X178482142Y-109305563D02*
X178517856Y-109257182D01*
X179232142Y-108337944D02*
X178803571Y-108337944D01*
X179017856Y-108337944D02*
X179017856Y-109353944D01*
X179017856Y-109353944D02*
X178946428Y-109208801D01*
X178946428Y-109208801D02*
X178874999Y-109112039D01*
X178874999Y-109112039D02*
X178803571Y-109063658D01*
X179482142Y-109353944D02*
X179982142Y-109353944D01*
X179982142Y-109353944D02*
X179660714Y-108337944D01*
X144862055Y-91417856D02*
X144378246Y-91167856D01*
X144862055Y-90989285D02*
X143846055Y-90989285D01*
X143846055Y-90989285D02*
X143846055Y-91274999D01*
X143846055Y-91274999D02*
X143894436Y-91346428D01*
X143894436Y-91346428D02*
X143942817Y-91382142D01*
X143942817Y-91382142D02*
X144039579Y-91417856D01*
X144039579Y-91417856D02*
X144184722Y-91417856D01*
X144184722Y-91417856D02*
X144281484Y-91382142D01*
X144281484Y-91382142D02*
X144329865Y-91346428D01*
X144329865Y-91346428D02*
X144378246Y-91274999D01*
X144378246Y-91274999D02*
X144378246Y-90989285D01*
X144862055Y-92132142D02*
X144862055Y-91703571D01*
X144862055Y-91917856D02*
X143846055Y-91917856D01*
X143846055Y-91917856D02*
X143991198Y-91846428D01*
X143991198Y-91846428D02*
X144087960Y-91774999D01*
X144087960Y-91774999D02*
X144136341Y-91703571D01*
X143846055Y-92382142D02*
X143846055Y-92882142D01*
X143846055Y-92882142D02*
X144862055Y-92560714D01*
X172571428Y-104646055D02*
X172571428Y-105468532D01*
X172571428Y-105468532D02*
X172535714Y-105565294D01*
X172535714Y-105565294D02*
X172500000Y-105613675D01*
X172500000Y-105613675D02*
X172428571Y-105662055D01*
X172428571Y-105662055D02*
X172285714Y-105662055D01*
X172285714Y-105662055D02*
X172214285Y-105613675D01*
X172214285Y-105613675D02*
X172178571Y-105565294D01*
X172178571Y-105565294D02*
X172142857Y-105468532D01*
X172142857Y-105468532D02*
X172142857Y-104646055D01*
X171857143Y-104646055D02*
X171392857Y-104646055D01*
X171392857Y-104646055D02*
X171642857Y-105033103D01*
X171642857Y-105033103D02*
X171535714Y-105033103D01*
X171535714Y-105033103D02*
X171464286Y-105081484D01*
X171464286Y-105081484D02*
X171428571Y-105129865D01*
X171428571Y-105129865D02*
X171392857Y-105226627D01*
X171392857Y-105226627D02*
X171392857Y-105468532D01*
X171392857Y-105468532D02*
X171428571Y-105565294D01*
X171428571Y-105565294D02*
X171464286Y-105613675D01*
X171464286Y-105613675D02*
X171535714Y-105662055D01*
X171535714Y-105662055D02*
X171750000Y-105662055D01*
X171750000Y-105662055D02*
X171821428Y-105613675D01*
X171821428Y-105613675D02*
X171857143Y-105565294D01*
X165674999Y-98434705D02*
X165639285Y-98386325D01*
X165639285Y-98386325D02*
X165532142Y-98337944D01*
X165532142Y-98337944D02*
X165460714Y-98337944D01*
X165460714Y-98337944D02*
X165353571Y-98386325D01*
X165353571Y-98386325D02*
X165282142Y-98483086D01*
X165282142Y-98483086D02*
X165246428Y-98579848D01*
X165246428Y-98579848D02*
X165210714Y-98773372D01*
X165210714Y-98773372D02*
X165210714Y-98918515D01*
X165210714Y-98918515D02*
X165246428Y-99112039D01*
X165246428Y-99112039D02*
X165282142Y-99208801D01*
X165282142Y-99208801D02*
X165353571Y-99305563D01*
X165353571Y-99305563D02*
X165460714Y-99353944D01*
X165460714Y-99353944D02*
X165532142Y-99353944D01*
X165532142Y-99353944D02*
X165639285Y-99305563D01*
X165639285Y-99305563D02*
X165674999Y-99257182D01*
X166389285Y-98337944D02*
X165960714Y-98337944D01*
X166174999Y-98337944D02*
X166174999Y-99353944D01*
X166174999Y-99353944D02*
X166103571Y-99208801D01*
X166103571Y-99208801D02*
X166032142Y-99112039D01*
X166032142Y-99112039D02*
X165960714Y-99063658D01*
X165124999Y-86999865D02*
X165374999Y-86999865D01*
X165374999Y-87532055D02*
X165374999Y-86516055D01*
X165374999Y-86516055D02*
X165017856Y-86516055D01*
X164482142Y-86999865D02*
X164374999Y-87048246D01*
X164374999Y-87048246D02*
X164339285Y-87096627D01*
X164339285Y-87096627D02*
X164303571Y-87193389D01*
X164303571Y-87193389D02*
X164303571Y-87338532D01*
X164303571Y-87338532D02*
X164339285Y-87435294D01*
X164339285Y-87435294D02*
X164374999Y-87483675D01*
X164374999Y-87483675D02*
X164446428Y-87532055D01*
X164446428Y-87532055D02*
X164732142Y-87532055D01*
X164732142Y-87532055D02*
X164732142Y-86516055D01*
X164732142Y-86516055D02*
X164482142Y-86516055D01*
X164482142Y-86516055D02*
X164410714Y-86564436D01*
X164410714Y-86564436D02*
X164374999Y-86612817D01*
X164374999Y-86612817D02*
X164339285Y-86709579D01*
X164339285Y-86709579D02*
X164339285Y-86806341D01*
X164339285Y-86806341D02*
X164374999Y-86903103D01*
X164374999Y-86903103D02*
X164410714Y-86951484D01*
X164410714Y-86951484D02*
X164482142Y-86999865D01*
X164482142Y-86999865D02*
X164732142Y-86999865D01*
X163624999Y-86516055D02*
X163982142Y-86516055D01*
X163982142Y-86516055D02*
X164017856Y-86999865D01*
X164017856Y-86999865D02*
X163982142Y-86951484D01*
X163982142Y-86951484D02*
X163910714Y-86903103D01*
X163910714Y-86903103D02*
X163732142Y-86903103D01*
X163732142Y-86903103D02*
X163660714Y-86951484D01*
X163660714Y-86951484D02*
X163624999Y-86999865D01*
X163624999Y-86999865D02*
X163589285Y-87096627D01*
X163589285Y-87096627D02*
X163589285Y-87338532D01*
X163589285Y-87338532D02*
X163624999Y-87435294D01*
X163624999Y-87435294D02*
X163660714Y-87483675D01*
X163660714Y-87483675D02*
X163732142Y-87532055D01*
X163732142Y-87532055D02*
X163910714Y-87532055D01*
X163910714Y-87532055D02*
X163982142Y-87483675D01*
X163982142Y-87483675D02*
X164017856Y-87435294D01*
X163574999Y-98434705D02*
X163539285Y-98386325D01*
X163539285Y-98386325D02*
X163432142Y-98337944D01*
X163432142Y-98337944D02*
X163360714Y-98337944D01*
X163360714Y-98337944D02*
X163253571Y-98386325D01*
X163253571Y-98386325D02*
X163182142Y-98483086D01*
X163182142Y-98483086D02*
X163146428Y-98579848D01*
X163146428Y-98579848D02*
X163110714Y-98773372D01*
X163110714Y-98773372D02*
X163110714Y-98918515D01*
X163110714Y-98918515D02*
X163146428Y-99112039D01*
X163146428Y-99112039D02*
X163182142Y-99208801D01*
X163182142Y-99208801D02*
X163253571Y-99305563D01*
X163253571Y-99305563D02*
X163360714Y-99353944D01*
X163360714Y-99353944D02*
X163432142Y-99353944D01*
X163432142Y-99353944D02*
X163539285Y-99305563D01*
X163539285Y-99305563D02*
X163574999Y-99257182D01*
X163860714Y-99257182D02*
X163896428Y-99305563D01*
X163896428Y-99305563D02*
X163967857Y-99353944D01*
X163967857Y-99353944D02*
X164146428Y-99353944D01*
X164146428Y-99353944D02*
X164217857Y-99305563D01*
X164217857Y-99305563D02*
X164253571Y-99257182D01*
X164253571Y-99257182D02*
X164289285Y-99160420D01*
X164289285Y-99160420D02*
X164289285Y-99063658D01*
X164289285Y-99063658D02*
X164253571Y-98918515D01*
X164253571Y-98918515D02*
X163824999Y-98337944D01*
X163824999Y-98337944D02*
X164289285Y-98337944D01*
X187682143Y-102765294D02*
X187717857Y-102813675D01*
X187717857Y-102813675D02*
X187825000Y-102862055D01*
X187825000Y-102862055D02*
X187896428Y-102862055D01*
X187896428Y-102862055D02*
X188003571Y-102813675D01*
X188003571Y-102813675D02*
X188075000Y-102716913D01*
X188075000Y-102716913D02*
X188110714Y-102620151D01*
X188110714Y-102620151D02*
X188146428Y-102426627D01*
X188146428Y-102426627D02*
X188146428Y-102281484D01*
X188146428Y-102281484D02*
X188110714Y-102087960D01*
X188110714Y-102087960D02*
X188075000Y-101991198D01*
X188075000Y-101991198D02*
X188003571Y-101894436D01*
X188003571Y-101894436D02*
X187896428Y-101846055D01*
X187896428Y-101846055D02*
X187825000Y-101846055D01*
X187825000Y-101846055D02*
X187717857Y-101894436D01*
X187717857Y-101894436D02*
X187682143Y-101942817D01*
X186967857Y-102862055D02*
X187396428Y-102862055D01*
X187182143Y-102862055D02*
X187182143Y-101846055D01*
X187182143Y-101846055D02*
X187253571Y-101991198D01*
X187253571Y-101991198D02*
X187325000Y-102087960D01*
X187325000Y-102087960D02*
X187396428Y-102136341D01*
X186610714Y-102862055D02*
X186467857Y-102862055D01*
X186467857Y-102862055D02*
X186396428Y-102813675D01*
X186396428Y-102813675D02*
X186360714Y-102765294D01*
X186360714Y-102765294D02*
X186289285Y-102620151D01*
X186289285Y-102620151D02*
X186253571Y-102426627D01*
X186253571Y-102426627D02*
X186253571Y-102039579D01*
X186253571Y-102039579D02*
X186289285Y-101942817D01*
X186289285Y-101942817D02*
X186325000Y-101894436D01*
X186325000Y-101894436D02*
X186396428Y-101846055D01*
X186396428Y-101846055D02*
X186539285Y-101846055D01*
X186539285Y-101846055D02*
X186610714Y-101894436D01*
X186610714Y-101894436D02*
X186646428Y-101942817D01*
X186646428Y-101942817D02*
X186682142Y-102039579D01*
X186682142Y-102039579D02*
X186682142Y-102281484D01*
X186682142Y-102281484D02*
X186646428Y-102378246D01*
X186646428Y-102378246D02*
X186610714Y-102426627D01*
X186610714Y-102426627D02*
X186539285Y-102475008D01*
X186539285Y-102475008D02*
X186396428Y-102475008D01*
X186396428Y-102475008D02*
X186325000Y-102426627D01*
X186325000Y-102426627D02*
X186289285Y-102378246D01*
X186289285Y-102378246D02*
X186253571Y-102281484D01*
X143662055Y-94817856D02*
X143178246Y-94567856D01*
X143662055Y-94389285D02*
X142646055Y-94389285D01*
X142646055Y-94389285D02*
X142646055Y-94674999D01*
X142646055Y-94674999D02*
X142694436Y-94746428D01*
X142694436Y-94746428D02*
X142742817Y-94782142D01*
X142742817Y-94782142D02*
X142839579Y-94817856D01*
X142839579Y-94817856D02*
X142984722Y-94817856D01*
X142984722Y-94817856D02*
X143081484Y-94782142D01*
X143081484Y-94782142D02*
X143129865Y-94746428D01*
X143129865Y-94746428D02*
X143178246Y-94674999D01*
X143178246Y-94674999D02*
X143178246Y-94389285D01*
X142742817Y-95103571D02*
X142694436Y-95139285D01*
X142694436Y-95139285D02*
X142646055Y-95210714D01*
X142646055Y-95210714D02*
X142646055Y-95389285D01*
X142646055Y-95389285D02*
X142694436Y-95460714D01*
X142694436Y-95460714D02*
X142742817Y-95496428D01*
X142742817Y-95496428D02*
X142839579Y-95532142D01*
X142839579Y-95532142D02*
X142936341Y-95532142D01*
X142936341Y-95532142D02*
X143081484Y-95496428D01*
X143081484Y-95496428D02*
X143662055Y-95067856D01*
X143662055Y-95067856D02*
X143662055Y-95532142D01*
X142646055Y-95996428D02*
X142646055Y-96067857D01*
X142646055Y-96067857D02*
X142694436Y-96139285D01*
X142694436Y-96139285D02*
X142742817Y-96175000D01*
X142742817Y-96175000D02*
X142839579Y-96210714D01*
X142839579Y-96210714D02*
X143033103Y-96246428D01*
X143033103Y-96246428D02*
X143275008Y-96246428D01*
X143275008Y-96246428D02*
X143468532Y-96210714D01*
X143468532Y-96210714D02*
X143565294Y-96175000D01*
X143565294Y-96175000D02*
X143613675Y-96139285D01*
X143613675Y-96139285D02*
X143662055Y-96067857D01*
X143662055Y-96067857D02*
X143662055Y-95996428D01*
X143662055Y-95996428D02*
X143613675Y-95925000D01*
X143613675Y-95925000D02*
X143565294Y-95889285D01*
X143565294Y-95889285D02*
X143468532Y-95853571D01*
X143468532Y-95853571D02*
X143275008Y-95817857D01*
X143275008Y-95817857D02*
X143033103Y-95817857D01*
X143033103Y-95817857D02*
X142839579Y-95853571D01*
X142839579Y-95853571D02*
X142742817Y-95889285D01*
X142742817Y-95889285D02*
X142694436Y-95925000D01*
X142694436Y-95925000D02*
X142646055Y-95996428D01*
X160074999Y-98809705D02*
X160039285Y-98761325D01*
X160039285Y-98761325D02*
X159932142Y-98712944D01*
X159932142Y-98712944D02*
X159860714Y-98712944D01*
X159860714Y-98712944D02*
X159753571Y-98761325D01*
X159753571Y-98761325D02*
X159682142Y-98858086D01*
X159682142Y-98858086D02*
X159646428Y-98954848D01*
X159646428Y-98954848D02*
X159610714Y-99148372D01*
X159610714Y-99148372D02*
X159610714Y-99293515D01*
X159610714Y-99293515D02*
X159646428Y-99487039D01*
X159646428Y-99487039D02*
X159682142Y-99583801D01*
X159682142Y-99583801D02*
X159753571Y-99680563D01*
X159753571Y-99680563D02*
X159860714Y-99728944D01*
X159860714Y-99728944D02*
X159932142Y-99728944D01*
X159932142Y-99728944D02*
X160039285Y-99680563D01*
X160039285Y-99680563D02*
X160074999Y-99632182D01*
X160324999Y-99728944D02*
X160789285Y-99728944D01*
X160789285Y-99728944D02*
X160539285Y-99341896D01*
X160539285Y-99341896D02*
X160646428Y-99341896D01*
X160646428Y-99341896D02*
X160717857Y-99293515D01*
X160717857Y-99293515D02*
X160753571Y-99245134D01*
X160753571Y-99245134D02*
X160789285Y-99148372D01*
X160789285Y-99148372D02*
X160789285Y-98906467D01*
X160789285Y-98906467D02*
X160753571Y-98809705D01*
X160753571Y-98809705D02*
X160717857Y-98761325D01*
X160717857Y-98761325D02*
X160646428Y-98712944D01*
X160646428Y-98712944D02*
X160432142Y-98712944D01*
X160432142Y-98712944D02*
X160360714Y-98761325D01*
X160360714Y-98761325D02*
X160324999Y-98809705D01*
X169124999Y-103359865D02*
X169374999Y-103359865D01*
X169374999Y-103892055D02*
X169374999Y-102876055D01*
X169374999Y-102876055D02*
X169017856Y-102876055D01*
X168482142Y-103359865D02*
X168374999Y-103408246D01*
X168374999Y-103408246D02*
X168339285Y-103456627D01*
X168339285Y-103456627D02*
X168303571Y-103553389D01*
X168303571Y-103553389D02*
X168303571Y-103698532D01*
X168303571Y-103698532D02*
X168339285Y-103795294D01*
X168339285Y-103795294D02*
X168374999Y-103843675D01*
X168374999Y-103843675D02*
X168446428Y-103892055D01*
X168446428Y-103892055D02*
X168732142Y-103892055D01*
X168732142Y-103892055D02*
X168732142Y-102876055D01*
X168732142Y-102876055D02*
X168482142Y-102876055D01*
X168482142Y-102876055D02*
X168410714Y-102924436D01*
X168410714Y-102924436D02*
X168374999Y-102972817D01*
X168374999Y-102972817D02*
X168339285Y-103069579D01*
X168339285Y-103069579D02*
X168339285Y-103166341D01*
X168339285Y-103166341D02*
X168374999Y-103263103D01*
X168374999Y-103263103D02*
X168410714Y-103311484D01*
X168410714Y-103311484D02*
X168482142Y-103359865D01*
X168482142Y-103359865D02*
X168732142Y-103359865D01*
X168017856Y-102972817D02*
X167982142Y-102924436D01*
X167982142Y-102924436D02*
X167910714Y-102876055D01*
X167910714Y-102876055D02*
X167732142Y-102876055D01*
X167732142Y-102876055D02*
X167660714Y-102924436D01*
X167660714Y-102924436D02*
X167624999Y-102972817D01*
X167624999Y-102972817D02*
X167589285Y-103069579D01*
X167589285Y-103069579D02*
X167589285Y-103166341D01*
X167589285Y-103166341D02*
X167624999Y-103311484D01*
X167624999Y-103311484D02*
X168053571Y-103892055D01*
X168053571Y-103892055D02*
X167589285Y-103892055D01*
X183117856Y-100537944D02*
X182867856Y-101021753D01*
X182689285Y-100537944D02*
X182689285Y-101553944D01*
X182689285Y-101553944D02*
X182974999Y-101553944D01*
X182974999Y-101553944D02*
X183046428Y-101505563D01*
X183046428Y-101505563D02*
X183082142Y-101457182D01*
X183082142Y-101457182D02*
X183117856Y-101360420D01*
X183117856Y-101360420D02*
X183117856Y-101215277D01*
X183117856Y-101215277D02*
X183082142Y-101118515D01*
X183082142Y-101118515D02*
X183046428Y-101070134D01*
X183046428Y-101070134D02*
X182974999Y-101021753D01*
X182974999Y-101021753D02*
X182689285Y-101021753D01*
X183832142Y-100537944D02*
X183403571Y-100537944D01*
X183617856Y-100537944D02*
X183617856Y-101553944D01*
X183617856Y-101553944D02*
X183546428Y-101408801D01*
X183546428Y-101408801D02*
X183474999Y-101312039D01*
X183474999Y-101312039D02*
X183403571Y-101263658D01*
X184260714Y-101118515D02*
X184189285Y-101166896D01*
X184189285Y-101166896D02*
X184153571Y-101215277D01*
X184153571Y-101215277D02*
X184117857Y-101312039D01*
X184117857Y-101312039D02*
X184117857Y-101360420D01*
X184117857Y-101360420D02*
X184153571Y-101457182D01*
X184153571Y-101457182D02*
X184189285Y-101505563D01*
X184189285Y-101505563D02*
X184260714Y-101553944D01*
X184260714Y-101553944D02*
X184403571Y-101553944D01*
X184403571Y-101553944D02*
X184475000Y-101505563D01*
X184475000Y-101505563D02*
X184510714Y-101457182D01*
X184510714Y-101457182D02*
X184546428Y-101360420D01*
X184546428Y-101360420D02*
X184546428Y-101312039D01*
X184546428Y-101312039D02*
X184510714Y-101215277D01*
X184510714Y-101215277D02*
X184475000Y-101166896D01*
X184475000Y-101166896D02*
X184403571Y-101118515D01*
X184403571Y-101118515D02*
X184260714Y-101118515D01*
X184260714Y-101118515D02*
X184189285Y-101070134D01*
X184189285Y-101070134D02*
X184153571Y-101021753D01*
X184153571Y-101021753D02*
X184117857Y-100924991D01*
X184117857Y-100924991D02*
X184117857Y-100731467D01*
X184117857Y-100731467D02*
X184153571Y-100634705D01*
X184153571Y-100634705D02*
X184189285Y-100586325D01*
X184189285Y-100586325D02*
X184260714Y-100537944D01*
X184260714Y-100537944D02*
X184403571Y-100537944D01*
X184403571Y-100537944D02*
X184475000Y-100586325D01*
X184475000Y-100586325D02*
X184510714Y-100634705D01*
X184510714Y-100634705D02*
X184546428Y-100731467D01*
X184546428Y-100731467D02*
X184546428Y-100924991D01*
X184546428Y-100924991D02*
X184510714Y-101021753D01*
X184510714Y-101021753D02*
X184475000Y-101070134D01*
X184475000Y-101070134D02*
X184403571Y-101118515D01*
X187117856Y-110234705D02*
X187082142Y-110186325D01*
X187082142Y-110186325D02*
X186974999Y-110137944D01*
X186974999Y-110137944D02*
X186903571Y-110137944D01*
X186903571Y-110137944D02*
X186796428Y-110186325D01*
X186796428Y-110186325D02*
X186724999Y-110283086D01*
X186724999Y-110283086D02*
X186689285Y-110379848D01*
X186689285Y-110379848D02*
X186653571Y-110573372D01*
X186653571Y-110573372D02*
X186653571Y-110718515D01*
X186653571Y-110718515D02*
X186689285Y-110912039D01*
X186689285Y-110912039D02*
X186724999Y-111008801D01*
X186724999Y-111008801D02*
X186796428Y-111105563D01*
X186796428Y-111105563D02*
X186903571Y-111153944D01*
X186903571Y-111153944D02*
X186974999Y-111153944D01*
X186974999Y-111153944D02*
X187082142Y-111105563D01*
X187082142Y-111105563D02*
X187117856Y-111057182D01*
X187403571Y-111057182D02*
X187439285Y-111105563D01*
X187439285Y-111105563D02*
X187510714Y-111153944D01*
X187510714Y-111153944D02*
X187689285Y-111153944D01*
X187689285Y-111153944D02*
X187760714Y-111105563D01*
X187760714Y-111105563D02*
X187796428Y-111057182D01*
X187796428Y-111057182D02*
X187832142Y-110960420D01*
X187832142Y-110960420D02*
X187832142Y-110863658D01*
X187832142Y-110863658D02*
X187796428Y-110718515D01*
X187796428Y-110718515D02*
X187367856Y-110137944D01*
X187367856Y-110137944D02*
X187832142Y-110137944D01*
X188296428Y-111153944D02*
X188367857Y-111153944D01*
X188367857Y-111153944D02*
X188439285Y-111105563D01*
X188439285Y-111105563D02*
X188475000Y-111057182D01*
X188475000Y-111057182D02*
X188510714Y-110960420D01*
X188510714Y-110960420D02*
X188546428Y-110766896D01*
X188546428Y-110766896D02*
X188546428Y-110524991D01*
X188546428Y-110524991D02*
X188510714Y-110331467D01*
X188510714Y-110331467D02*
X188475000Y-110234705D01*
X188475000Y-110234705D02*
X188439285Y-110186325D01*
X188439285Y-110186325D02*
X188367857Y-110137944D01*
X188367857Y-110137944D02*
X188296428Y-110137944D01*
X188296428Y-110137944D02*
X188225000Y-110186325D01*
X188225000Y-110186325D02*
X188189285Y-110234705D01*
X188189285Y-110234705D02*
X188153571Y-110331467D01*
X188153571Y-110331467D02*
X188117857Y-110524991D01*
X188117857Y-110524991D02*
X188117857Y-110766896D01*
X188117857Y-110766896D02*
X188153571Y-110960420D01*
X188153571Y-110960420D02*
X188189285Y-111057182D01*
X188189285Y-111057182D02*
X188225000Y-111105563D01*
X188225000Y-111105563D02*
X188296428Y-111153944D01*
X139765294Y-79417856D02*
X139813675Y-79382142D01*
X139813675Y-79382142D02*
X139862055Y-79274999D01*
X139862055Y-79274999D02*
X139862055Y-79203571D01*
X139862055Y-79203571D02*
X139813675Y-79096428D01*
X139813675Y-79096428D02*
X139716913Y-79024999D01*
X139716913Y-79024999D02*
X139620151Y-78989285D01*
X139620151Y-78989285D02*
X139426627Y-78953571D01*
X139426627Y-78953571D02*
X139281484Y-78953571D01*
X139281484Y-78953571D02*
X139087960Y-78989285D01*
X139087960Y-78989285D02*
X138991198Y-79024999D01*
X138991198Y-79024999D02*
X138894436Y-79096428D01*
X138894436Y-79096428D02*
X138846055Y-79203571D01*
X138846055Y-79203571D02*
X138846055Y-79274999D01*
X138846055Y-79274999D02*
X138894436Y-79382142D01*
X138894436Y-79382142D02*
X138942817Y-79417856D01*
X139862055Y-80132142D02*
X139862055Y-79703571D01*
X139862055Y-79917856D02*
X138846055Y-79917856D01*
X138846055Y-79917856D02*
X138991198Y-79846428D01*
X138991198Y-79846428D02*
X139087960Y-79774999D01*
X139087960Y-79774999D02*
X139136341Y-79703571D01*
X138942817Y-80417857D02*
X138894436Y-80453571D01*
X138894436Y-80453571D02*
X138846055Y-80525000D01*
X138846055Y-80525000D02*
X138846055Y-80703571D01*
X138846055Y-80703571D02*
X138894436Y-80775000D01*
X138894436Y-80775000D02*
X138942817Y-80810714D01*
X138942817Y-80810714D02*
X139039579Y-80846428D01*
X139039579Y-80846428D02*
X139136341Y-80846428D01*
X139136341Y-80846428D02*
X139281484Y-80810714D01*
X139281484Y-80810714D02*
X139862055Y-80382142D01*
X139862055Y-80382142D02*
X139862055Y-80846428D01*
X161017856Y-87297205D02*
X160982142Y-87248825D01*
X160982142Y-87248825D02*
X160874999Y-87200444D01*
X160874999Y-87200444D02*
X160803571Y-87200444D01*
X160803571Y-87200444D02*
X160696428Y-87248825D01*
X160696428Y-87248825D02*
X160624999Y-87345586D01*
X160624999Y-87345586D02*
X160589285Y-87442348D01*
X160589285Y-87442348D02*
X160553571Y-87635872D01*
X160553571Y-87635872D02*
X160553571Y-87781015D01*
X160553571Y-87781015D02*
X160589285Y-87974539D01*
X160589285Y-87974539D02*
X160624999Y-88071301D01*
X160624999Y-88071301D02*
X160696428Y-88168063D01*
X160696428Y-88168063D02*
X160803571Y-88216444D01*
X160803571Y-88216444D02*
X160874999Y-88216444D01*
X160874999Y-88216444D02*
X160982142Y-88168063D01*
X160982142Y-88168063D02*
X161017856Y-88119682D01*
X161732142Y-87200444D02*
X161303571Y-87200444D01*
X161517856Y-87200444D02*
X161517856Y-88216444D01*
X161517856Y-88216444D02*
X161446428Y-88071301D01*
X161446428Y-88071301D02*
X161374999Y-87974539D01*
X161374999Y-87974539D02*
X161303571Y-87926158D01*
X162196428Y-88216444D02*
X162267857Y-88216444D01*
X162267857Y-88216444D02*
X162339285Y-88168063D01*
X162339285Y-88168063D02*
X162375000Y-88119682D01*
X162375000Y-88119682D02*
X162410714Y-88022920D01*
X162410714Y-88022920D02*
X162446428Y-87829396D01*
X162446428Y-87829396D02*
X162446428Y-87587491D01*
X162446428Y-87587491D02*
X162410714Y-87393967D01*
X162410714Y-87393967D02*
X162375000Y-87297205D01*
X162375000Y-87297205D02*
X162339285Y-87248825D01*
X162339285Y-87248825D02*
X162267857Y-87200444D01*
X162267857Y-87200444D02*
X162196428Y-87200444D01*
X162196428Y-87200444D02*
X162125000Y-87248825D01*
X162125000Y-87248825D02*
X162089285Y-87297205D01*
X162089285Y-87297205D02*
X162053571Y-87393967D01*
X162053571Y-87393967D02*
X162017857Y-87587491D01*
X162017857Y-87587491D02*
X162017857Y-87829396D01*
X162017857Y-87829396D02*
X162053571Y-88022920D01*
X162053571Y-88022920D02*
X162089285Y-88119682D01*
X162089285Y-88119682D02*
X162125000Y-88168063D01*
X162125000Y-88168063D02*
X162196428Y-88216444D01*
X155966428Y-86869055D02*
X155966428Y-87691532D01*
X155966428Y-87691532D02*
X155930714Y-87788294D01*
X155930714Y-87788294D02*
X155895000Y-87836675D01*
X155895000Y-87836675D02*
X155823571Y-87885055D01*
X155823571Y-87885055D02*
X155680714Y-87885055D01*
X155680714Y-87885055D02*
X155609285Y-87836675D01*
X155609285Y-87836675D02*
X155573571Y-87788294D01*
X155573571Y-87788294D02*
X155537857Y-87691532D01*
X155537857Y-87691532D02*
X155537857Y-86869055D01*
X155252143Y-86869055D02*
X154752143Y-86869055D01*
X154752143Y-86869055D02*
X155073571Y-87885055D01*
D12*
%TO.C,J3*%
X156038600Y-111399999D02*
G75*
G02*
X155276600Y-111399999I-381000J0D01*
G01*
X155276600Y-111399999D02*
G75*
G02*
X156038600Y-111399999I381000J0D01*
G01*
%TO.C,J5*%
X156188600Y-120049999D02*
G75*
G02*
X155426600Y-120049999I-381000J0D01*
G01*
X155426600Y-120049999D02*
G75*
G02*
X156188600Y-120049999I381000J0D01*
G01*
%TO.C,J4*%
X132788600Y-120606298D02*
G75*
G02*
X132026600Y-120606298I-381000J0D01*
G01*
X132026600Y-120606298D02*
G75*
G02*
X132788600Y-120606298I381000J0D01*
G01*
%TO.C,J2*%
X132913600Y-111500000D02*
G75*
G02*
X132151600Y-111500000I-381000J0D01*
G01*
X132151600Y-111500000D02*
G75*
G02*
X132913600Y-111500000I381000J0D01*
G01*
D13*
%TO.C,R22*%
X180457776Y-102259250D02*
X180967224Y-102259250D01*
X180457776Y-103304250D02*
X180967224Y-103304250D01*
%TO.C,C16*%
X141416233Y-79490000D02*
X141708767Y-79490000D01*
X141416233Y-80510000D02*
X141708767Y-80510000D01*
%TO.C,R21*%
X180982224Y-103959250D02*
X180472776Y-103959250D01*
X180982224Y-105004250D02*
X180472776Y-105004250D01*
%TO.C,FB1*%
X168353733Y-99490000D02*
X168646267Y-99490000D01*
X168353733Y-100510000D02*
X168646267Y-100510000D01*
%TO.C,C5*%
X162640000Y-107511252D02*
X162640000Y-106088748D01*
X165360000Y-107511252D02*
X165360000Y-106088748D01*
D14*
%TO.C,U1*%
X117180000Y-105290000D02*
X117180000Y-125610000D01*
X119720000Y-128150000D02*
X137500000Y-128150000D01*
X137500000Y-102750000D02*
X119720000Y-102750000D01*
X140040000Y-125610000D02*
X140040000Y-105290000D01*
X117180000Y-105290000D02*
G75*
G02*
X119720000Y-102750000I2540001J-1D01*
G01*
X119720000Y-128150000D02*
G75*
G02*
X117180000Y-125610000I0J2540000D01*
G01*
X137500000Y-102750000D02*
G75*
G02*
X140040000Y-105290000I3J-2539997D01*
G01*
X140040000Y-125610000D02*
G75*
G02*
X137500000Y-128150000I-2540000J0D01*
G01*
D15*
X140890000Y-109100000D02*
G75*
G02*
X140690000Y-109100000I-100000J0D01*
G01*
X140690000Y-109100000D02*
G75*
G02*
X140890000Y-109100000I100000J0D01*
G01*
D13*
%TO.C,R19*%
X145377500Y-88157776D02*
X145377500Y-88667224D01*
X146422500Y-88157776D02*
X146422500Y-88667224D01*
%TO.C,R9*%
X159977500Y-95157776D02*
X159977500Y-95667224D01*
X161022500Y-95157776D02*
X161022500Y-95667224D01*
%TO.C,C17*%
X177640000Y-112711252D02*
X177640000Y-111288748D01*
X180360000Y-112711252D02*
X180360000Y-111288748D01*
%TO.C,R17*%
X145377500Y-92154724D02*
X145377500Y-91645276D01*
X146422500Y-92154724D02*
X146422500Y-91645276D01*
D14*
%TO.C,U3*%
X170265000Y-106325000D02*
X173795000Y-106325000D01*
X173795000Y-111325000D02*
X170265000Y-111325000D01*
D15*
X176320000Y-106550000D02*
G75*
G02*
X176120000Y-106550000I-100000J0D01*
G01*
X176120000Y-106550000D02*
G75*
G02*
X176320000Y-106550000I100000J0D01*
G01*
D13*
%TO.C,C1*%
X165290000Y-101383767D02*
X165290000Y-101091233D01*
X166310000Y-101383767D02*
X166310000Y-101091233D01*
%TO.C,FB5*%
X164353733Y-87990000D02*
X164646267Y-87990000D01*
X164353733Y-89010000D02*
X164646267Y-89010000D01*
%TO.C,C2*%
X163190000Y-101383767D02*
X163190000Y-101091233D01*
X164210000Y-101383767D02*
X164210000Y-101091233D01*
%TO.C,C19*%
X186690000Y-104883767D02*
X186690000Y-104591233D01*
X187710000Y-104883767D02*
X187710000Y-104591233D01*
D14*
%TO.C,U10*%
X140780000Y-108690000D02*
X140780000Y-129010000D01*
X143320000Y-131550000D02*
X161100000Y-131550000D01*
X149710000Y-106150000D02*
X143320000Y-106150000D01*
D10*
X149710000Y-110050000D02*
X149710000Y-106150000D01*
X149710000Y-110050000D02*
X163640000Y-110050000D01*
D14*
X163640000Y-129010000D02*
X163640000Y-110050000D01*
X140780000Y-108690000D02*
G75*
G02*
X143320000Y-106150000I2540001J-1D01*
G01*
X143320000Y-131550000D02*
G75*
G02*
X140780000Y-129010000I0J2540000D01*
G01*
X163640000Y-129010000D02*
G75*
G02*
X161100000Y-131550000I-2540000J0D01*
G01*
D15*
X164490000Y-112500000D02*
G75*
G02*
X164290000Y-112500000I-100000J0D01*
G01*
X164290000Y-112500000D02*
G75*
G02*
X164490000Y-112500000I100000J0D01*
G01*
D13*
%TO.C,JP5*%
X122900000Y-119350000D02*
X122900000Y-117950000D01*
X123600000Y-117250000D02*
X124200000Y-117250000D01*
X124200000Y-120050000D02*
X123600000Y-120050000D01*
X124900000Y-117950000D02*
X124900000Y-119350000D01*
X122900000Y-117950000D02*
G75*
G02*
X123600000Y-117250000I699999J1D01*
G01*
X123600000Y-120050000D02*
G75*
G02*
X122900000Y-119350000I0J700000D01*
G01*
X124200000Y-117250000D02*
G75*
G02*
X124900000Y-117950000I1J-699999D01*
G01*
X124900000Y-119350000D02*
G75*
G02*
X124200000Y-120050000I-700000J0D01*
G01*
%TO.C,R20*%
X144077500Y-95567224D02*
X144077500Y-95057776D01*
X145122500Y-95567224D02*
X145122500Y-95057776D01*
%TO.C,C3*%
X159690000Y-101421267D02*
X159690000Y-101128733D01*
X160710000Y-101421267D02*
X160710000Y-101128733D01*
%TO.C,FB2*%
X168646267Y-101490000D02*
X168353733Y-101490000D01*
X168646267Y-102510000D02*
X168353733Y-102510000D01*
%TO.C,R18*%
X183172500Y-103232776D02*
X183172500Y-103742224D01*
X184217500Y-103232776D02*
X184217500Y-103742224D01*
%TO.C,C20*%
X186690000Y-108508767D02*
X186690000Y-108216233D01*
X187710000Y-108508767D02*
X187710000Y-108216233D01*
%TO.C,C12*%
X137383767Y-79490000D02*
X137091233Y-79490000D01*
X137383767Y-80510000D02*
X137091233Y-80510000D01*
%TO.C,C10*%
X160990000Y-89616233D02*
X160990000Y-89908767D01*
X162010000Y-89616233D02*
X162010000Y-89908767D01*
D14*
%TO.C,U7*%
X149150000Y-88285000D02*
X156650000Y-88285000D01*
X149150000Y-101115000D02*
X156650000Y-101115000D01*
D15*
X159605000Y-88385000D02*
G75*
G02*
X159405000Y-88385000I-100000J0D01*
G01*
X159405000Y-88385000D02*
G75*
G02*
X159605000Y-88385000I100000J0D01*
G01*
%TD*%
%LPC*%
D16*
%TO.C,J6*%
X118000000Y-82000000D03*
D17*
X115460000Y-82000000D03*
X112920000Y-82000000D03*
%TD*%
D18*
%TO.C,J22*%
X132599989Y-97240000D03*
X126600001Y-97240000D03*
D19*
X129600000Y-93300000D03*
D20*
X129600000Y-96299999D03*
%TD*%
D21*
%TO.C,J8*%
X191000000Y-126675000D03*
X191000000Y-115525000D03*
D22*
X187400000Y-126675000D03*
X187400000Y-115525000D03*
%TD*%
D23*
%TO.C,U8*%
X138170000Y-85040000D03*
D24*
X138170000Y-82500000D03*
X140710000Y-85040000D03*
X140710000Y-82500000D03*
X143250000Y-85040000D03*
X143250000Y-82500000D03*
X145790000Y-85040000D03*
X145790000Y-82500000D03*
X148330000Y-85040000D03*
X148330000Y-82500000D03*
X150870000Y-85040000D03*
X150870000Y-82500000D03*
X153410000Y-85040000D03*
X153410000Y-82500000D03*
X155950000Y-85040000D03*
X155950000Y-82500000D03*
X158490000Y-85040000D03*
X158490000Y-82500000D03*
X161030000Y-85040000D03*
X161030000Y-82500000D03*
X163570000Y-85040000D03*
X163570000Y-82500000D03*
X166110000Y-85040000D03*
X166110000Y-82500000D03*
X168650000Y-85040000D03*
X168650000Y-82500000D03*
X171190000Y-85040000D03*
X171190000Y-82500000D03*
X173730000Y-85040000D03*
X173730000Y-82500000D03*
X176270000Y-85040000D03*
X176270000Y-82500000D03*
X178810000Y-85040000D03*
X178810000Y-82500000D03*
X181350000Y-85040000D03*
X181350000Y-82500000D03*
X183890000Y-85040000D03*
X183890000Y-82500000D03*
X186430000Y-85040000D03*
X186430000Y-82500000D03*
%TD*%
D16*
%TO.C,J9*%
X158140000Y-106000000D03*
D17*
X155600000Y-106000000D03*
X153060000Y-106000000D03*
%TD*%
D16*
%TO.C,J13*%
X111820000Y-109400000D03*
D17*
X114360000Y-109400000D03*
X116900000Y-109400000D03*
%TD*%
D25*
%TO.C,REF\u002A\u002A*%
X133180000Y-130720000D03*
%TD*%
%TO.C,REF\u002A\u002A*%
X191180000Y-81720000D03*
%TD*%
D18*
%TO.C,J24*%
X168199989Y-97240001D03*
X162200001Y-97240001D03*
D19*
X165200000Y-93300001D03*
D20*
X165200000Y-96300000D03*
%TD*%
D16*
%TO.C,J20*%
X123725000Y-82000000D03*
D17*
X126265000Y-82000000D03*
%TD*%
D25*
%TO.C,REF\u002A\u002A*%
X133180000Y-81720000D03*
%TD*%
D16*
%TO.C,J12*%
X190300000Y-96320000D03*
D17*
X190300000Y-93780000D03*
X190300000Y-91240000D03*
X190300000Y-88700000D03*
X190300000Y-86160000D03*
%TD*%
D18*
%TO.C,J23*%
X172900022Y-93760000D03*
X184899998Y-93760000D03*
D19*
X181899999Y-97700000D03*
D20*
X178900000Y-97700000D03*
X175900001Y-97700000D03*
X181899999Y-94700001D03*
X178900000Y-94700001D03*
X175900001Y-94700001D03*
%TD*%
D25*
%TO.C,REF\u002A\u002A*%
X191180000Y-130720000D03*
%TD*%
D26*
%TO.C,R22*%
X181625000Y-102781750D03*
X179800000Y-102781750D03*
%TD*%
D27*
%TO.C,C16*%
X142425000Y-80000000D03*
X140700000Y-80000000D03*
%TD*%
D28*
%TO.C,R21*%
X179815000Y-104481750D03*
X181640000Y-104481750D03*
%TD*%
D27*
%TO.C,FB1*%
X169362500Y-100000000D03*
X167637500Y-100000000D03*
%TD*%
D29*
%TO.C,C5*%
X164000000Y-105237500D03*
X164000000Y-108362500D03*
%TD*%
D30*
%TO.C,U1*%
X137500000Y-109100000D03*
X137500000Y-111640000D03*
X137500000Y-114180000D03*
X137500000Y-116720000D03*
X137500000Y-119260000D03*
X137500000Y-121800000D03*
X119720000Y-109100000D03*
X119720000Y-111640000D03*
X119720000Y-114180000D03*
X119720000Y-116720000D03*
X119720000Y-119260000D03*
X119720000Y-121800000D03*
%TD*%
D31*
%TO.C,R19*%
X145900000Y-89325000D03*
X145900000Y-87500000D03*
%TD*%
%TO.C,R9*%
X160500000Y-96325000D03*
X160500000Y-94500000D03*
%TD*%
D29*
%TO.C,C17*%
X179000000Y-110437500D03*
X179000000Y-113562500D03*
%TD*%
D32*
%TO.C,R17*%
X145900000Y-90987500D03*
X145900000Y-92812500D03*
%TD*%
D33*
%TO.C,U3*%
X174900000Y-106550000D03*
X174900000Y-107200000D03*
X174900000Y-107850000D03*
X174900000Y-108500000D03*
X174900000Y-109150000D03*
X174900000Y-109800000D03*
X174900000Y-110450000D03*
X174900000Y-111100000D03*
X169160000Y-111100000D03*
X169160000Y-110450000D03*
X169160000Y-109800000D03*
X169160000Y-109150000D03*
X169160000Y-108500000D03*
X169160000Y-107850000D03*
X169160000Y-107200000D03*
X169160000Y-106550000D03*
%TD*%
D34*
%TO.C,C1*%
X165800000Y-100375000D03*
X165800000Y-102100000D03*
%TD*%
D27*
%TO.C,FB5*%
X165362500Y-88500000D03*
X163637500Y-88500000D03*
%TD*%
D34*
%TO.C,C2*%
X163700000Y-100375000D03*
X163700000Y-102100000D03*
%TD*%
%TO.C,C19*%
X187200000Y-103875000D03*
X187200000Y-105600000D03*
%TD*%
D30*
%TO.C,U10*%
X161100000Y-112500000D03*
X161100000Y-115040000D03*
X161100000Y-117580000D03*
X161100000Y-120120000D03*
X161100000Y-122660000D03*
X161100000Y-125200000D03*
X143320000Y-112500000D03*
X143320000Y-115040000D03*
X143320000Y-117580000D03*
X143320000Y-120120000D03*
X143320000Y-122660000D03*
X143320000Y-125200000D03*
%TD*%
D35*
%TO.C,JP5*%
X123900000Y-118000000D03*
D36*
X123900000Y-119300000D03*
%TD*%
D32*
%TO.C,R20*%
X144600000Y-94400000D03*
X144600000Y-96225000D03*
%TD*%
D34*
%TO.C,C3*%
X160200000Y-100412500D03*
X160200000Y-102137500D03*
%TD*%
D37*
%TO.C,FB2*%
X167637500Y-102000000D03*
X169362500Y-102000000D03*
%TD*%
D31*
%TO.C,R18*%
X183695000Y-104400000D03*
X183695000Y-102575000D03*
%TD*%
D34*
%TO.C,C20*%
X187200000Y-107500000D03*
X187200000Y-109225000D03*
%TD*%
D37*
%TO.C,C12*%
X136375000Y-80000000D03*
X138100000Y-80000000D03*
%TD*%
D38*
%TO.C,C10*%
X161500000Y-90625000D03*
X161500000Y-88900000D03*
%TD*%
D39*
%TO.C,U7*%
X157635000Y-88985000D03*
X157635000Y-90255000D03*
X157635000Y-91525000D03*
X157635000Y-92795000D03*
X157635000Y-94065000D03*
X157635000Y-95335000D03*
X157635000Y-96605000D03*
X157635000Y-97875000D03*
X157635000Y-99145000D03*
X157635000Y-100415000D03*
X148165000Y-100415000D03*
X148165000Y-99145000D03*
X148165000Y-97875000D03*
X148165000Y-96605000D03*
X148165000Y-95335000D03*
X148165000Y-94065000D03*
X148165000Y-92795000D03*
X148165000Y-91525000D03*
X148165000Y-90255000D03*
X148165000Y-88985000D03*
%TD*%
%LPD*%
M02*
