%TF.GenerationSoftware,KiCad,Pcbnew,8.0.4*%
%TF.CreationDate,2025-01-10T13:29:25-08:00*%
%TF.ProjectId,X17_Pi_Shield,5831375f-5069-45f5-9368-69656c642e6b,rev?*%
%TF.SameCoordinates,Original*%
%TF.FileFunction,Soldermask,Bot*%
%TF.FilePolarity,Negative*%
%FSLAX46Y46*%
G04 Gerber Fmt 4.6, Leading zero omitted, Abs format (unit mm)*
G04 Created by KiCad (PCBNEW 8.0.4) date 2025-01-10 13:29:25*
%MOMM*%
%LPD*%
G01*
G04 APERTURE LIST*
G04 Aperture macros list*
%AMRoundRect*
0 Rectangle with rounded corners*
0 $1 Rounding radius*
0 $2 $3 $4 $5 $6 $7 $8 $9 X,Y pos of 4 corners*
0 Add a 4 corners polygon primitive as box body*
4,1,4,$2,$3,$4,$5,$6,$7,$8,$9,$2,$3,0*
0 Add four circle primitives for the rounded corners*
1,1,$1+$1,$2,$3*
1,1,$1+$1,$4,$5*
1,1,$1+$1,$6,$7*
1,1,$1+$1,$8,$9*
0 Add four rect primitives between the rounded corners*
20,1,$1+$1,$2,$3,$4,$5,0*
20,1,$1+$1,$4,$5,$6,$7,0*
20,1,$1+$1,$6,$7,$8,$9,0*
20,1,$1+$1,$8,$9,$2,$3,0*%
%AMFreePoly0*
4,1,19,0.500000,-0.750000,0.000000,-0.750000,0.000000,-0.744911,-0.071157,-0.744911,-0.207708,-0.704816,-0.327430,-0.627875,-0.420627,-0.520320,-0.479746,-0.390866,-0.500000,-0.250000,-0.500000,0.250000,-0.479746,0.390866,-0.420627,0.520320,-0.327430,0.627875,-0.207708,0.704816,-0.071157,0.744911,0.000000,0.744911,0.000000,0.750000,0.500000,0.750000,0.500000,-0.750000,0.500000,-0.750000,
$1*%
%AMFreePoly1*
4,1,19,0.000000,0.744911,0.071157,0.744911,0.207708,0.704816,0.327430,0.627875,0.420627,0.520320,0.479746,0.390866,0.500000,0.250000,0.500000,-0.250000,0.479746,-0.390866,0.420627,-0.520320,0.327430,-0.627875,0.207708,-0.704816,0.071157,-0.744911,0.000000,-0.744911,0.000000,-0.750000,-0.500000,-0.750000,-0.500000,0.750000,0.000000,0.750000,0.000000,0.744911,0.000000,0.744911,
$1*%
G04 Aperture macros list end*
%ADD10R,1.700000X1.700000*%
%ADD11O,1.700000X1.700000*%
%ADD12C,1.020000*%
%ADD13R,1.520000X1.520000*%
%ADD14C,1.520000*%
%ADD15O,2.404000X1.204000*%
%ADD16O,2.004000X1.204000*%
%ADD17RoundRect,0.102000X-0.685000X-0.685000X0.685000X-0.685000X0.685000X0.685000X-0.685000X0.685000X0*%
%ADD18C,1.574000*%
%ADD19C,2.700000*%
%ADD20RoundRect,0.237500X0.250000X0.237500X-0.250000X0.237500X-0.250000X-0.237500X0.250000X-0.237500X0*%
%ADD21RoundRect,0.237500X0.300000X0.237500X-0.300000X0.237500X-0.300000X-0.237500X0.300000X-0.237500X0*%
%ADD22RoundRect,0.237500X-0.250000X-0.237500X0.250000X-0.237500X0.250000X0.237500X-0.250000X0.237500X0*%
%ADD23RoundRect,0.250000X-1.100000X0.412500X-1.100000X-0.412500X1.100000X-0.412500X1.100000X0.412500X0*%
%ADD24C,1.982000*%
%ADD25RoundRect,0.237500X0.237500X-0.250000X0.237500X0.250000X-0.237500X0.250000X-0.237500X-0.250000X0*%
%ADD26RoundRect,0.237500X-0.237500X0.250000X-0.237500X-0.250000X0.237500X-0.250000X0.237500X0.250000X0*%
%ADD27RoundRect,0.076750X0.810250X0.230250X-0.810250X0.230250X-0.810250X-0.230250X0.810250X-0.230250X0*%
%ADD28RoundRect,0.237500X-0.237500X0.300000X-0.237500X-0.300000X0.237500X-0.300000X0.237500X0.300000X0*%
%ADD29FreePoly0,270.000000*%
%ADD30FreePoly1,270.000000*%
%ADD31RoundRect,0.237500X-0.300000X-0.237500X0.300000X-0.237500X0.300000X0.237500X-0.300000X0.237500X0*%
%ADD32RoundRect,0.237500X0.237500X-0.300000X0.237500X0.300000X-0.237500X0.300000X-0.237500X-0.300000X0*%
%ADD33RoundRect,0.032160X1.004840X0.369840X-1.004840X0.369840X-1.004840X-0.369840X1.004840X-0.369840X0*%
G04 APERTURE END LIST*
D10*
%TO.C,J6*%
X118000000Y-82000000D03*
D11*
X115460000Y-82000000D03*
X112920000Y-82000000D03*
%TD*%
D12*
%TO.C,J22*%
X132599989Y-97240000D03*
X126600001Y-97240000D03*
D13*
X129600000Y-93300000D03*
D14*
X129600000Y-96299999D03*
%TD*%
D15*
%TO.C,J8*%
X191000000Y-126675000D03*
X191000000Y-115525000D03*
D16*
X187400000Y-126675000D03*
X187400000Y-115525000D03*
%TD*%
D17*
%TO.C,U8*%
X138170000Y-85040000D03*
D18*
X138170000Y-82500000D03*
X140710000Y-85040000D03*
X140710000Y-82500000D03*
X143250000Y-85040000D03*
X143250000Y-82500000D03*
X145790000Y-85040000D03*
X145790000Y-82500000D03*
X148330000Y-85040000D03*
X148330000Y-82500000D03*
X150870000Y-85040000D03*
X150870000Y-82500000D03*
X153410000Y-85040000D03*
X153410000Y-82500000D03*
X155950000Y-85040000D03*
X155950000Y-82500000D03*
X158490000Y-85040000D03*
X158490000Y-82500000D03*
X161030000Y-85040000D03*
X161030000Y-82500000D03*
X163570000Y-85040000D03*
X163570000Y-82500000D03*
X166110000Y-85040000D03*
X166110000Y-82500000D03*
X168650000Y-85040000D03*
X168650000Y-82500000D03*
X171190000Y-85040000D03*
X171190000Y-82500000D03*
X173730000Y-85040000D03*
X173730000Y-82500000D03*
X176270000Y-85040000D03*
X176270000Y-82500000D03*
X178810000Y-85040000D03*
X178810000Y-82500000D03*
X181350000Y-85040000D03*
X181350000Y-82500000D03*
X183890000Y-85040000D03*
X183890000Y-82500000D03*
X186430000Y-85040000D03*
X186430000Y-82500000D03*
%TD*%
D10*
%TO.C,J9*%
X158140000Y-106000000D03*
D11*
X155600000Y-106000000D03*
X153060000Y-106000000D03*
%TD*%
D10*
%TO.C,J13*%
X111820000Y-109400000D03*
D11*
X114360000Y-109400000D03*
X116900000Y-109400000D03*
%TD*%
D19*
%TO.C,REF\u002A\u002A*%
X133180000Y-130720000D03*
%TD*%
%TO.C,REF\u002A\u002A*%
X191180000Y-81720000D03*
%TD*%
D12*
%TO.C,J24*%
X168199989Y-97240001D03*
X162200001Y-97240001D03*
D13*
X165200000Y-93300001D03*
D14*
X165200000Y-96300000D03*
%TD*%
D10*
%TO.C,J20*%
X123725000Y-82000000D03*
D11*
X126265000Y-82000000D03*
%TD*%
D19*
%TO.C,REF\u002A\u002A*%
X133180000Y-81720000D03*
%TD*%
D10*
%TO.C,J12*%
X190300000Y-96320000D03*
D11*
X190300000Y-93780000D03*
X190300000Y-91240000D03*
X190300000Y-88700000D03*
X190300000Y-86160000D03*
%TD*%
D12*
%TO.C,J23*%
X172900022Y-93760000D03*
X184899998Y-93760000D03*
D13*
X181899999Y-97700000D03*
D14*
X178900000Y-97700000D03*
X175900001Y-97700000D03*
X181899999Y-94700001D03*
X178900000Y-94700001D03*
X175900001Y-94700001D03*
%TD*%
D19*
%TO.C,REF\u002A\u002A*%
X191180000Y-130720000D03*
%TD*%
D20*
%TO.C,R22*%
X181625000Y-102781750D03*
X179800000Y-102781750D03*
%TD*%
D21*
%TO.C,C16*%
X142425000Y-80000000D03*
X140700000Y-80000000D03*
%TD*%
D22*
%TO.C,R21*%
X179815000Y-104481750D03*
X181640000Y-104481750D03*
%TD*%
D21*
%TO.C,FB1*%
X169362500Y-100000000D03*
X167637500Y-100000000D03*
%TD*%
D23*
%TO.C,C5*%
X164000000Y-105237500D03*
X164000000Y-108362500D03*
%TD*%
D24*
%TO.C,U1*%
X137500000Y-109100000D03*
X137500000Y-111640000D03*
X137500000Y-114180000D03*
X137500000Y-116720000D03*
X137500000Y-119260000D03*
X137500000Y-121800000D03*
X119720000Y-109100000D03*
X119720000Y-111640000D03*
X119720000Y-114180000D03*
X119720000Y-116720000D03*
X119720000Y-119260000D03*
X119720000Y-121800000D03*
%TD*%
D25*
%TO.C,R19*%
X145900000Y-89325000D03*
X145900000Y-87500000D03*
%TD*%
%TO.C,R9*%
X160500000Y-96325000D03*
X160500000Y-94500000D03*
%TD*%
D23*
%TO.C,C17*%
X179000000Y-110437500D03*
X179000000Y-113562500D03*
%TD*%
D26*
%TO.C,R17*%
X145900000Y-90987500D03*
X145900000Y-92812500D03*
%TD*%
D27*
%TO.C,U3*%
X174900000Y-106550000D03*
X174900000Y-107200000D03*
X174900000Y-107850000D03*
X174900000Y-108500000D03*
X174900000Y-109150000D03*
X174900000Y-109800000D03*
X174900000Y-110450000D03*
X174900000Y-111100000D03*
X169160000Y-111100000D03*
X169160000Y-110450000D03*
X169160000Y-109800000D03*
X169160000Y-109150000D03*
X169160000Y-108500000D03*
X169160000Y-107850000D03*
X169160000Y-107200000D03*
X169160000Y-106550000D03*
%TD*%
D28*
%TO.C,C1*%
X165800000Y-100375000D03*
X165800000Y-102100000D03*
%TD*%
D21*
%TO.C,FB5*%
X165362500Y-88500000D03*
X163637500Y-88500000D03*
%TD*%
D28*
%TO.C,C2*%
X163700000Y-100375000D03*
X163700000Y-102100000D03*
%TD*%
%TO.C,C19*%
X187200000Y-103875000D03*
X187200000Y-105600000D03*
%TD*%
D24*
%TO.C,U10*%
X161100000Y-112500000D03*
X161100000Y-115040000D03*
X161100000Y-117580000D03*
X161100000Y-120120000D03*
X161100000Y-122660000D03*
X161100000Y-125200000D03*
X143320000Y-112500000D03*
X143320000Y-115040000D03*
X143320000Y-117580000D03*
X143320000Y-120120000D03*
X143320000Y-122660000D03*
X143320000Y-125200000D03*
%TD*%
D29*
%TO.C,JP5*%
X123900000Y-118000000D03*
D30*
X123900000Y-119300000D03*
%TD*%
D26*
%TO.C,R20*%
X144600000Y-94400000D03*
X144600000Y-96225000D03*
%TD*%
D28*
%TO.C,C3*%
X160200000Y-100412500D03*
X160200000Y-102137500D03*
%TD*%
D31*
%TO.C,FB2*%
X167637500Y-102000000D03*
X169362500Y-102000000D03*
%TD*%
D25*
%TO.C,R18*%
X183695000Y-104400000D03*
X183695000Y-102575000D03*
%TD*%
D28*
%TO.C,C20*%
X187200000Y-107500000D03*
X187200000Y-109225000D03*
%TD*%
D31*
%TO.C,C12*%
X136375000Y-80000000D03*
X138100000Y-80000000D03*
%TD*%
D32*
%TO.C,C10*%
X161500000Y-90625000D03*
X161500000Y-88900000D03*
%TD*%
D33*
%TO.C,U7*%
X157635000Y-88985000D03*
X157635000Y-90255000D03*
X157635000Y-91525000D03*
X157635000Y-92795000D03*
X157635000Y-94065000D03*
X157635000Y-95335000D03*
X157635000Y-96605000D03*
X157635000Y-97875000D03*
X157635000Y-99145000D03*
X157635000Y-100415000D03*
X148165000Y-100415000D03*
X148165000Y-99145000D03*
X148165000Y-97875000D03*
X148165000Y-96605000D03*
X148165000Y-95335000D03*
X148165000Y-94065000D03*
X148165000Y-92795000D03*
X148165000Y-91525000D03*
X148165000Y-90255000D03*
X148165000Y-88985000D03*
%TD*%
M02*
