%TF.GenerationSoftware,KiCad,Pcbnew,8.0.4*%
%TF.CreationDate,2025-01-10T13:29:25-08:00*%
%TF.ProjectId,X17_Pi_Shield,5831375f-5069-45f5-9368-69656c642e6b,rev?*%
%TF.SameCoordinates,Original*%
%TF.FileFunction,Soldermask,Top*%
%TF.FilePolarity,Negative*%
%FSLAX46Y46*%
G04 Gerber Fmt 4.6, Leading zero omitted, Abs format (unit mm)*
G04 Created by KiCad (PCBNEW 8.0.4) date 2025-01-10 13:29:25*
%MOMM*%
%LPD*%
G01*
G04 APERTURE LIST*
G04 Aperture macros list*
%AMRoundRect*
0 Rectangle with rounded corners*
0 $1 Rounding radius*
0 $2 $3 $4 $5 $6 $7 $8 $9 X,Y pos of 4 corners*
0 Add a 4 corners polygon primitive as box body*
4,1,4,$2,$3,$4,$5,$6,$7,$8,$9,$2,$3,0*
0 Add four circle primitives for the rounded corners*
1,1,$1+$1,$2,$3*
1,1,$1+$1,$4,$5*
1,1,$1+$1,$6,$7*
1,1,$1+$1,$8,$9*
0 Add four rect primitives between the rounded corners*
20,1,$1+$1,$2,$3,$4,$5,0*
20,1,$1+$1,$4,$5,$6,$7,0*
20,1,$1+$1,$6,$7,$8,$9,0*
20,1,$1+$1,$8,$9,$2,$3,0*%
%AMFreePoly0*
4,1,19,0.500000,-0.750000,0.000000,-0.750000,0.000000,-0.744911,-0.071157,-0.744911,-0.207708,-0.704816,-0.327430,-0.627875,-0.420627,-0.520320,-0.479746,-0.390866,-0.500000,-0.250000,-0.500000,0.250000,-0.479746,0.390866,-0.420627,0.520320,-0.327430,0.627875,-0.207708,0.704816,-0.071157,0.744911,0.000000,0.744911,0.000000,0.750000,0.500000,0.750000,0.500000,-0.750000,0.500000,-0.750000,
$1*%
%AMFreePoly1*
4,1,19,0.000000,0.744911,0.071157,0.744911,0.207708,0.704816,0.327430,0.627875,0.420627,0.520320,0.479746,0.390866,0.500000,0.250000,0.500000,-0.250000,0.479746,-0.390866,0.420627,-0.520320,0.327430,-0.627875,0.207708,-0.704816,0.071157,-0.744911,0.000000,-0.744911,0.000000,-0.750000,-0.500000,-0.750000,-0.500000,0.750000,0.000000,0.750000,0.000000,0.744911,0.000000,0.744911,
$1*%
G04 Aperture macros list end*
%ADD10C,0.010000*%
%ADD11RoundRect,0.237500X-0.250000X-0.237500X0.250000X-0.237500X0.250000X0.237500X-0.250000X0.237500X0*%
%ADD12RoundRect,0.250000X0.325000X0.450000X-0.325000X0.450000X-0.325000X-0.450000X0.325000X-0.450000X0*%
%ADD13R,0.660400X1.803400*%
%ADD14R,1.803400X1.295400*%
%ADD15RoundRect,0.237500X-0.237500X0.250000X-0.237500X-0.250000X0.237500X-0.250000X0.237500X0.250000X0*%
%ADD16R,1.320800X0.558800*%
%ADD17RoundRect,0.250000X0.450000X-0.325000X0.450000X0.325000X-0.450000X0.325000X-0.450000X-0.325000X0*%
%ADD18R,1.700000X1.700000*%
%ADD19O,1.700000X1.700000*%
%ADD20C,1.020000*%
%ADD21R,1.520000X1.520000*%
%ADD22C,1.520000*%
%ADD23RoundRect,0.102000X0.550000X-0.350000X0.550000X0.350000X-0.550000X0.350000X-0.550000X-0.350000X0*%
%ADD24RoundRect,0.102000X0.550000X-0.380000X0.550000X0.380000X-0.550000X0.380000X-0.550000X-0.380000X0*%
%ADD25RoundRect,0.102000X0.550000X-0.400000X0.550000X0.400000X-0.550000X0.400000X-0.550000X-0.400000X0*%
%ADD26O,2.404000X1.204000*%
%ADD27O,2.004000X1.204000*%
%ADD28RoundRect,0.102000X-0.600000X1.100000X-0.600000X-1.100000X0.600000X-1.100000X0.600000X1.100000X0*%
%ADD29RoundRect,0.102000X-1.750000X1.100000X-1.750000X-1.100000X1.750000X-1.100000X1.750000X1.100000X0*%
%ADD30RoundRect,0.150000X0.150000X0.700000X-0.150000X0.700000X-0.150000X-0.700000X0.150000X-0.700000X0*%
%ADD31RoundRect,0.250000X0.250000X1.150000X-0.250000X1.150000X-0.250000X-1.150000X0.250000X-1.150000X0*%
%ADD32FreePoly0,270.000000*%
%ADD33FreePoly1,270.000000*%
%ADD34RoundRect,0.102000X-0.685000X-0.685000X0.685000X-0.685000X0.685000X0.685000X-0.685000X0.685000X0*%
%ADD35C,1.574000*%
%ADD36RoundRect,0.237500X0.250000X0.237500X-0.250000X0.237500X-0.250000X-0.237500X0.250000X-0.237500X0*%
%ADD37FreePoly0,90.000000*%
%ADD38FreePoly1,90.000000*%
%ADD39C,4.000000*%
%ADD40C,2.700000*%
%ADD41RoundRect,0.237500X-0.237500X0.300000X-0.237500X-0.300000X0.237500X-0.300000X0.237500X0.300000X0*%
%ADD42RoundRect,0.237500X0.300000X0.237500X-0.300000X0.237500X-0.300000X-0.237500X0.300000X-0.237500X0*%
%ADD43RoundRect,0.237500X0.237500X-0.250000X0.237500X0.250000X-0.237500X0.250000X-0.237500X-0.250000X0*%
%ADD44RoundRect,0.250000X-0.325000X-0.450000X0.325000X-0.450000X0.325000X0.450000X-0.325000X0.450000X0*%
%ADD45FreePoly0,180.000000*%
%ADD46FreePoly1,180.000000*%
%ADD47RoundRect,0.102000X-1.104900X0.304800X-1.104900X-0.304800X1.104900X-0.304800X1.104900X0.304800X0*%
%ADD48RoundRect,0.150000X0.700000X-0.150000X0.700000X0.150000X-0.700000X0.150000X-0.700000X-0.150000X0*%
%ADD49RoundRect,0.250000X1.150000X-0.250000X1.150000X0.250000X-1.150000X0.250000X-1.150000X-0.250000X0*%
%ADD50RoundRect,0.237500X-0.300000X-0.237500X0.300000X-0.237500X0.300000X0.237500X-0.300000X0.237500X0*%
%ADD51C,1.982000*%
G04 APERTURE END LIST*
D10*
%TO.C,U2*%
X183710000Y-106810000D02*
X182950000Y-106810000D01*
X182950000Y-106390000D01*
X183710000Y-106390000D01*
X183710000Y-106810000D01*
G36*
X183710000Y-106810000D02*
G01*
X182950000Y-106810000D01*
X182950000Y-106390000D01*
X183710000Y-106390000D01*
X183710000Y-106810000D01*
G37*
X183710000Y-107310000D02*
X182950000Y-107310000D01*
X182950000Y-106890000D01*
X183710000Y-106890000D01*
X183710000Y-107310000D01*
G36*
X183710000Y-107310000D02*
G01*
X182950000Y-107310000D01*
X182950000Y-106890000D01*
X183710000Y-106890000D01*
X183710000Y-107310000D01*
G37*
X183710000Y-107810000D02*
X182950000Y-107810000D01*
X182950000Y-107390000D01*
X183710000Y-107390000D01*
X183710000Y-107810000D01*
G36*
X183710000Y-107810000D02*
G01*
X182950000Y-107810000D01*
X182950000Y-107390000D01*
X183710000Y-107390000D01*
X183710000Y-107810000D01*
G37*
X183710000Y-108310000D02*
X182950000Y-108310000D01*
X182950000Y-107890000D01*
X183710000Y-107890000D01*
X183710000Y-108310000D01*
G36*
X183710000Y-108310000D02*
G01*
X182950000Y-108310000D01*
X182950000Y-107890000D01*
X183710000Y-107890000D01*
X183710000Y-108310000D01*
G37*
X185180000Y-106810000D02*
X184420000Y-106810000D01*
X184420000Y-106390000D01*
X185180000Y-106390000D01*
X185180000Y-106810000D01*
G36*
X185180000Y-106810000D02*
G01*
X184420000Y-106810000D01*
X184420000Y-106390000D01*
X185180000Y-106390000D01*
X185180000Y-106810000D01*
G37*
X185180000Y-107310000D02*
X184420000Y-107310000D01*
X184420000Y-106890000D01*
X185180000Y-106890000D01*
X185180000Y-107310000D01*
G36*
X185180000Y-107310000D02*
G01*
X184420000Y-107310000D01*
X184420000Y-106890000D01*
X185180000Y-106890000D01*
X185180000Y-107310000D01*
G37*
X185180000Y-107810000D02*
X184420000Y-107810000D01*
X184420000Y-107390000D01*
X185180000Y-107390000D01*
X185180000Y-107810000D01*
G36*
X185180000Y-107810000D02*
G01*
X184420000Y-107810000D01*
X184420000Y-107390000D01*
X185180000Y-107390000D01*
X185180000Y-107810000D01*
G37*
X185180000Y-108310000D02*
X184420000Y-108310000D01*
X184420000Y-107890000D01*
X185180000Y-107890000D01*
X185180000Y-108310000D01*
G36*
X185180000Y-108310000D02*
G01*
X184420000Y-108310000D01*
X184420000Y-107890000D01*
X185180000Y-107890000D01*
X185180000Y-108310000D01*
G37*
%TD*%
D11*
%TO.C,R11*%
X156187500Y-91900000D03*
X158012500Y-91900000D03*
%TD*%
D12*
%TO.C,D6*%
X184650000Y-103900000D03*
X182600000Y-103900000D03*
%TD*%
D13*
%TO.C,J3*%
X152625000Y-111399999D03*
X151375000Y-111399999D03*
D14*
X147050000Y-114750000D03*
X152000000Y-114750000D03*
X156950000Y-114750000D03*
%TD*%
D15*
%TO.C,R3*%
X137975000Y-104125000D03*
X137975000Y-105950000D03*
%TD*%
D16*
%TO.C,U6*%
X141853500Y-107752500D03*
X141853500Y-105847500D03*
X139821500Y-106800000D03*
%TD*%
D17*
%TO.C,D7*%
X165500000Y-116550000D03*
X165500000Y-114500000D03*
%TD*%
D18*
%TO.C,J6*%
X118000000Y-82000000D03*
D19*
X115460000Y-82000000D03*
X112920000Y-82000000D03*
%TD*%
D20*
%TO.C,J22*%
X132599989Y-97240000D03*
X126600001Y-97240000D03*
D21*
X129600000Y-93300000D03*
D22*
X129600000Y-96299999D03*
%TD*%
D23*
%TO.C,J8*%
X186500000Y-121600000D03*
D24*
X186500000Y-119580000D03*
D25*
X186500000Y-118350000D03*
D23*
X186500000Y-120600000D03*
D24*
X186500000Y-122620000D03*
D25*
X186500000Y-123850000D03*
D26*
X191000000Y-126675000D03*
X191000000Y-115525000D03*
D27*
X187400000Y-126675000D03*
X187400000Y-115525000D03*
%TD*%
D13*
%TO.C,J5*%
X152775000Y-120049999D03*
X151525000Y-120049999D03*
D14*
X147200000Y-123400000D03*
X152150000Y-123400000D03*
X157100000Y-123400000D03*
%TD*%
D17*
%TO.C,D2*%
X182300000Y-114025000D03*
X182300000Y-111975000D03*
%TD*%
D28*
%TO.C,U9*%
X179300000Y-116700000D03*
X177000000Y-116700000D03*
X174700000Y-116700000D03*
D29*
X177000000Y-122900000D03*
%TD*%
D30*
%TO.C,J1*%
X154150000Y-128750000D03*
X152900000Y-128750000D03*
X151650000Y-128750000D03*
X150400000Y-128750000D03*
D31*
X156000000Y-132100000D03*
X148550000Y-132100000D03*
%TD*%
D32*
%TO.C,JP4*%
X180895000Y-107000000D03*
D33*
X180895000Y-108300000D03*
%TD*%
D15*
%TO.C,R15*%
X165500000Y-110887500D03*
X165500000Y-112712500D03*
%TD*%
D34*
%TO.C,U8*%
X138170000Y-85040000D03*
D35*
X138170000Y-82500000D03*
X140710000Y-85040000D03*
X140710000Y-82500000D03*
X143250000Y-85040000D03*
X143250000Y-82500000D03*
X145790000Y-85040000D03*
X145790000Y-82500000D03*
X148330000Y-85040000D03*
X148330000Y-82500000D03*
X150870000Y-85040000D03*
X150870000Y-82500000D03*
X153410000Y-85040000D03*
X153410000Y-82500000D03*
X155950000Y-85040000D03*
X155950000Y-82500000D03*
X158490000Y-85040000D03*
X158490000Y-82500000D03*
X161030000Y-85040000D03*
X161030000Y-82500000D03*
X163570000Y-85040000D03*
X163570000Y-82500000D03*
X166110000Y-85040000D03*
X166110000Y-82500000D03*
X168650000Y-85040000D03*
X168650000Y-82500000D03*
X171190000Y-85040000D03*
X171190000Y-82500000D03*
X173730000Y-85040000D03*
X173730000Y-82500000D03*
X176270000Y-85040000D03*
X176270000Y-82500000D03*
X178810000Y-85040000D03*
X178810000Y-82500000D03*
X181350000Y-85040000D03*
X181350000Y-82500000D03*
X183890000Y-85040000D03*
X183890000Y-82500000D03*
X186430000Y-85040000D03*
X186430000Y-82500000D03*
%TD*%
D18*
%TO.C,J9*%
X158140000Y-106000000D03*
D19*
X155600000Y-106000000D03*
X153060000Y-106000000D03*
%TD*%
D36*
%TO.C,R16*%
X135100000Y-86300000D03*
X133275000Y-86300000D03*
%TD*%
D17*
%TO.C,D5*%
X187900000Y-112350000D03*
X187900000Y-110300000D03*
%TD*%
D37*
%TO.C,JP1*%
X171900000Y-114900000D03*
D38*
X171900000Y-113600000D03*
%TD*%
D39*
%TO.C,TP1*%
X163500000Y-130400000D03*
%TD*%
D18*
%TO.C,J13*%
X111820000Y-109400000D03*
D19*
X114360000Y-109400000D03*
X116900000Y-109400000D03*
%TD*%
D40*
%TO.C,REF\u002A\u002A*%
X133180000Y-130720000D03*
%TD*%
D41*
%TO.C,C14*%
X153850000Y-88737500D03*
X153850000Y-90462500D03*
%TD*%
D42*
%TO.C,C11*%
X179925000Y-113500000D03*
X178200000Y-113500000D03*
%TD*%
D43*
%TO.C,R2*%
X144500000Y-107600000D03*
X144500000Y-105775000D03*
%TD*%
D39*
%TO.C,TP3*%
X117550000Y-130800000D03*
%TD*%
D44*
%TO.C,D8*%
X129350000Y-88100000D03*
X131400000Y-88100000D03*
%TD*%
D15*
%TO.C,R5*%
X156200000Y-93487500D03*
X156200000Y-95312500D03*
%TD*%
D45*
%TO.C,JP3*%
X172800000Y-104800000D03*
D46*
X171500000Y-104800000D03*
%TD*%
D40*
%TO.C,REF\u002A\u002A*%
X191180000Y-81720000D03*
%TD*%
D37*
%TO.C,JP2*%
X169000000Y-114900000D03*
D38*
X169000000Y-113600000D03*
%TD*%
D20*
%TO.C,J24*%
X168199989Y-97240001D03*
X162200001Y-97240001D03*
D21*
X165200000Y-93300001D03*
D22*
X165200000Y-96300000D03*
%TD*%
D18*
%TO.C,J20*%
X123725000Y-82000000D03*
D19*
X126265000Y-82000000D03*
%TD*%
D42*
%TO.C,C13*%
X136862500Y-88000000D03*
X135137500Y-88000000D03*
%TD*%
D13*
%TO.C,J4*%
X129375000Y-120606298D03*
X128125000Y-120606298D03*
D14*
X123800000Y-123956299D03*
X128750000Y-123956299D03*
X133700000Y-123956299D03*
%TD*%
D40*
%TO.C,REF\u002A\u002A*%
X133180000Y-81720000D03*
%TD*%
D42*
%TO.C,C18*%
X176300000Y-113500000D03*
X174575000Y-113500000D03*
%TD*%
D47*
%TO.C,U5*%
X148583800Y-92295000D03*
X148583800Y-93565000D03*
X148583800Y-94835000D03*
X148583800Y-96105000D03*
X153816200Y-96105000D03*
X153816200Y-94835000D03*
X153816200Y-93565000D03*
X153816200Y-92295000D03*
%TD*%
D12*
%TO.C,D4*%
X187525000Y-128900000D03*
X185475000Y-128900000D03*
%TD*%
D15*
%TO.C,R12*%
X183500000Y-124000000D03*
X183500000Y-125825000D03*
%TD*%
D39*
%TO.C,TP2*%
X123850000Y-130900000D03*
%TD*%
D41*
%TO.C,C9*%
X142300000Y-93900000D03*
X142300000Y-95625000D03*
%TD*%
D36*
%TO.C,R1*%
X144587500Y-109250000D03*
X142762500Y-109250000D03*
%TD*%
D18*
%TO.C,J12*%
X190300000Y-96320000D03*
D19*
X190300000Y-93780000D03*
X190300000Y-91240000D03*
X190300000Y-88700000D03*
X190300000Y-86160000D03*
%TD*%
D41*
%TO.C,C7*%
X145500000Y-99100000D03*
X145500000Y-100825000D03*
%TD*%
D48*
%TO.C,J7*%
X115250000Y-119550000D03*
X115250000Y-118300000D03*
X115250000Y-117050000D03*
X115250000Y-115800000D03*
D49*
X111900000Y-121400000D03*
X111900000Y-113950000D03*
%TD*%
D41*
%TO.C,C4*%
X139800000Y-99100000D03*
X139800000Y-100825000D03*
%TD*%
D20*
%TO.C,J23*%
X172900022Y-93760000D03*
X184899998Y-93760000D03*
D21*
X181899999Y-97700000D03*
D22*
X178900000Y-97700000D03*
X175900001Y-97700000D03*
X181899999Y-94700001D03*
X178900000Y-94700001D03*
X175900001Y-94700001D03*
%TD*%
D41*
%TO.C,C8*%
X144600000Y-93900000D03*
X144600000Y-95625000D03*
%TD*%
D43*
%TO.C,R10*%
X156200000Y-98825000D03*
X156200000Y-97000000D03*
%TD*%
D42*
%TO.C,FB3*%
X137862500Y-101000000D03*
X136137500Y-101000000D03*
%TD*%
D48*
%TO.C,J11*%
X115300000Y-93250000D03*
X115300000Y-92000000D03*
X115300000Y-90750000D03*
X115300000Y-89500000D03*
D49*
X111950000Y-95100000D03*
X111950000Y-87650000D03*
%TD*%
D36*
%TO.C,R4*%
X136312500Y-105200000D03*
X134487500Y-105200000D03*
%TD*%
D11*
%TO.C,R14*%
X178487500Y-103900000D03*
X180312500Y-103900000D03*
%TD*%
D41*
%TO.C,C6*%
X141900000Y-99137500D03*
X141900000Y-100862500D03*
%TD*%
D42*
%TO.C,FB4*%
X137862500Y-99000000D03*
X136137500Y-99000000D03*
%TD*%
D48*
%TO.C,J10*%
X115250000Y-103650000D03*
X115250000Y-102400000D03*
X115250000Y-101150000D03*
X115250000Y-99900000D03*
D49*
X111900000Y-105500000D03*
X111900000Y-98050000D03*
%TD*%
D44*
%TO.C,D1*%
X130675000Y-105200000D03*
X132725000Y-105200000D03*
%TD*%
D13*
%TO.C,J2*%
X129500000Y-111500000D03*
X128250000Y-111500000D03*
D14*
X123925000Y-114850001D03*
X128875000Y-114850001D03*
X133825000Y-114850001D03*
%TD*%
D15*
%TO.C,R6*%
X184485000Y-110337500D03*
X184485000Y-112162500D03*
%TD*%
D40*
%TO.C,REF\u002A\u002A*%
X191180000Y-130720000D03*
%TD*%
D50*
%TO.C,C15*%
X157737500Y-90200000D03*
X159462500Y-90200000D03*
%TD*%
D15*
%TO.C,R13*%
X187900000Y-106575000D03*
X187900000Y-108400000D03*
%TD*%
D51*
%TO.C,U1*%
X137500000Y-109100000D03*
X137500000Y-111640000D03*
X137500000Y-114180000D03*
X137500000Y-116720000D03*
X137500000Y-119260000D03*
X137500000Y-121800000D03*
X119720000Y-109100000D03*
X119720000Y-111640000D03*
X119720000Y-114180000D03*
X119720000Y-116720000D03*
X119720000Y-119260000D03*
X119720000Y-121800000D03*
%TD*%
%TO.C,U10*%
X161100000Y-112500000D03*
X161100000Y-115040000D03*
X161100000Y-117580000D03*
X161100000Y-120120000D03*
X161100000Y-122660000D03*
X161100000Y-125200000D03*
X143320000Y-112500000D03*
X143320000Y-115040000D03*
X143320000Y-117580000D03*
X143320000Y-120120000D03*
X143320000Y-122660000D03*
X143320000Y-125200000D03*
%TD*%
M02*
