%TF.GenerationSoftware,KiCad,Pcbnew,8.0.4*%
%TF.CreationDate,2025-01-10T13:29:25-08:00*%
%TF.ProjectId,X17_Pi_Shield,5831375f-5069-45f5-9368-69656c642e6b,rev?*%
%TF.SameCoordinates,Original*%
%TF.FileFunction,Paste,Top*%
%TF.FilePolarity,Positive*%
%FSLAX46Y46*%
G04 Gerber Fmt 4.6, Leading zero omitted, Abs format (unit mm)*
G04 Created by KiCad (PCBNEW 8.0.4) date 2025-01-10 13:29:25*
%MOMM*%
%LPD*%
G01*
G04 APERTURE LIST*
G04 Aperture macros list*
%AMRoundRect*
0 Rectangle with rounded corners*
0 $1 Rounding radius*
0 $2 $3 $4 $5 $6 $7 $8 $9 X,Y pos of 4 corners*
0 Add a 4 corners polygon primitive as box body*
4,1,4,$2,$3,$4,$5,$6,$7,$8,$9,$2,$3,0*
0 Add four circle primitives for the rounded corners*
1,1,$1+$1,$2,$3*
1,1,$1+$1,$4,$5*
1,1,$1+$1,$6,$7*
1,1,$1+$1,$8,$9*
0 Add four rect primitives between the rounded corners*
20,1,$1+$1,$2,$3,$4,$5,0*
20,1,$1+$1,$4,$5,$6,$7,0*
20,1,$1+$1,$6,$7,$8,$9,0*
20,1,$1+$1,$8,$9,$2,$3,0*%
G04 Aperture macros list end*
%ADD10RoundRect,0.237500X-0.250000X-0.237500X0.250000X-0.237500X0.250000X0.237500X-0.250000X0.237500X0*%
%ADD11RoundRect,0.250000X0.325000X0.450000X-0.325000X0.450000X-0.325000X-0.450000X0.325000X-0.450000X0*%
%ADD12R,0.660400X1.803400*%
%ADD13R,1.803400X1.295400*%
%ADD14RoundRect,0.237500X-0.237500X0.250000X-0.237500X-0.250000X0.237500X-0.250000X0.237500X0.250000X0*%
%ADD15R,1.320800X0.558800*%
%ADD16RoundRect,0.250000X0.450000X-0.325000X0.450000X0.325000X-0.450000X0.325000X-0.450000X-0.325000X0*%
%ADD17R,1.100000X0.700000*%
%ADD18R,1.100000X0.760000*%
%ADD19R,1.100000X0.800000*%
%ADD20R,1.200000X2.200000*%
%ADD21R,3.500000X2.200000*%
%ADD22RoundRect,0.150000X0.150000X0.700000X-0.150000X0.700000X-0.150000X-0.700000X0.150000X-0.700000X0*%
%ADD23RoundRect,0.250000X0.250000X1.150000X-0.250000X1.150000X-0.250000X-1.150000X0.250000X-1.150000X0*%
%ADD24RoundRect,0.237500X0.250000X0.237500X-0.250000X0.237500X-0.250000X-0.237500X0.250000X-0.237500X0*%
%ADD25R,0.660000X0.320000*%
%ADD26RoundRect,0.237500X-0.237500X0.300000X-0.237500X-0.300000X0.237500X-0.300000X0.237500X0.300000X0*%
%ADD27RoundRect,0.237500X0.300000X0.237500X-0.300000X0.237500X-0.300000X-0.237500X0.300000X-0.237500X0*%
%ADD28RoundRect,0.237500X0.237500X-0.250000X0.237500X0.250000X-0.237500X0.250000X-0.237500X-0.250000X0*%
%ADD29RoundRect,0.250000X-0.325000X-0.450000X0.325000X-0.450000X0.325000X0.450000X-0.325000X0.450000X0*%
%ADD30R,2.209800X0.609600*%
%ADD31RoundRect,0.150000X0.700000X-0.150000X0.700000X0.150000X-0.700000X0.150000X-0.700000X-0.150000X0*%
%ADD32RoundRect,0.250000X1.150000X-0.250000X1.150000X0.250000X-1.150000X0.250000X-1.150000X-0.250000X0*%
%ADD33RoundRect,0.237500X-0.300000X-0.237500X0.300000X-0.237500X0.300000X0.237500X-0.300000X0.237500X0*%
G04 APERTURE END LIST*
D10*
%TO.C,R11*%
X156187500Y-91900000D03*
X158012500Y-91900000D03*
%TD*%
D11*
%TO.C,D6*%
X184650000Y-103900000D03*
X182600000Y-103900000D03*
%TD*%
D12*
%TO.C,J3*%
X152625000Y-111399999D03*
X151375000Y-111399999D03*
D13*
X147050000Y-114750000D03*
X152000000Y-114750000D03*
X156950000Y-114750000D03*
%TD*%
D14*
%TO.C,R3*%
X137975000Y-104125000D03*
X137975000Y-105950000D03*
%TD*%
D15*
%TO.C,U6*%
X141853500Y-107752500D03*
X141853500Y-105847500D03*
X139821500Y-106800000D03*
%TD*%
D16*
%TO.C,D7*%
X165500000Y-116550000D03*
X165500000Y-114500000D03*
%TD*%
D17*
%TO.C,J8*%
X186500000Y-121600000D03*
D18*
X186500000Y-119580000D03*
D19*
X186500000Y-118350000D03*
D17*
X186500000Y-120600000D03*
D18*
X186500000Y-122620000D03*
D19*
X186500000Y-123850000D03*
%TD*%
D12*
%TO.C,J5*%
X152775000Y-120049999D03*
X151525000Y-120049999D03*
D13*
X147200000Y-123400000D03*
X152150000Y-123400000D03*
X157100000Y-123400000D03*
%TD*%
D16*
%TO.C,D2*%
X182300000Y-114025000D03*
X182300000Y-111975000D03*
%TD*%
D20*
%TO.C,U9*%
X179300000Y-116700000D03*
X177000000Y-116700000D03*
X174700000Y-116700000D03*
D21*
X177000000Y-122900000D03*
%TD*%
D22*
%TO.C,J1*%
X154150000Y-128750000D03*
X152900000Y-128750000D03*
X151650000Y-128750000D03*
X150400000Y-128750000D03*
D23*
X156000000Y-132100000D03*
X148550000Y-132100000D03*
%TD*%
D14*
%TO.C,R15*%
X165500000Y-110887500D03*
X165500000Y-112712500D03*
%TD*%
D24*
%TO.C,R16*%
X135100000Y-86300000D03*
X133275000Y-86300000D03*
%TD*%
D16*
%TO.C,D5*%
X187900000Y-112350000D03*
X187900000Y-110300000D03*
%TD*%
D25*
%TO.C,U2*%
X183330000Y-106600000D03*
X183330000Y-107100000D03*
X183330000Y-107600000D03*
X183330000Y-108100000D03*
X184800000Y-108100000D03*
X184800000Y-107600000D03*
X184800000Y-107100000D03*
X184800000Y-106600000D03*
%TD*%
D26*
%TO.C,C14*%
X153850000Y-88737500D03*
X153850000Y-90462500D03*
%TD*%
D27*
%TO.C,C11*%
X179925000Y-113500000D03*
X178200000Y-113500000D03*
%TD*%
D28*
%TO.C,R2*%
X144500000Y-107600000D03*
X144500000Y-105775000D03*
%TD*%
D29*
%TO.C,D8*%
X129350000Y-88100000D03*
X131400000Y-88100000D03*
%TD*%
D14*
%TO.C,R5*%
X156200000Y-93487500D03*
X156200000Y-95312500D03*
%TD*%
D27*
%TO.C,C13*%
X136862500Y-88000000D03*
X135137500Y-88000000D03*
%TD*%
D12*
%TO.C,J4*%
X129375000Y-120606298D03*
X128125000Y-120606298D03*
D13*
X123800000Y-123956299D03*
X128750000Y-123956299D03*
X133700000Y-123956299D03*
%TD*%
D27*
%TO.C,C18*%
X176300000Y-113500000D03*
X174575000Y-113500000D03*
%TD*%
D30*
%TO.C,U5*%
X148583800Y-92295000D03*
X148583800Y-93565000D03*
X148583800Y-94835000D03*
X148583800Y-96105000D03*
X153816200Y-96105000D03*
X153816200Y-94835000D03*
X153816200Y-93565000D03*
X153816200Y-92295000D03*
%TD*%
D11*
%TO.C,D4*%
X187525000Y-128900000D03*
X185475000Y-128900000D03*
%TD*%
D14*
%TO.C,R12*%
X183500000Y-124000000D03*
X183500000Y-125825000D03*
%TD*%
D26*
%TO.C,C9*%
X142300000Y-93900000D03*
X142300000Y-95625000D03*
%TD*%
D24*
%TO.C,R1*%
X144587500Y-109250000D03*
X142762500Y-109250000D03*
%TD*%
D26*
%TO.C,C7*%
X145500000Y-99100000D03*
X145500000Y-100825000D03*
%TD*%
D31*
%TO.C,J7*%
X115250000Y-119550000D03*
X115250000Y-118300000D03*
X115250000Y-117050000D03*
X115250000Y-115800000D03*
D32*
X111900000Y-121400000D03*
X111900000Y-113950000D03*
%TD*%
D26*
%TO.C,C4*%
X139800000Y-99100000D03*
X139800000Y-100825000D03*
%TD*%
%TO.C,C8*%
X144600000Y-93900000D03*
X144600000Y-95625000D03*
%TD*%
D28*
%TO.C,R10*%
X156200000Y-98825000D03*
X156200000Y-97000000D03*
%TD*%
D27*
%TO.C,FB3*%
X137862500Y-101000000D03*
X136137500Y-101000000D03*
%TD*%
D31*
%TO.C,J11*%
X115300000Y-93250000D03*
X115300000Y-92000000D03*
X115300000Y-90750000D03*
X115300000Y-89500000D03*
D32*
X111950000Y-95100000D03*
X111950000Y-87650000D03*
%TD*%
D24*
%TO.C,R4*%
X136312500Y-105200000D03*
X134487500Y-105200000D03*
%TD*%
D10*
%TO.C,R14*%
X178487500Y-103900000D03*
X180312500Y-103900000D03*
%TD*%
D26*
%TO.C,C6*%
X141900000Y-99137500D03*
X141900000Y-100862500D03*
%TD*%
D27*
%TO.C,FB4*%
X137862500Y-99000000D03*
X136137500Y-99000000D03*
%TD*%
D31*
%TO.C,J10*%
X115250000Y-103650000D03*
X115250000Y-102400000D03*
X115250000Y-101150000D03*
X115250000Y-99900000D03*
D32*
X111900000Y-105500000D03*
X111900000Y-98050000D03*
%TD*%
D29*
%TO.C,D1*%
X130675000Y-105200000D03*
X132725000Y-105200000D03*
%TD*%
D12*
%TO.C,J2*%
X129500000Y-111500000D03*
X128250000Y-111500000D03*
D13*
X123925000Y-114850001D03*
X128875000Y-114850001D03*
X133825000Y-114850001D03*
%TD*%
D14*
%TO.C,R6*%
X184485000Y-110337500D03*
X184485000Y-112162500D03*
%TD*%
D33*
%TO.C,C15*%
X157737500Y-90200000D03*
X159462500Y-90200000D03*
%TD*%
D14*
%TO.C,R13*%
X187900000Y-106575000D03*
X187900000Y-108400000D03*
%TD*%
M02*
