M48
; DRILL file {KiCad 8.0.4} date 2025-01-10T13:29:32-0800
; FORMAT={-:-/ absolute / metric / decimal}
; #@! TF.CreationDate,2025-01-10T13:29:32-08:00
; #@! TF.GenerationSoftware,Kicad,Pcbnew,8.0.4
; #@! TF.FileFunction,Plated,1,4,PTH
FMAT,2
METRIC
; #@! TA.AperFunction,Plated,PTH,ViaDrill
T1C0.300
; #@! TA.AperFunction,Plated,PTH,ComponentDrill
T2C0.600
; #@! TA.AperFunction,Plated,PTH,ComponentDrill
T3C1.000
; #@! TA.AperFunction,Plated,PTH,ComponentDrill
T4C1.020
%
G90
G05
T1
X115.7Y-98.0
X115.9Y-114.3
X116.1Y-105.8
X116.5Y-120.3
X116.8Y-93.5
X117.3Y-89.5
X120.05Y-128.3
X123.9Y-116.7
X124.4Y-92.0
X126.15Y-128.6
X128.0Y-88.1
X128.1Y-119.1
X128.2Y-109.8
X129.4Y-105.2
X133.5Y-88.0
X134.6Y-94.6
X135.8Y-94.6
X136.4Y-81.4
X139.162Y-103.162
X143.2Y-97.6
X144.5Y-104.7
X145.7Y-97.6
X146.475Y-100.825
X146.7Y-99.1
X150.3Y-127.5
X150.4Y-92.8
X151.0Y-110.2
X151.2Y-102.2
X151.4Y-91.2
X151.525Y-118.525
X152.001Y-94.666
X152.001Y-97.199
X153.4Y-97.4
X154.6Y-98.4
X154.7Y-87.5
X155.1Y-90.9
X155.2Y-128.1
X157.0Y-103.2
X159.2Y-97.0
X159.4Y-92.8
X159.5Y-91.9
X161.2Y-98.6
X161.4Y-92.0
X161.4Y-92.8
X161.5Y-90.625
X163.6Y-111.5
X164.1Y-118.1
X167.259Y-107.841
X167.4Y-87.8
X167.75Y-109.85
X168.5Y-104.3
X169.6Y-105.0
X170.4Y-112.9
X171.6Y-109.79
X172.4Y-84.8
X172.6Y-117.4
X173.0Y-106.3
X174.6Y-87.8
X174.8Y-105.0
X176.2Y-87.0
X176.3Y-109.0
X177.0Y-107.8
X177.0Y-109.8
X177.4Y-112.571
X177.8Y-93.0
X178.0Y-90.2
X178.8Y-91.2
X179.4Y-105.6
X180.4Y-114.8
X180.95Y-101.75
X182.3Y-115.7
X182.8Y-108.9
X184.2Y-109.0
X184.9Y-105.4
X186.2Y-108.5
X186.26Y-109.8
X186.3Y-103.9
X186.4Y-107.5
X186.5Y-111.252
X187.9Y-113.5
T3
X111.82Y-109.4
X112.92Y-82.0
X114.36Y-109.4
X115.46Y-82.0
X116.9Y-109.4
X118.0Y-82.0
X119.72Y-109.1
X119.72Y-111.64
X119.72Y-114.18
X119.72Y-116.72
X119.72Y-119.26
X119.72Y-121.8
X123.725Y-82.0
X126.265Y-82.0
X137.5Y-109.1
X137.5Y-111.64
X137.5Y-114.18
X137.5Y-116.72
X137.5Y-119.26
X137.5Y-121.8
X143.32Y-112.5
X143.32Y-115.04
X143.32Y-117.58
X143.32Y-120.12
X143.32Y-122.66
X143.32Y-125.2
X153.06Y-106.0
X155.6Y-106.0
X158.14Y-106.0
X161.1Y-112.5
X161.1Y-115.04
X161.1Y-117.58
X161.1Y-120.12
X161.1Y-122.66
X161.1Y-125.2
X190.3Y-86.16
X190.3Y-88.7
X190.3Y-91.24
X190.3Y-93.78
X190.3Y-96.32
T4
X129.6Y-93.3
X129.6Y-96.3
X138.17Y-82.5
X138.17Y-85.04
X140.71Y-82.5
X140.71Y-85.04
X143.25Y-82.5
X143.25Y-85.04
X145.79Y-82.5
X145.79Y-85.04
X148.33Y-82.5
X148.33Y-85.04
X150.87Y-82.5
X150.87Y-85.04
X153.41Y-82.5
X153.41Y-85.04
X155.95Y-82.5
X155.95Y-85.04
X158.49Y-82.5
X158.49Y-85.04
X161.03Y-82.5
X161.03Y-85.04
X163.57Y-82.5
X163.57Y-85.04
X165.2Y-93.3
X165.2Y-96.3
X166.11Y-82.5
X166.11Y-85.04
X168.65Y-82.5
X168.65Y-85.04
X171.19Y-82.5
X171.19Y-85.04
X173.73Y-82.5
X173.73Y-85.04
X175.9Y-94.7
X175.9Y-97.7
X176.27Y-82.5
X176.27Y-85.04
X178.81Y-82.5
X178.81Y-85.04
X178.9Y-94.7
X178.9Y-97.7
X181.35Y-82.5
X181.35Y-85.04
X181.9Y-94.7
X181.9Y-97.7
X183.89Y-82.5
X183.89Y-85.04
X186.43Y-82.5
X186.43Y-85.04
T2
X187.0Y-115.525G85X187.8Y-115.525
G05
X187.0Y-126.675G85X187.8Y-126.675
G05
X190.4Y-115.525G85X191.6Y-115.525
G05
X190.4Y-126.675G85X191.6Y-126.675
G05
M30
