%TF.GenerationSoftware,KiCad,Pcbnew,8.0.4*%
%TF.CreationDate,2025-01-10T13:29:25-08:00*%
%TF.ProjectId,X17_Pi_Shield,5831375f-5069-45f5-9368-69656c642e6b,rev?*%
%TF.SameCoordinates,Original*%
%TF.FileFunction,Copper,L1,Top*%
%TF.FilePolarity,Positive*%
%FSLAX46Y46*%
G04 Gerber Fmt 4.6, Leading zero omitted, Abs format (unit mm)*
G04 Created by KiCad (PCBNEW 8.0.4) date 2025-01-10 13:29:25*
%MOMM*%
%LPD*%
G01*
G04 APERTURE LIST*
G04 Aperture macros list*
%AMRoundRect*
0 Rectangle with rounded corners*
0 $1 Rounding radius*
0 $2 $3 $4 $5 $6 $7 $8 $9 X,Y pos of 4 corners*
0 Add a 4 corners polygon primitive as box body*
4,1,4,$2,$3,$4,$5,$6,$7,$8,$9,$2,$3,0*
0 Add four circle primitives for the rounded corners*
1,1,$1+$1,$2,$3*
1,1,$1+$1,$4,$5*
1,1,$1+$1,$6,$7*
1,1,$1+$1,$8,$9*
0 Add four rect primitives between the rounded corners*
20,1,$1+$1,$2,$3,$4,$5,0*
20,1,$1+$1,$4,$5,$6,$7,0*
20,1,$1+$1,$6,$7,$8,$9,0*
20,1,$1+$1,$8,$9,$2,$3,0*%
%AMFreePoly0*
4,1,19,0.500000,-0.750000,0.000000,-0.750000,0.000000,-0.744911,-0.071157,-0.744911,-0.207708,-0.704816,-0.327430,-0.627875,-0.420627,-0.520320,-0.479746,-0.390866,-0.500000,-0.250000,-0.500000,0.250000,-0.479746,0.390866,-0.420627,0.520320,-0.327430,0.627875,-0.207708,0.704816,-0.071157,0.744911,0.000000,0.744911,0.000000,0.750000,0.500000,0.750000,0.500000,-0.750000,0.500000,-0.750000,
$1*%
%AMFreePoly1*
4,1,19,0.000000,0.744911,0.071157,0.744911,0.207708,0.704816,0.327430,0.627875,0.420627,0.520320,0.479746,0.390866,0.500000,0.250000,0.500000,-0.250000,0.479746,-0.390866,0.420627,-0.520320,0.327430,-0.627875,0.207708,-0.704816,0.071157,-0.744911,0.000000,-0.744911,0.000000,-0.750000,-0.500000,-0.750000,-0.500000,0.750000,0.000000,0.750000,0.000000,0.744911,0.000000,0.744911,
$1*%
G04 Aperture macros list end*
%TA.AperFunction,SMDPad,CuDef*%
%ADD10RoundRect,0.237500X-0.250000X-0.237500X0.250000X-0.237500X0.250000X0.237500X-0.250000X0.237500X0*%
%TD*%
%TA.AperFunction,SMDPad,CuDef*%
%ADD11RoundRect,0.250000X0.325000X0.450000X-0.325000X0.450000X-0.325000X-0.450000X0.325000X-0.450000X0*%
%TD*%
%TA.AperFunction,SMDPad,CuDef*%
%ADD12R,0.660400X1.803400*%
%TD*%
%TA.AperFunction,SMDPad,CuDef*%
%ADD13R,1.803400X1.295400*%
%TD*%
%TA.AperFunction,SMDPad,CuDef*%
%ADD14RoundRect,0.237500X-0.237500X0.250000X-0.237500X-0.250000X0.237500X-0.250000X0.237500X0.250000X0*%
%TD*%
%TA.AperFunction,SMDPad,CuDef*%
%ADD15R,1.320800X0.558800*%
%TD*%
%TA.AperFunction,SMDPad,CuDef*%
%ADD16RoundRect,0.250000X0.450000X-0.325000X0.450000X0.325000X-0.450000X0.325000X-0.450000X-0.325000X0*%
%TD*%
%TA.AperFunction,ComponentPad*%
%ADD17R,1.700000X1.700000*%
%TD*%
%TA.AperFunction,ComponentPad*%
%ADD18O,1.700000X1.700000*%
%TD*%
%TA.AperFunction,ComponentPad*%
%ADD19R,1.520000X1.520000*%
%TD*%
%TA.AperFunction,ComponentPad*%
%ADD20C,1.520000*%
%TD*%
%TA.AperFunction,SMDPad,CuDef*%
%ADD21R,1.100000X0.700000*%
%TD*%
%TA.AperFunction,SMDPad,CuDef*%
%ADD22R,1.100000X0.760000*%
%TD*%
%TA.AperFunction,SMDPad,CuDef*%
%ADD23R,1.100000X0.800000*%
%TD*%
%TA.AperFunction,ComponentPad*%
%ADD24O,2.200000X1.000000*%
%TD*%
%TA.AperFunction,ComponentPad*%
%ADD25O,1.800000X1.000000*%
%TD*%
%TA.AperFunction,SMDPad,CuDef*%
%ADD26R,1.200000X2.200000*%
%TD*%
%TA.AperFunction,SMDPad,CuDef*%
%ADD27R,3.500000X2.200000*%
%TD*%
%TA.AperFunction,SMDPad,CuDef*%
%ADD28RoundRect,0.150000X0.150000X0.700000X-0.150000X0.700000X-0.150000X-0.700000X0.150000X-0.700000X0*%
%TD*%
%TA.AperFunction,SMDPad,CuDef*%
%ADD29RoundRect,0.250000X0.250000X1.150000X-0.250000X1.150000X-0.250000X-1.150000X0.250000X-1.150000X0*%
%TD*%
%TA.AperFunction,SMDPad,CuDef*%
%ADD30FreePoly0,270.000000*%
%TD*%
%TA.AperFunction,SMDPad,CuDef*%
%ADD31FreePoly1,270.000000*%
%TD*%
%TA.AperFunction,ComponentPad*%
%ADD32R,1.370000X1.370000*%
%TD*%
%TA.AperFunction,ComponentPad*%
%ADD33C,1.370000*%
%TD*%
%TA.AperFunction,SMDPad,CuDef*%
%ADD34RoundRect,0.237500X0.250000X0.237500X-0.250000X0.237500X-0.250000X-0.237500X0.250000X-0.237500X0*%
%TD*%
%TA.AperFunction,SMDPad,CuDef*%
%ADD35FreePoly0,90.000000*%
%TD*%
%TA.AperFunction,SMDPad,CuDef*%
%ADD36FreePoly1,90.000000*%
%TD*%
%TA.AperFunction,SMDPad,CuDef*%
%ADD37C,4.000000*%
%TD*%
%TA.AperFunction,SMDPad,CuDef*%
%ADD38R,0.660000X0.320000*%
%TD*%
%TA.AperFunction,SMDPad,CuDef*%
%ADD39RoundRect,0.237500X-0.237500X0.300000X-0.237500X-0.300000X0.237500X-0.300000X0.237500X0.300000X0*%
%TD*%
%TA.AperFunction,SMDPad,CuDef*%
%ADD40RoundRect,0.237500X0.300000X0.237500X-0.300000X0.237500X-0.300000X-0.237500X0.300000X-0.237500X0*%
%TD*%
%TA.AperFunction,SMDPad,CuDef*%
%ADD41RoundRect,0.237500X0.237500X-0.250000X0.237500X0.250000X-0.237500X0.250000X-0.237500X-0.250000X0*%
%TD*%
%TA.AperFunction,SMDPad,CuDef*%
%ADD42RoundRect,0.250000X-0.325000X-0.450000X0.325000X-0.450000X0.325000X0.450000X-0.325000X0.450000X0*%
%TD*%
%TA.AperFunction,SMDPad,CuDef*%
%ADD43FreePoly0,180.000000*%
%TD*%
%TA.AperFunction,SMDPad,CuDef*%
%ADD44FreePoly1,180.000000*%
%TD*%
%TA.AperFunction,SMDPad,CuDef*%
%ADD45R,2.209800X0.609600*%
%TD*%
%TA.AperFunction,SMDPad,CuDef*%
%ADD46RoundRect,0.150000X0.700000X-0.150000X0.700000X0.150000X-0.700000X0.150000X-0.700000X-0.150000X0*%
%TD*%
%TA.AperFunction,SMDPad,CuDef*%
%ADD47RoundRect,0.250000X1.150000X-0.250000X1.150000X0.250000X-1.150000X0.250000X-1.150000X-0.250000X0*%
%TD*%
%TA.AperFunction,SMDPad,CuDef*%
%ADD48RoundRect,0.237500X-0.300000X-0.237500X0.300000X-0.237500X0.300000X0.237500X-0.300000X0.237500X0*%
%TD*%
%TA.AperFunction,ComponentPad*%
%ADD49C,1.778000*%
%TD*%
%TA.AperFunction,ViaPad*%
%ADD50C,0.600000*%
%TD*%
%TA.AperFunction,Conductor*%
%ADD51C,0.762000*%
%TD*%
%TA.AperFunction,Conductor*%
%ADD52C,0.508000*%
%TD*%
%TA.AperFunction,Conductor*%
%ADD53C,1.016000*%
%TD*%
%TA.AperFunction,Conductor*%
%ADD54C,0.254000*%
%TD*%
%TA.AperFunction,Conductor*%
%ADD55C,0.381000*%
%TD*%
%TA.AperFunction,Conductor*%
%ADD56C,0.304800*%
%TD*%
G04 APERTURE END LIST*
D10*
%TO.P,R11,1*%
%TO.N,/UART/B*%
X156187500Y-91900000D03*
%TO.P,R11,2*%
%TO.N,GND*%
X158012500Y-91900000D03*
%TD*%
D11*
%TO.P,D6,1,K*%
%TO.N,GND*%
X184650000Y-103900000D03*
%TO.P,D6,2,A*%
%TO.N,Net-(D6-A)*%
X182600000Y-103900000D03*
%TD*%
D12*
%TO.P,J3,1,1*%
%TO.N,/Sensors/PROBE*%
X152625000Y-111399999D03*
%TO.P,J3,2,2*%
%TO.N,GND*%
X151375000Y-111399999D03*
D13*
%TO.P,J3,3*%
%TO.N,N/C*%
X147050000Y-114750000D03*
%TO.P,J3,4*%
X152000000Y-114750000D03*
%TO.P,J3,5*%
X156950000Y-114750000D03*
%TD*%
D14*
%TO.P,R3,1*%
%TO.N,GND*%
X137975000Y-104125000D03*
%TO.P,R3,2*%
%TO.N,/Pi + IMU/LEAK*%
X137975000Y-105950000D03*
%TD*%
D15*
%TO.P,U6,1,BASE*%
%TO.N,Net-(U6-BASE)*%
X141853500Y-107752500D03*
%TO.P,U6,2,EMITTER*%
%TO.N,+3V3*%
X141853500Y-105847500D03*
%TO.P,U6,3,COLLECTOR*%
%TO.N,/Pi + IMU/LEAK*%
X139821500Y-106800000D03*
%TD*%
D16*
%TO.P,D7,1,K*%
%TO.N,GND*%
X165500000Y-116550000D03*
%TO.P,D7,2,A*%
%TO.N,Net-(D7-A)*%
X165500000Y-114500000D03*
%TD*%
D17*
%TO.P,J6,1,Pin_1*%
%TO.N,/Pi + IMU/LEAK*%
X118000000Y-82000000D03*
D18*
%TO.P,J6,2,Pin_2*%
%TO.N,+3V3*%
X115460000Y-82000000D03*
%TO.P,J6,3,Pin_3*%
%TO.N,GND*%
X112920000Y-82000000D03*
%TD*%
D19*
%TO.P,J22,1,1*%
%TO.N,Net-(U7-B)*%
X129600000Y-93300000D03*
D20*
%TO.P,J22,2,2*%
%TO.N,Net-(U7-A)*%
X129600000Y-96299999D03*
%TD*%
D21*
%TO.P,J8,A5,CC1*%
%TO.N,unconnected-(J8-CC1-PadA5)*%
X186500000Y-121600000D03*
D22*
%TO.P,J8,A9,VBUS*%
%TO.N,/Power/5V_WALL_IN*%
X186500000Y-119580000D03*
D23*
%TO.P,J8,A12,GND*%
%TO.N,GND*%
X186500000Y-118350000D03*
D21*
%TO.P,J8,B5,CC2*%
%TO.N,unconnected-(J8-CC2-PadB5)*%
X186500000Y-120600000D03*
D22*
%TO.P,J8,B9,VBUS__1*%
%TO.N,/Power/5V_WALL_IN*%
X186500000Y-122620000D03*
D23*
%TO.P,J8,B12,GND__1*%
%TO.N,GND*%
X186500000Y-123850000D03*
D24*
%TO.P,J8,SH1,SHIELD*%
X191000000Y-126675000D03*
%TO.P,J8,SH2,SHIELD__1*%
X191000000Y-115525000D03*
D25*
%TO.P,J8,SH3,SHIELD__2*%
X187400000Y-126675000D03*
%TO.P,J8,SH4,SHIELD__3*%
X187400000Y-115525000D03*
%TD*%
D12*
%TO.P,J5,1,1*%
%TO.N,/Sensors/PROBE*%
X152775000Y-120049999D03*
%TO.P,J5,2,2*%
%TO.N,GND*%
X151525000Y-120049999D03*
D13*
%TO.P,J5,3*%
%TO.N,N/C*%
X147200000Y-123400000D03*
%TO.P,J5,4*%
X152150000Y-123400000D03*
%TO.P,J5,5*%
X157100000Y-123400000D03*
%TD*%
D16*
%TO.P,D2,1,K*%
%TO.N,GND*%
X182300000Y-114025000D03*
%TO.P,D2,2,A*%
%TO.N,Net-(D2-A)*%
X182300000Y-111975000D03*
%TD*%
D26*
%TO.P,U9,1,GND*%
%TO.N,GND*%
X179300000Y-116700000D03*
%TO.P,U9,2,OUTPUT*%
%TO.N,/Power/Vs*%
X177000000Y-116700000D03*
%TO.P,U9,3,INPUT*%
%TO.N,/Power/5V_TOTAL*%
X174700000Y-116700000D03*
D27*
%TO.P,U9,4,VOUT*%
%TO.N,/Power/Vs*%
X177000000Y-122900000D03*
%TD*%
D28*
%TO.P,J1,1,1*%
%TO.N,+3V3*%
X154150000Y-128750000D03*
%TO.P,J1,2,2*%
%TO.N,/Pi + IMU/SCL*%
X152900000Y-128750000D03*
%TO.P,J1,3,3*%
%TO.N,/Pi + IMU/SDA*%
X151650000Y-128750000D03*
%TO.P,J1,4,4*%
%TO.N,GND*%
X150400000Y-128750000D03*
D29*
%TO.P,J1,MP*%
%TO.N,N/C*%
X156000000Y-132100000D03*
X148550000Y-132100000D03*
%TD*%
D30*
%TO.P,JP4,1,A*%
%TO.N,/Power/5V_BACKPLANE*%
X180895000Y-107000000D03*
D31*
%TO.P,JP4,2,B*%
%TO.N,/Power/5V_TOTAL*%
X180895000Y-108300000D03*
%TD*%
D14*
%TO.P,R15,1*%
%TO.N,+5V*%
X165500000Y-110887500D03*
%TO.P,R15,2*%
%TO.N,Net-(D7-A)*%
X165500000Y-112712500D03*
%TD*%
D32*
%TO.P,U8,1,3V3*%
%TO.N,+3V3*%
X138170000Y-85040000D03*
D33*
%TO.P,U8,2,5V*%
%TO.N,+5V*%
X138170000Y-82500000D03*
%TO.P,U8,3,GPIO2/SDA1*%
%TO.N,/Pi + IMU/SDA*%
X140710000Y-85040000D03*
%TO.P,U8,4,5V*%
%TO.N,+5V*%
X140710000Y-82500000D03*
%TO.P,U8,5,GPIO3/SCL1*%
%TO.N,/Pi + IMU/SCL*%
X143250000Y-85040000D03*
%TO.P,U8,6,GND*%
%TO.N,GND*%
X143250000Y-82500000D03*
%TO.P,U8,7,GPIO4/GPIO_GCKL*%
%TO.N,/Pi + IMU/IMU_INT_2*%
X145790000Y-85040000D03*
%TO.P,U8,8,GPIO14/TXD0*%
%TO.N,/Pi + IMU/TX*%
X145790000Y-82500000D03*
%TO.P,U8,9,GND*%
%TO.N,GND*%
X148330000Y-85040000D03*
%TO.P,U8,10,GPIO15/RXD0*%
%TO.N,/Pi + IMU/RX*%
X148330000Y-82500000D03*
%TO.P,U8,11,GPIO17/GPIO_GEN0*%
%TO.N,/Pi + IMU/IMU_INT_1*%
X150870000Y-85040000D03*
%TO.P,U8,12,GPIO18/GPIO_GEN1*%
%TO.N,/Pi + IMU/BKP_EN*%
X150870000Y-82500000D03*
%TO.P,U8,13,GPIO27/GPIO_GEN2*%
%TO.N,/Pi + IMU/IMU_RST_1*%
X153410000Y-85040000D03*
%TO.P,U8,14,GND*%
%TO.N,GND*%
X153410000Y-82500000D03*
%TO.P,U8,15,GPIO22/GPIO_GEN3*%
%TO.N,/Pi + IMU/IMU_RST_2*%
X155950000Y-85040000D03*
%TO.P,U8,16,GPIO23/GPIO_GEN4*%
%TO.N,/Pi + IMU/LEAK*%
X155950000Y-82500000D03*
%TO.P,U8,17,3V3*%
%TO.N,+3V3*%
X158490000Y-85040000D03*
%TO.P,U8,18,GPIO24/GPIO_GEN5*%
%TO.N,/Pi + IMU/ISO_FLT*%
X158490000Y-82500000D03*
%TO.P,U8,19,GPIO10/SPI_MOSI*%
%TO.N,/Pi + IMU/MOSI*%
X161030000Y-85040000D03*
%TO.P,U8,20,GND*%
%TO.N,GND*%
X161030000Y-82500000D03*
%TO.P,U8,21,GPIO9/SPI_MISO*%
%TO.N,/Pi + IMU/MISO*%
X163570000Y-85040000D03*
%TO.P,U8,22,GPIO25/GPIO_GEN6*%
%TO.N,unconnected-(U8-GPIO25{slash}GPIO_GEN6-Pad22)*%
X163570000Y-82500000D03*
%TO.P,U8,23,GPIO11/SPI_SCLK*%
%TO.N,/Pi + IMU/SCLK*%
X166110000Y-85040000D03*
%TO.P,U8,24,GPIO8/~{SPI_CE0}*%
%TO.N,/Pi + IMU/CE0*%
X166110000Y-82500000D03*
%TO.P,U8,25,GND*%
%TO.N,GND*%
X168650000Y-85040000D03*
%TO.P,U8,26,GPIO7/~{SPI_CE1}*%
%TO.N,unconnected-(U8-GPIO7{slash}~{SPI_CE1}-Pad26)*%
X168650000Y-82500000D03*
%TO.P,U8,27*%
%TO.N,N/C*%
X171190000Y-85040000D03*
%TO.P,U8,28*%
X171190000Y-82500000D03*
%TO.P,U8,29,GPIO5*%
%TO.N,/Pi + IMU/NRST_ESC*%
X173730000Y-85040000D03*
%TO.P,U8,30,GND*%
%TO.N,GND*%
X173730000Y-82500000D03*
%TO.P,U8,31,GPIO6*%
%TO.N,/Pi + IMU/NRST_PS*%
X176270000Y-85040000D03*
%TO.P,U8,32,GPIO12*%
%TO.N,/Pi + IMU/TX_TB*%
X176270000Y-82500000D03*
%TO.P,U8,33,GPIO13*%
%TO.N,/Pi + IMU/RX_TB*%
X178810000Y-85040000D03*
%TO.P,U8,34,GND*%
%TO.N,GND*%
X178810000Y-82500000D03*
%TO.P,U8,35,GPIO19*%
%TO.N,unconnected-(U8-GPIO19-Pad35)*%
X181350000Y-85040000D03*
%TO.P,U8,36,GPIO16*%
%TO.N,/Pi + IMU/ALERT*%
X181350000Y-82500000D03*
%TO.P,U8,37,GPIO26*%
%TO.N,unconnected-(U8-GPIO26-Pad37)*%
X183890000Y-85040000D03*
%TO.P,U8,38,GPIO20*%
%TO.N,/Pi + IMU/TB_EN*%
X183890000Y-82500000D03*
%TO.P,U8,39,GND*%
%TO.N,GND*%
X186430000Y-85040000D03*
%TO.P,U8,40,GPIO21*%
%TO.N,/Pi + IMU/NRST_TB*%
X186430000Y-82500000D03*
%TD*%
D17*
%TO.P,J9,1,Pin_1*%
%TO.N,/UART/A*%
X158140000Y-106000000D03*
D18*
%TO.P,J9,2,Pin_2*%
%TO.N,/UART/B*%
X155600000Y-106000000D03*
%TO.P,J9,3,Pin_3*%
%TO.N,GND*%
X153060000Y-106000000D03*
%TD*%
D34*
%TO.P,R16,1*%
%TO.N,+3V3*%
X135100000Y-86300000D03*
%TO.P,R16,2*%
%TO.N,Net-(D8-A)*%
X133275000Y-86300000D03*
%TD*%
D16*
%TO.P,D5,1,K*%
%TO.N,GND*%
X187900000Y-112350000D03*
%TO.P,D5,2,A*%
%TO.N,Net-(D5-A)*%
X187900000Y-110300000D03*
%TD*%
D35*
%TO.P,JP1,1,A*%
%TO.N,/Power/Vs*%
X171900000Y-114900000D03*
D36*
%TO.P,JP1,2,B*%
%TO.N,Net-(JP1-B)*%
X171900000Y-113600000D03*
%TD*%
D37*
%TO.P,TP1,1,1*%
%TO.N,+5V*%
X163500000Y-130400000D03*
%TD*%
D17*
%TO.P,J13,1,Pin_1*%
%TO.N,GND*%
X111820000Y-109400000D03*
D18*
%TO.P,J13,2,Pin_2*%
%TO.N,/Pi + IMU/SDA*%
X114360000Y-109400000D03*
%TO.P,J13,3,Pin_3*%
%TO.N,/Pi + IMU/SCL*%
X116900000Y-109400000D03*
%TD*%
D38*
%TO.P,U2,1,GND*%
%TO.N,GND*%
X183330000Y-106600000D03*
%TO.P,U2,2,VOUT*%
%TO.N,/Power/5V_TOTAL*%
X183330000Y-107100000D03*
%TO.P,U2,3,VIN1*%
%TO.N,/Power/5V_BACKPLANE*%
X183330000Y-107600000D03*
%TO.P,U2,4,PR1*%
%TO.N,Net-(U2-PR1)*%
X183330000Y-108100000D03*
%TO.P,U2,5,MODE*%
%TO.N,/Power/5V_BACKPLANE*%
X184800000Y-108100000D03*
%TO.P,U2,6,VIN2*%
%TO.N,/Power/5V_WALL_IN*%
X184800000Y-107600000D03*
%TO.P,U2,7,VOUT__1*%
%TO.N,/Power/5V_TOTAL*%
X184800000Y-107100000D03*
%TO.P,U2,8,ST*%
%TO.N,Net-(U2-ST)*%
X184800000Y-106600000D03*
%TD*%
D39*
%TO.P,C14,1*%
%TO.N,GND*%
X153850000Y-88737500D03*
%TO.P,C14,2*%
%TO.N,+5V*%
X153850000Y-90462500D03*
%TD*%
D40*
%TO.P,C11,1*%
%TO.N,/Power/5V_TOTAL*%
X179925000Y-113500000D03*
%TO.P,C11,2*%
%TO.N,GND*%
X178200000Y-113500000D03*
%TD*%
D41*
%TO.P,R2,1*%
%TO.N,Net-(U6-BASE)*%
X144500000Y-107600000D03*
%TO.P,R2,2*%
%TO.N,+3V3*%
X144500000Y-105775000D03*
%TD*%
D37*
%TO.P,TP3,1,1*%
%TO.N,GND*%
X117550000Y-130800000D03*
%TD*%
D42*
%TO.P,D8,1,K*%
%TO.N,GND*%
X129350000Y-88100000D03*
%TO.P,D8,2,A*%
%TO.N,Net-(D8-A)*%
X131400000Y-88100000D03*
%TD*%
D14*
%TO.P,R5,1*%
%TO.N,/UART/B*%
X156200000Y-93487500D03*
%TO.P,R5,2*%
%TO.N,/UART/A*%
X156200000Y-95312500D03*
%TD*%
D43*
%TO.P,JP3,1,A*%
%TO.N,/Power/5V_TOTAL*%
X172800000Y-104800000D03*
D44*
%TO.P,JP3,2,B*%
%TO.N,+5V*%
X171500000Y-104800000D03*
%TD*%
D35*
%TO.P,JP2,1,A*%
%TO.N,/Power/Vs*%
X169000000Y-114900000D03*
D36*
%TO.P,JP2,2,B*%
%TO.N,Net-(JP2-B)*%
X169000000Y-113600000D03*
%TD*%
D19*
%TO.P,J24,1,1*%
%TO.N,/UART/B*%
X165200000Y-93300001D03*
D20*
%TO.P,J24,2,2*%
%TO.N,/UART/A*%
X165200000Y-96300000D03*
%TD*%
D17*
%TO.P,J20,1,Pin_1*%
%TO.N,+3V3*%
X123725000Y-82000000D03*
D18*
%TO.P,J20,2,Pin_2*%
%TO.N,GND*%
X126265000Y-82000000D03*
%TD*%
D40*
%TO.P,C13,1*%
%TO.N,+3V3*%
X136862500Y-88000000D03*
%TO.P,C13,2*%
%TO.N,GND*%
X135137500Y-88000000D03*
%TD*%
D12*
%TO.P,J4,1,1*%
%TO.N,/Sensors/PROBE*%
X129375000Y-120606298D03*
%TO.P,J4,2,2*%
%TO.N,GND*%
X128125000Y-120606298D03*
D13*
%TO.P,J4,3*%
%TO.N,N/C*%
X123800000Y-123956299D03*
%TO.P,J4,4*%
X128750000Y-123956299D03*
%TO.P,J4,5*%
X133700000Y-123956299D03*
%TD*%
D40*
%TO.P,C18,1*%
%TO.N,/Power/Vs*%
X176300000Y-113500000D03*
%TO.P,C18,2*%
%TO.N,GND*%
X174575000Y-113500000D03*
%TD*%
D45*
%TO.P,U5,1,RO*%
%TO.N,/Pi + IMU/RX*%
X148583800Y-92295000D03*
%TO.P,U5,2,RE*%
%TO.N,/Pi + IMU/BKP_EN*%
X148583800Y-93565000D03*
%TO.P,U5,3,DE*%
X148583800Y-94835000D03*
%TO.P,U5,4,DI*%
%TO.N,/Pi + IMU/TX*%
X148583800Y-96105000D03*
%TO.P,U5,5,GND*%
%TO.N,GND*%
X153816200Y-96105000D03*
%TO.P,U5,6,A*%
%TO.N,/UART/A*%
X153816200Y-94835000D03*
%TO.P,U5,7,B*%
%TO.N,/UART/B*%
X153816200Y-93565000D03*
%TO.P,U5,8,VCC*%
%TO.N,+5V*%
X153816200Y-92295000D03*
%TD*%
D11*
%TO.P,D4,1,K*%
%TO.N,GND*%
X187525000Y-128900000D03*
%TO.P,D4,2,A*%
%TO.N,Net-(D4-A)*%
X185475000Y-128900000D03*
%TD*%
D14*
%TO.P,R12,1*%
%TO.N,/Power/5V_WALL_IN*%
X183500000Y-124000000D03*
%TO.P,R12,2*%
%TO.N,Net-(D4-A)*%
X183500000Y-125825000D03*
%TD*%
D37*
%TO.P,TP2,1,1*%
%TO.N,+3V3*%
X123850000Y-130900000D03*
%TD*%
D39*
%TO.P,C9,1*%
%TO.N,+3V3_TB*%
X142300000Y-93900000D03*
%TO.P,C9,2*%
%TO.N,GND_TB*%
X142300000Y-95625000D03*
%TD*%
D34*
%TO.P,R1,1*%
%TO.N,/Sensors/PROBE*%
X144587500Y-109250000D03*
%TO.P,R1,2*%
%TO.N,Net-(U6-BASE)*%
X142762500Y-109250000D03*
%TD*%
D17*
%TO.P,J12,1,Pin_1*%
%TO.N,/Pi + IMU/SCLK*%
X190300000Y-96320000D03*
D18*
%TO.P,J12,2,Pin_2*%
%TO.N,/Pi + IMU/CE0*%
X190300000Y-93780000D03*
%TO.P,J12,3,Pin_3*%
%TO.N,/Pi + IMU/MISO*%
X190300000Y-91240000D03*
%TO.P,J12,4,Pin_4*%
%TO.N,/Pi + IMU/MOSI*%
X190300000Y-88700000D03*
%TO.P,J12,5,Pin_5*%
%TO.N,GND*%
X190300000Y-86160000D03*
%TD*%
D39*
%TO.P,C7,1*%
%TO.N,Net-(U7-VISOOUT)*%
X145500000Y-99100000D03*
%TO.P,C7,2*%
%TO.N,Net-(U7-GND2)*%
X145500000Y-100825000D03*
%TD*%
D46*
%TO.P,J7,1,1*%
%TO.N,+3V3*%
X115250000Y-119550000D03*
%TO.P,J7,2,2*%
%TO.N,/Pi + IMU/SCL*%
X115250000Y-118300000D03*
%TO.P,J7,3,3*%
%TO.N,/Pi + IMU/SDA*%
X115250000Y-117050000D03*
%TO.P,J7,4,4*%
%TO.N,GND*%
X115250000Y-115800000D03*
D47*
%TO.P,J7,MP*%
%TO.N,N/C*%
X111900000Y-121400000D03*
X111900000Y-113950000D03*
%TD*%
D39*
%TO.P,C4,1*%
%TO.N,Net-(U7-VISOOUT)*%
X139800000Y-99100000D03*
%TO.P,C4,2*%
%TO.N,Net-(U7-GND2)*%
X139800000Y-100825000D03*
%TD*%
D19*
%TO.P,J23,1,1*%
%TO.N,/Power/5V_BACKPLANE*%
X181899999Y-97700000D03*
D20*
%TO.P,J23,2,2*%
%TO.N,GND*%
X178900000Y-97700000D03*
%TO.P,J23,3,3*%
%TO.N,/Pi + IMU/NRST_PS*%
X175900001Y-97700000D03*
%TO.P,J23,4,4*%
%TO.N,/Pi + IMU/NRST_ESC*%
X181899999Y-94700001D03*
%TO.P,J23,5,5*%
%TO.N,/Pi + IMU/NRST_TB*%
X178900000Y-94700001D03*
%TO.P,J23,6,6*%
%TO.N,GND_TB*%
X175900001Y-94700001D03*
%TD*%
D39*
%TO.P,C8,1*%
%TO.N,+3V3_TB*%
X144600000Y-93900000D03*
%TO.P,C8,2*%
%TO.N,GND_TB*%
X144600000Y-95625000D03*
%TD*%
D41*
%TO.P,R10,1*%
%TO.N,+5V*%
X156200000Y-98825000D03*
%TO.P,R10,2*%
%TO.N,/UART/A*%
X156200000Y-97000000D03*
%TD*%
D40*
%TO.P,FB3,1*%
%TO.N,Net-(U7-GND2)*%
X137862500Y-101000000D03*
%TO.P,FB3,2*%
%TO.N,GND_TB*%
X136137500Y-101000000D03*
%TD*%
D46*
%TO.P,J11,1,1*%
%TO.N,+3V3*%
X115300000Y-93250000D03*
%TO.P,J11,2,2*%
%TO.N,/Pi + IMU/SCL*%
X115300000Y-92000000D03*
%TO.P,J11,3,3*%
%TO.N,/Pi + IMU/SDA*%
X115300000Y-90750000D03*
%TO.P,J11,4,4*%
%TO.N,GND*%
X115300000Y-89500000D03*
D47*
%TO.P,J11,MP*%
%TO.N,N/C*%
X111950000Y-95100000D03*
X111950000Y-87650000D03*
%TD*%
D34*
%TO.P,R4,1*%
%TO.N,/Pi + IMU/LEAK*%
X136312500Y-105200000D03*
%TO.P,R4,2*%
%TO.N,Net-(D1-A)*%
X134487500Y-105200000D03*
%TD*%
D10*
%TO.P,R14,1*%
%TO.N,/Power/5V_BACKPLANE*%
X178487500Y-103900000D03*
%TO.P,R14,2*%
%TO.N,Net-(D6-A)*%
X180312500Y-103900000D03*
%TD*%
D39*
%TO.P,C6,1*%
%TO.N,Net-(U7-VISOOUT)*%
X141900000Y-99137500D03*
%TO.P,C6,2*%
%TO.N,Net-(U7-GND2)*%
X141900000Y-100862500D03*
%TD*%
D40*
%TO.P,FB4,1*%
%TO.N,Net-(U7-VISOOUT)*%
X137862500Y-99000000D03*
%TO.P,FB4,2*%
%TO.N,+3V3_TB*%
X136137500Y-99000000D03*
%TD*%
D46*
%TO.P,J10,1,1*%
%TO.N,+3V3*%
X115250000Y-103650000D03*
%TO.P,J10,2,2*%
%TO.N,/Pi + IMU/SCL*%
X115250000Y-102400000D03*
%TO.P,J10,3,3*%
%TO.N,/Pi + IMU/SDA*%
X115250000Y-101150000D03*
%TO.P,J10,4,4*%
%TO.N,GND*%
X115250000Y-99900000D03*
D47*
%TO.P,J10,MP*%
%TO.N,N/C*%
X111900000Y-105500000D03*
X111900000Y-98050000D03*
%TD*%
D42*
%TO.P,D1,1,K*%
%TO.N,GND*%
X130675000Y-105200000D03*
%TO.P,D1,2,A*%
%TO.N,Net-(D1-A)*%
X132725000Y-105200000D03*
%TD*%
D12*
%TO.P,J2,1,1*%
%TO.N,/Sensors/PROBE*%
X129500000Y-111500000D03*
%TO.P,J2,2,2*%
%TO.N,GND*%
X128250000Y-111500000D03*
D13*
%TO.P,J2,3*%
%TO.N,N/C*%
X123925000Y-114850001D03*
%TO.P,J2,4*%
X128875000Y-114850001D03*
%TO.P,J2,5*%
X133825000Y-114850001D03*
%TD*%
D14*
%TO.P,R6,1*%
%TO.N,Net-(U2-ST)*%
X184485000Y-110337500D03*
%TO.P,R6,2*%
%TO.N,Net-(D2-A)*%
X184485000Y-112162500D03*
%TD*%
D48*
%TO.P,C15,1*%
%TO.N,+3V3*%
X157737500Y-90200000D03*
%TO.P,C15,2*%
%TO.N,GND*%
X159462500Y-90200000D03*
%TD*%
D14*
%TO.P,R13,1*%
%TO.N,/Power/5V_TOTAL*%
X187900000Y-106575000D03*
%TO.P,R13,2*%
%TO.N,Net-(D5-A)*%
X187900000Y-108400000D03*
%TD*%
D49*
%TO.P,U1,JP1_1,VIN*%
%TO.N,+3V3*%
X137500000Y-109100000D03*
%TO.P,U1,JP1_2,3VO*%
%TO.N,unconnected-(U1-3VO-PadJP1_2)*%
X137500000Y-111640000D03*
%TO.P,U1,JP1_3,GND*%
%TO.N,GND*%
X137500000Y-114180000D03*
%TO.P,U1,JP1_4,SCL*%
%TO.N,/Pi + IMU/SCL*%
X137500000Y-116720000D03*
%TO.P,U1,JP1_5,SDA*%
%TO.N,/Pi + IMU/SDA*%
X137500000Y-119260000D03*
%TO.P,U1,JP1_6,~{INT}*%
%TO.N,/Pi + IMU/IMU_INT_2*%
X137500000Y-121800000D03*
%TO.P,U1,JP2_1,BT*%
%TO.N,unconnected-(U1-BT-PadJP2_1)*%
X119720000Y-109100000D03*
%TO.P,U1,JP2_2,P0*%
%TO.N,unconnected-(U1-P0-PadJP2_2)*%
X119720000Y-111640000D03*
%TO.P,U1,JP2_3,P1*%
%TO.N,unconnected-(U1-P1-PadJP2_3)*%
X119720000Y-114180000D03*
%TO.P,U1,JP2_4,~{RST}*%
%TO.N,/Pi + IMU/IMU_RST_2*%
X119720000Y-116720000D03*
%TO.P,U1,JP2_5,DI*%
%TO.N,Net-(JP5-B)*%
X119720000Y-119260000D03*
%TO.P,U1,JP2_6,CS*%
%TO.N,unconnected-(U1-CS-PadJP2_6)*%
X119720000Y-121800000D03*
%TD*%
%TO.P,U10,JP1_1,VIN*%
%TO.N,+3V3*%
X161100000Y-112500000D03*
%TO.P,U10,JP1_2,3VO*%
%TO.N,unconnected-(U10-3VO-PadJP1_2)*%
X161100000Y-115040000D03*
%TO.P,U10,JP1_3,GND*%
%TO.N,GND*%
X161100000Y-117580000D03*
%TO.P,U10,JP1_4,SCL*%
%TO.N,/Pi + IMU/SCL*%
X161100000Y-120120000D03*
%TO.P,U10,JP1_5,SDA*%
%TO.N,/Pi + IMU/SDA*%
X161100000Y-122660000D03*
%TO.P,U10,JP1_6,~{INT}*%
%TO.N,/Pi + IMU/IMU_INT_1*%
X161100000Y-125200000D03*
%TO.P,U10,JP2_1,BT*%
%TO.N,unconnected-(U10-BT-PadJP2_1)*%
X143320000Y-112500000D03*
%TO.P,U10,JP2_2,P0*%
%TO.N,unconnected-(U10-P0-PadJP2_2)*%
X143320000Y-115040000D03*
%TO.P,U10,JP2_3,P1*%
%TO.N,unconnected-(U10-P1-PadJP2_3)*%
X143320000Y-117580000D03*
%TO.P,U10,JP2_4,~{RST}*%
%TO.N,/Pi + IMU/IMU_RST_1*%
X143320000Y-120120000D03*
%TO.P,U10,JP2_5,DI*%
%TO.N,unconnected-(U10-DI-PadJP2_5)*%
X143320000Y-122660000D03*
%TO.P,U10,JP2_6,CS*%
%TO.N,unconnected-(U10-CS-PadJP2_6)*%
X143320000Y-125200000D03*
%TD*%
D50*
%TO.N,Net-(U7-GND2)*%
X146475000Y-100825000D03*
%TO.N,Net-(U7-VISOOUT)*%
X146700000Y-99100000D03*
%TO.N,GND*%
X133500000Y-88000000D03*
X187900000Y-113500000D03*
X128100000Y-119100000D03*
X186300000Y-103900000D03*
X129400000Y-105200000D03*
X153400000Y-97400000D03*
X177400000Y-112571000D03*
X136400000Y-81400000D03*
X167750000Y-109850000D03*
X159200000Y-97000000D03*
X177000000Y-109800000D03*
X115700000Y-98000000D03*
X128000000Y-88100000D03*
X117300000Y-89500000D03*
X139162000Y-103162000D03*
X186260473Y-109800000D03*
X120050000Y-128300000D03*
X180950000Y-101750000D03*
X128200000Y-109800000D03*
X115900000Y-114300000D03*
X150300000Y-127500000D03*
X151525000Y-118525000D03*
X154700000Y-87500000D03*
X182300000Y-115700000D03*
X168500000Y-104300000D03*
X151000000Y-110200000D03*
X161500000Y-90625000D03*
%TO.N,+5V*%
X154600000Y-98400000D03*
X155100000Y-90900000D03*
X164100000Y-118100000D03*
X167259000Y-107841000D03*
X163600000Y-111500000D03*
X169600000Y-105000000D03*
X157000000Y-103200000D03*
%TO.N,GND_TB*%
X145700000Y-97600000D03*
%TO.N,+3V3*%
X123900000Y-116700000D03*
X126150000Y-128600000D03*
X116100000Y-105800000D03*
X144500000Y-104700000D03*
X116800000Y-93500000D03*
X116500000Y-120300000D03*
X155200000Y-128100000D03*
%TO.N,/Power/5V_TOTAL*%
X173000000Y-106300000D03*
X174800000Y-105000000D03*
X177000000Y-107800000D03*
X180400000Y-114800000D03*
X172600000Y-117400000D03*
%TO.N,/Power/5V_BACKPLANE*%
X186200000Y-108500000D03*
X179400000Y-105600000D03*
%TO.N,/Power/5V_WALL_IN*%
X186500000Y-111252000D03*
X186400000Y-107500000D03*
%TO.N,/Power/Vs*%
X170400000Y-112900000D03*
%TO.N,/Pi + IMU/LEAK*%
X124400000Y-92000000D03*
%TO.N,/Pi + IMU/MISO*%
X176200000Y-87000000D03*
%TO.N,/Pi + IMU/SCLK*%
X174600000Y-87800000D03*
X167400000Y-87800000D03*
%TO.N,Net-(JP1-B)*%
X176300000Y-109000000D03*
%TO.N,Net-(JP2-B)*%
X171600000Y-109790500D03*
%TO.N,Net-(U2-ST)*%
X184900000Y-105400000D03*
X184200000Y-109000000D03*
%TO.N,/Pi + IMU/ISO_FLT*%
X161200000Y-98600000D03*
%TO.N,Net-(U2-PR1)*%
X182800000Y-108900000D03*
%TO.N,/Pi + IMU/IMU_INT_2*%
X135800000Y-94600000D03*
%TO.N,/Pi + IMU/IMU_RST_2*%
X134600000Y-94600000D03*
%TO.N,/Pi + IMU/ALERT*%
X178800000Y-91200000D03*
%TO.N,/Pi + IMU/BKP_EN*%
X151400000Y-91200000D03*
X150400000Y-92800000D03*
%TO.N,/Pi + IMU/TB_EN*%
X177800000Y-93000000D03*
%TO.N,/Pi + IMU/TX_TB*%
X159500000Y-91900000D03*
X161400000Y-92000000D03*
X172400000Y-84800000D03*
%TO.N,/Pi + IMU/RX_TB*%
X178000000Y-90200000D03*
X161400000Y-92800000D03*
X159400000Y-92800000D03*
%TO.N,/Pi + IMU/IMU_RST_1*%
X151200000Y-102200000D03*
%TO.N,+3V3_TB*%
X143200000Y-97600000D03*
%TO.N,/UART/B*%
X152001062Y-94666421D03*
X152001062Y-97198938D03*
%TD*%
D51*
%TO.N,Net-(U7-GND2)*%
X141900000Y-100862500D02*
X145462500Y-100862500D01*
X145462500Y-100862500D02*
X145500000Y-100825000D01*
X141862500Y-100825000D02*
X141900000Y-100862500D01*
X139775000Y-100800000D02*
X138062500Y-100800000D01*
X138062500Y-100800000D02*
X137862500Y-101000000D01*
X139800000Y-100825000D02*
X141862500Y-100825000D01*
X145500000Y-100825000D02*
X146475000Y-100825000D01*
D52*
%TO.N,Net-(U7-VISOOUT)*%
X141937500Y-99100000D02*
X141900000Y-99137500D01*
X145500000Y-99100000D02*
X141937500Y-99100000D01*
D51*
X139700000Y-99000000D02*
X139800000Y-99100000D01*
X139800000Y-99100000D02*
X141862500Y-99100000D01*
X141862500Y-99100000D02*
X141900000Y-99137500D01*
D52*
X146700000Y-99100000D02*
X145500000Y-99100000D01*
D51*
X137862500Y-99000000D02*
X139700000Y-99000000D01*
%TO.N,GND*%
X184650000Y-103900000D02*
X183330000Y-105220000D01*
X153850000Y-88350000D02*
X154700000Y-87500000D01*
X128250000Y-109850000D02*
X128200000Y-109800000D01*
X115900000Y-114600000D02*
X115900000Y-114300000D01*
X183330000Y-105220000D02*
X183330000Y-106359000D01*
X115300000Y-115200000D02*
X115900000Y-114600000D01*
X187900000Y-112350000D02*
X187900000Y-113500000D01*
D53*
X117550000Y-130800000D02*
X120050000Y-128300000D01*
D52*
X174855500Y-112544500D02*
X177373500Y-112544500D01*
D51*
X150400000Y-127600000D02*
X150300000Y-127500000D01*
X115250000Y-115250000D02*
X115300000Y-115200000D01*
X137975000Y-103525000D02*
X138338000Y-103162000D01*
X187525000Y-126800000D02*
X187400000Y-126675000D01*
D52*
X178200000Y-113000000D02*
X178200000Y-113500000D01*
D51*
X153816200Y-96983800D02*
X153400000Y-97400000D01*
X153850000Y-88737500D02*
X153850000Y-88350000D01*
D53*
X186500000Y-123850000D02*
X186500000Y-124900000D01*
D52*
X174575000Y-112825000D02*
X174855500Y-112544500D01*
X177400000Y-112571000D02*
X177771000Y-112571000D01*
D51*
X130675000Y-105200000D02*
X129400000Y-105200000D01*
D53*
X186500000Y-118350000D02*
X186500000Y-117400000D01*
D51*
X186300000Y-103900000D02*
X184650000Y-103900000D01*
D54*
X159462500Y-90200000D02*
X161075000Y-90200000D01*
D51*
X115700000Y-98600000D02*
X115700000Y-98000000D01*
X151525000Y-120049999D02*
X151525000Y-118525000D01*
X115250000Y-99900000D02*
X115250000Y-99050000D01*
D52*
X177373500Y-112544500D02*
X177400000Y-112571000D01*
D51*
X135137500Y-88000000D02*
X133500000Y-88000000D01*
D54*
X161075000Y-90200000D02*
X161500000Y-90625000D01*
D51*
X163650000Y-116550000D02*
X162620000Y-117580000D01*
X138338000Y-103162000D02*
X139162000Y-103162000D01*
X128125000Y-119125000D02*
X128100000Y-119100000D01*
X179300000Y-116700000D02*
X178200000Y-115600000D01*
X137975000Y-104125000D02*
X137975000Y-103525000D01*
X150400000Y-128750000D02*
X150400000Y-127600000D01*
D53*
X187400000Y-116500000D02*
X187400000Y-115525000D01*
D51*
X158012500Y-91900000D02*
X158012500Y-91650000D01*
X115250000Y-99050000D02*
X115500000Y-98800000D01*
D53*
X186500000Y-117400000D02*
X187400000Y-116500000D01*
X186500000Y-124900000D02*
X187400000Y-125800000D01*
D51*
X115300000Y-89500000D02*
X117300000Y-89500000D01*
X129350000Y-88100000D02*
X128000000Y-88100000D01*
X182300000Y-115700000D02*
X181300000Y-116700000D01*
X115500000Y-98800000D02*
X115700000Y-98600000D01*
X115250000Y-115800000D02*
X115250000Y-115250000D01*
X165500000Y-116550000D02*
X163650000Y-116550000D01*
D52*
X174575000Y-113500000D02*
X174575000Y-112825000D01*
D51*
X178200000Y-115600000D02*
X178200000Y-113500000D01*
X182300000Y-114025000D02*
X182300000Y-115700000D01*
X151375000Y-111399999D02*
X151375000Y-110575000D01*
X187525000Y-128900000D02*
X187525000Y-126800000D01*
X162620000Y-117580000D02*
X161100000Y-117580000D01*
D53*
X187400000Y-125800000D02*
X187400000Y-126675000D01*
D51*
X151375000Y-110575000D02*
X151000000Y-110200000D01*
D52*
X177771000Y-112571000D02*
X178200000Y-113000000D01*
D51*
X153816200Y-96105000D02*
X153816200Y-96983800D01*
X181300000Y-116700000D02*
X179300000Y-116700000D01*
X158012500Y-91650000D02*
X159462500Y-90200000D01*
X128125000Y-120606298D02*
X128125000Y-119125000D01*
X128250000Y-111500000D02*
X128250000Y-109850000D01*
D52*
%TO.N,+5V*%
X156244500Y-98869500D02*
X156200000Y-98825000D01*
X157000000Y-103200000D02*
X156244500Y-102444500D01*
D51*
X166859000Y-107841000D02*
X167259000Y-107841000D01*
D52*
X155025000Y-98825000D02*
X154600000Y-98400000D01*
X156244500Y-102444500D02*
X156244500Y-98869500D01*
D51*
X153816200Y-90496300D02*
X153850000Y-90462500D01*
X138170000Y-82500000D02*
X140710000Y-82500000D01*
D55*
X153850000Y-90462500D02*
X154662500Y-90462500D01*
D51*
X153816200Y-92295000D02*
X153816200Y-90496300D01*
D52*
X156200000Y-98825000D02*
X155025000Y-98825000D01*
D55*
X154662500Y-90462500D02*
X155100000Y-90900000D01*
D51*
X166112500Y-110887500D02*
X166300000Y-110700000D01*
X164100000Y-118100000D02*
X165600000Y-119600000D01*
X165500000Y-110887500D02*
X166112500Y-110887500D01*
X169800000Y-104800000D02*
X169600000Y-105000000D01*
X171500000Y-104800000D02*
X169800000Y-104800000D01*
X164212500Y-110887500D02*
X163600000Y-111500000D01*
X166300000Y-110700000D02*
X166300000Y-108400000D01*
X165600000Y-128300000D02*
X163500000Y-130400000D01*
X165600000Y-119600000D02*
X165600000Y-128300000D01*
X165500000Y-110887500D02*
X164212500Y-110887500D01*
X166300000Y-108400000D02*
X166859000Y-107841000D01*
%TO.N,GND_TB*%
X136137500Y-101682100D02*
X136137500Y-101000000D01*
X147581000Y-101919000D02*
X146050000Y-103450000D01*
X167619000Y-103935077D02*
X168135077Y-103419000D01*
X168135077Y-103419000D02*
X171081000Y-103419000D01*
X146050000Y-103450000D02*
X151000000Y-108400000D01*
X144600000Y-96500000D02*
X145700000Y-97600000D01*
X145700000Y-97600000D02*
X147000000Y-97600000D01*
X174559001Y-96041001D02*
X175900001Y-94700001D01*
X144600000Y-95625000D02*
X142300000Y-95625000D01*
X174559001Y-99940999D02*
X174559001Y-96041001D01*
X147000000Y-97600000D02*
X147581000Y-98181000D01*
X144600000Y-95625000D02*
X144600000Y-96500000D01*
X160600000Y-105500000D02*
X162100000Y-104000000D01*
X144800000Y-102200000D02*
X146050000Y-103450000D01*
X167619000Y-104000000D02*
X167619000Y-103935077D01*
X136655400Y-102200000D02*
X144800000Y-102200000D01*
X147581000Y-98181000D02*
X147581000Y-101919000D01*
X136655400Y-102200000D02*
X136137500Y-101682100D01*
X162100000Y-104000000D02*
X167619000Y-104000000D01*
X160600000Y-107900000D02*
X160600000Y-105500000D01*
X160100000Y-108400000D02*
X160600000Y-107900000D01*
X151000000Y-108400000D02*
X160100000Y-108400000D01*
X171081000Y-103419000D02*
X174559001Y-99940999D01*
%TO.N,+3V3*%
X135460000Y-85040000D02*
X136000000Y-85040000D01*
X135100000Y-86300000D02*
X135100000Y-85400000D01*
X123850000Y-130900000D02*
X126150000Y-128600000D01*
X154800000Y-128100000D02*
X155200000Y-128100000D01*
X144427500Y-105847500D02*
X144500000Y-105775000D01*
X115300000Y-93250000D02*
X116550000Y-93250000D01*
X115250000Y-103650000D02*
X116100000Y-104500000D01*
X138170000Y-85040000D02*
X138170000Y-86692500D01*
X115250000Y-119550000D02*
X116000000Y-120300000D01*
X158490000Y-86510000D02*
X157737500Y-87262500D01*
X135100000Y-85400000D02*
X135460000Y-85040000D01*
X136000000Y-85040000D02*
X138170000Y-85040000D01*
X138170000Y-86692500D02*
X136862500Y-88000000D01*
X116550000Y-93250000D02*
X116800000Y-93500000D01*
X157737500Y-87262500D02*
X157737500Y-90200000D01*
X116100000Y-104500000D02*
X116100000Y-105800000D01*
X116000000Y-120300000D02*
X116500000Y-120300000D01*
X158490000Y-86510000D02*
X158490000Y-85040000D01*
X154150000Y-128750000D02*
X154800000Y-128100000D01*
X141853500Y-105847500D02*
X144427500Y-105847500D01*
X144500000Y-105775000D02*
X144500000Y-104700000D01*
D54*
%TO.N,/Power/5V_TOTAL*%
X184800000Y-107100000D02*
X185332000Y-107100000D01*
D51*
X179500000Y-108300000D02*
X179000000Y-107800000D01*
D54*
X182850000Y-107100000D02*
X181650000Y-108300000D01*
D51*
X179925000Y-110675000D02*
X180895000Y-109705000D01*
D54*
X183330000Y-107100000D02*
X184800000Y-107100000D01*
X182850000Y-107100000D02*
X183330000Y-107100000D01*
D51*
X179000000Y-107800000D02*
X177000000Y-107800000D01*
X179925000Y-113500000D02*
X179925000Y-110675000D01*
X174600000Y-104800000D02*
X174800000Y-105000000D01*
X174700000Y-116700000D02*
X173300000Y-116700000D01*
X173300000Y-116700000D02*
X172600000Y-117400000D01*
X179925000Y-114325000D02*
X180400000Y-114800000D01*
X179925000Y-113500000D02*
X179925000Y-114325000D01*
D54*
X185857000Y-106575000D02*
X187900000Y-106575000D01*
X185332000Y-107100000D02*
X185857000Y-106575000D01*
D51*
X180895000Y-109705000D02*
X180895000Y-108300000D01*
D55*
X173000000Y-105000000D02*
X172800000Y-104800000D01*
D51*
X180895000Y-108300000D02*
X179500000Y-108300000D01*
D54*
X181650000Y-108300000D02*
X180895000Y-108300000D01*
D55*
X173000000Y-106300000D02*
X173000000Y-105000000D01*
D51*
X172800000Y-104800000D02*
X174600000Y-104800000D01*
%TO.N,/Power/5V_BACKPLANE*%
X178487500Y-105087500D02*
X179000000Y-105600000D01*
X178487500Y-103900000D02*
X178487500Y-105087500D01*
X178487500Y-103900000D02*
X178487500Y-102612500D01*
X179000000Y-105600000D02*
X179400000Y-105600000D01*
D54*
X183330000Y-107600000D02*
X183800000Y-107600000D01*
X184800000Y-108100000D02*
X185800000Y-108100000D01*
D51*
X179400000Y-105600000D02*
X180000000Y-105600000D01*
D54*
X185800000Y-108100000D02*
X186200000Y-108500000D01*
X183800000Y-107600000D02*
X184300000Y-108100000D01*
X184300000Y-108100000D02*
X184800000Y-108100000D01*
D51*
X178487500Y-102612500D02*
X181899999Y-99200001D01*
X181899999Y-99200001D02*
X181899999Y-97700000D01*
X180895000Y-106495000D02*
X180895000Y-107000000D01*
X180000000Y-105600000D02*
X180895000Y-106495000D01*
%TO.N,/Power/5V_WALL_IN*%
X187260000Y-122620000D02*
X186500000Y-122620000D01*
X187960000Y-121920000D02*
X187260000Y-122620000D01*
D54*
X184800000Y-107600000D02*
X186300000Y-107600000D01*
D51*
X183500000Y-121268000D02*
X183500000Y-124000000D01*
X187960000Y-119998000D02*
X187960000Y-121920000D01*
X184912000Y-114808000D02*
X184912000Y-118874000D01*
X186500000Y-111252000D02*
X186500000Y-113220000D01*
D54*
X186300000Y-107600000D02*
X186400000Y-107500000D01*
D51*
X186500000Y-119580000D02*
X185188000Y-119580000D01*
X186500000Y-119580000D02*
X187542000Y-119580000D01*
X184912000Y-118874000D02*
X185618000Y-119580000D01*
X185188000Y-119580000D02*
X183500000Y-121268000D01*
X186500000Y-113220000D02*
X184912000Y-114808000D01*
X185618000Y-119580000D02*
X186500000Y-119580000D01*
X187542000Y-119580000D02*
X187960000Y-119998000D01*
%TO.N,/Power/Vs*%
X177000000Y-116700000D02*
X177000000Y-122900000D01*
X170400000Y-114278731D02*
X170400000Y-112900000D01*
X176300000Y-113500000D02*
X176300000Y-114324000D01*
X169778731Y-114900000D02*
X170400000Y-114278731D01*
X171900000Y-114900000D02*
X175676000Y-114900000D01*
X175676000Y-114900000D02*
X176300000Y-114276000D01*
X169000000Y-114900000D02*
X171900000Y-114900000D01*
X177000000Y-115024000D02*
X177000000Y-116700000D01*
X169000000Y-114900000D02*
X169778731Y-114900000D01*
X176300000Y-114276000D02*
X176300000Y-113500000D01*
X176300000Y-114324000D02*
X177000000Y-115024000D01*
D52*
%TO.N,Net-(D1-A)*%
X134487500Y-105200000D02*
X132725000Y-105200000D01*
D51*
%TO.N,Net-(D2-A)*%
X182300000Y-111975000D02*
X184297500Y-111975000D01*
X184297500Y-111975000D02*
X184485000Y-112162500D01*
%TO.N,Net-(D4-A)*%
X183500000Y-128100000D02*
X184300000Y-128900000D01*
X183500000Y-125825000D02*
X183500000Y-128100000D01*
X184300000Y-128900000D02*
X185475000Y-128900000D01*
D52*
%TO.N,Net-(D5-A)*%
X187900000Y-108400000D02*
X187900000Y-110300000D01*
%TO.N,Net-(D6-A)*%
X180312500Y-103900000D02*
X182600000Y-103900000D01*
D51*
%TO.N,Net-(D7-A)*%
X165500000Y-114500000D02*
X165500000Y-112712500D01*
%TO.N,Net-(D8-A)*%
X132000000Y-86300000D02*
X133275000Y-86300000D01*
X131400000Y-88100000D02*
X131400000Y-86900000D01*
X131400000Y-86900000D02*
X132000000Y-86300000D01*
D56*
%TO.N,/Pi + IMU/SDA*%
X114047600Y-101502401D02*
X114400001Y-101150000D01*
X114047600Y-116697599D02*
X114047600Y-109712400D01*
X116502400Y-94802400D02*
X115900000Y-94200000D01*
X138628326Y-90750000D02*
X115300000Y-90750000D01*
X115250000Y-117050000D02*
X114400001Y-117050000D01*
X151249999Y-130000000D02*
X151650000Y-129599999D01*
X115250000Y-101150000D02*
X116099999Y-101150000D01*
X137500000Y-119260000D02*
X141700000Y-123460000D01*
X130500000Y-124433896D02*
X130500000Y-125100000D01*
X116099999Y-101150000D02*
X116502400Y-100747599D01*
X116502400Y-100747599D02*
X116502400Y-94802400D01*
X152002401Y-129952400D02*
X151650000Y-129599999D01*
X130500000Y-125100000D02*
X130000000Y-125600000D01*
X161100000Y-122660000D02*
X161100000Y-123364658D01*
X114400000Y-94200000D02*
X113600000Y-93400000D01*
X141700000Y-125900000D02*
X145800000Y-130000000D01*
X145800000Y-130000000D02*
X151249999Y-130000000D01*
X130000000Y-125600000D02*
X119735342Y-125600000D01*
X140710000Y-88668326D02*
X138628326Y-90750000D01*
X114450000Y-90750000D02*
X115300000Y-90750000D01*
X114400001Y-101150000D02*
X115250000Y-101150000D01*
X114047600Y-117352400D02*
X114350000Y-117050000D01*
X114400001Y-117050000D02*
X114047600Y-116697599D01*
X114047600Y-119912258D02*
X114047600Y-117352400D01*
X114047600Y-109712400D02*
X114360000Y-109400000D01*
X119735342Y-125600000D02*
X114047600Y-119912258D01*
X151650000Y-129599999D02*
X151650000Y-128750000D01*
X161100000Y-123364658D02*
X154512258Y-129952400D01*
X114047600Y-109087600D02*
X114047600Y-101502401D01*
X154512258Y-129952400D02*
X152002401Y-129952400D01*
X141700000Y-123460000D02*
X141700000Y-125900000D01*
X140710000Y-85040000D02*
X140710000Y-88668326D01*
X115900000Y-94200000D02*
X114400000Y-94200000D01*
X114360000Y-109400000D02*
X114047600Y-109087600D01*
X113600000Y-93400000D02*
X113600000Y-91600000D01*
X135673896Y-119260000D02*
X130500000Y-124433896D01*
X114350000Y-117050000D02*
X115250000Y-117050000D01*
X113600000Y-91600000D02*
X114450000Y-90750000D01*
X137500000Y-119260000D02*
X135673896Y-119260000D01*
%TO.N,/Pi + IMU/SCL*%
X153274619Y-127225381D02*
X152900000Y-127600000D01*
X116500000Y-92000000D02*
X115300000Y-92000000D01*
X116900000Y-109400000D02*
X116900000Y-103200001D01*
X117007200Y-101492799D02*
X117007200Y-94607200D01*
X159500000Y-121720000D02*
X159500000Y-124250762D01*
X141214800Y-86485200D02*
X141500000Y-86200000D01*
X142198600Y-121418600D02*
X143834205Y-121418600D01*
X115300000Y-92000000D02*
X116454800Y-92000000D01*
X161100000Y-120120000D02*
X159500000Y-121720000D01*
X131263801Y-122956199D02*
X137500000Y-116720000D01*
X126302401Y-120558600D02*
X128700000Y-122956199D01*
X145300000Y-123754200D02*
X145945900Y-124400100D01*
X137500000Y-116720000D02*
X142198600Y-121418600D01*
X116400000Y-118300000D02*
X116900000Y-117800000D01*
X152900000Y-127600000D02*
X152900000Y-128750000D01*
X149600100Y-124400100D02*
X152900000Y-127700000D01*
X145300000Y-122884395D02*
X145300000Y-123754200D01*
X115250000Y-118300000D02*
X116400000Y-118300000D01*
X117000000Y-94600000D02*
X117800000Y-93800000D01*
X116900000Y-117800000D02*
X116900000Y-109400000D01*
X128700000Y-122956199D02*
X131263801Y-122956199D01*
X141214800Y-88877422D02*
X141214800Y-86485200D01*
X116099999Y-102400000D02*
X117007200Y-101492799D01*
X116900000Y-103200001D02*
X116099999Y-102400000D01*
X117007200Y-94607200D02*
X117000000Y-94600000D01*
X152900000Y-127700000D02*
X152900000Y-128750000D01*
X116454800Y-92000000D02*
X117200000Y-91254800D01*
X142090000Y-86200000D02*
X143250000Y-85040000D01*
X117200000Y-91254800D02*
X138837422Y-91254800D01*
X141500000Y-86200000D02*
X142090000Y-86200000D01*
X117800000Y-93300000D02*
X116500000Y-92000000D01*
X138837422Y-91254800D02*
X141214800Y-88877422D01*
X145945900Y-124400100D02*
X149600100Y-124400100D01*
X115250000Y-118300000D02*
X117000000Y-118300000D01*
X116099999Y-102400000D02*
X115250000Y-102400000D01*
X119258600Y-120558600D02*
X126302401Y-120558600D01*
X117800000Y-93800000D02*
X117800000Y-93300000D01*
X117000000Y-118300000D02*
X119258600Y-120558600D01*
X156525381Y-127225381D02*
X153274619Y-127225381D01*
X143834205Y-121418600D02*
X145300000Y-122884395D01*
X159500000Y-124250762D02*
X156525381Y-127225381D01*
D52*
%TO.N,/Sensors/PROBE*%
X143900000Y-110700000D02*
X144587500Y-110012500D01*
X152625000Y-110025000D02*
X152625000Y-111399999D01*
X129500000Y-111500000D02*
X129500000Y-112700000D01*
X130400000Y-118400000D02*
X129375000Y-119425000D01*
X153400000Y-118000000D02*
X152775000Y-118625000D01*
X141400000Y-110700000D02*
X143900000Y-110700000D01*
X152625000Y-112725000D02*
X153400000Y-113500000D01*
X153400000Y-113500000D02*
X153400000Y-118000000D01*
X152775000Y-118625000D02*
X152775000Y-120049999D01*
X144587500Y-110012500D02*
X144587500Y-109250000D01*
X137800000Y-107100000D02*
X141400000Y-110700000D01*
X129500000Y-111500000D02*
X133900000Y-107100000D01*
X129375000Y-119425000D02*
X129375000Y-120606298D01*
X130400000Y-113600000D02*
X130400000Y-118400000D01*
X129500000Y-112700000D02*
X130400000Y-113600000D01*
X151850000Y-109250000D02*
X152625000Y-110025000D01*
X152625000Y-111399999D02*
X152625000Y-112725000D01*
X144587500Y-109250000D02*
X151850000Y-109250000D01*
X133900000Y-107100000D02*
X137800000Y-107100000D01*
D56*
%TO.N,/Pi + IMU/LEAK*%
X118000000Y-80400000D02*
X118000000Y-82000000D01*
D52*
X136312500Y-105200000D02*
X136312500Y-105712500D01*
D56*
X139600000Y-79000000D02*
X139472400Y-78872400D01*
D52*
X139550000Y-105950000D02*
X137975000Y-105950000D01*
D56*
X155950000Y-80750000D02*
X154200000Y-79000000D01*
D52*
X139821500Y-106221500D02*
X139550000Y-105950000D01*
X139821500Y-106800000D02*
X139821500Y-106221500D01*
D56*
X154200000Y-79000000D02*
X139600000Y-79000000D01*
D52*
X136550000Y-105950000D02*
X137975000Y-105950000D01*
D56*
X134538816Y-101400000D02*
X136312500Y-103173684D01*
X136312500Y-103173684D02*
X136312500Y-105200000D01*
X119527600Y-78872400D02*
X118000000Y-80400000D01*
X155950000Y-82500000D02*
X155950000Y-80750000D01*
X124400000Y-100800000D02*
X125000000Y-101400000D01*
D52*
X136312500Y-105712500D02*
X136550000Y-105950000D01*
D56*
X125000000Y-101400000D02*
X134538816Y-101400000D01*
X139472400Y-78872400D02*
X119527600Y-78872400D01*
X124400000Y-92000000D02*
X124400000Y-100800000D01*
D54*
%TO.N,/Pi + IMU/MISO*%
X165530000Y-87000000D02*
X163570000Y-85040000D01*
X176200000Y-87000000D02*
X165530000Y-87000000D01*
%TO.N,/Pi + IMU/SCLK*%
X174600000Y-87800000D02*
X167400000Y-87800000D01*
D55*
%TO.N,/Pi + IMU/RX*%
X150200000Y-85890987D02*
X149794500Y-85485487D01*
X150200000Y-91900000D02*
X150200000Y-85890987D01*
X149794500Y-85485487D02*
X149794500Y-83964500D01*
X148583800Y-92295000D02*
X149805000Y-92295000D01*
X149794500Y-83964500D02*
X148330000Y-82500000D01*
X149805000Y-92295000D02*
X150200000Y-91900000D01*
%TO.N,/Pi + IMU/TX*%
X145790000Y-82500000D02*
X146865500Y-83575500D01*
X146865500Y-83575500D02*
X146865500Y-95665500D01*
X146865500Y-95665500D02*
X147305000Y-96105000D01*
X147305000Y-96105000D02*
X148583800Y-96105000D01*
%TO.N,/Pi + IMU/NRST_TB*%
X178900000Y-94700001D02*
X185354500Y-88245501D01*
X185354500Y-88245501D02*
X185354500Y-83575500D01*
X185354500Y-83575500D02*
X186430000Y-82500000D01*
%TO.N,/Pi + IMU/NRST_PS*%
X177050501Y-85820501D02*
X176270000Y-85040000D01*
X177050501Y-96549500D02*
X177050501Y-85820501D01*
X175900001Y-97700000D02*
X177050501Y-96549500D01*
%TO.N,Net-(JP1-B)*%
X176000000Y-111900000D02*
X176300000Y-111600000D01*
X172600000Y-111900000D02*
X176000000Y-111900000D01*
X171900000Y-113600000D02*
X171900000Y-112600000D01*
X171900000Y-112600000D02*
X172600000Y-111900000D01*
X176300000Y-111600000D02*
X176300000Y-109000000D01*
%TO.N,Net-(JP2-B)*%
X171600000Y-109790500D02*
X171509500Y-109790500D01*
X169000000Y-113000000D02*
X169000000Y-113600000D01*
X170800000Y-112100000D02*
X169900000Y-112100000D01*
X171100000Y-111800000D02*
X170800000Y-112100000D01*
X171100000Y-110200000D02*
X171100000Y-111800000D01*
X169900000Y-112100000D02*
X169000000Y-113000000D01*
X171509500Y-109790500D02*
X171100000Y-110200000D01*
D52*
%TO.N,Net-(U6-BASE)*%
X141853500Y-108853500D02*
X142250000Y-109250000D01*
X142250000Y-109250000D02*
X142762500Y-109250000D01*
X141853500Y-107752500D02*
X144347500Y-107752500D01*
X141853500Y-107752500D02*
X141853500Y-108853500D01*
X144347500Y-107752500D02*
X144500000Y-107600000D01*
D54*
%TO.N,Net-(U2-ST)*%
X184485000Y-109285000D02*
X184485000Y-110337500D01*
D52*
X184900000Y-105400000D02*
X184900000Y-106486000D01*
X184900000Y-106486000D02*
X184800000Y-106486000D01*
D54*
X184485000Y-109285000D02*
X184200000Y-109000000D01*
D56*
%TO.N,/Pi + IMU/ISO_FLT*%
X166600000Y-92000000D02*
X166600000Y-97000000D01*
X160800000Y-86400000D02*
X162200000Y-86400000D01*
X162400000Y-89200000D02*
X163200000Y-90000000D01*
X165000000Y-98600000D02*
X161200000Y-98600000D01*
X159992600Y-84002600D02*
X159992600Y-85592600D01*
X162400000Y-86600000D02*
X162400000Y-89200000D01*
X165000000Y-98600000D02*
X166600000Y-97000000D01*
X164600000Y-90000000D02*
X166600000Y-92000000D01*
X159992600Y-85592600D02*
X160800000Y-86400000D01*
X163200000Y-90000000D02*
X164600000Y-90000000D01*
X162200000Y-86400000D02*
X162400000Y-86600000D01*
X158490000Y-82500000D02*
X159992600Y-84002600D01*
D54*
%TO.N,Net-(U2-PR1)*%
X182800000Y-108900000D02*
X183200000Y-108900000D01*
X183200000Y-108900000D02*
X183330000Y-108770000D01*
X183330000Y-108770000D02*
X183330000Y-108100000D01*
D56*
%TO.N,/Pi + IMU/IMU_INT_2*%
X142895200Y-87104800D02*
X144693936Y-87104800D01*
X135800000Y-94600000D02*
X135800000Y-92800000D01*
X135800000Y-92800000D02*
X136335600Y-92264400D01*
X139255614Y-92264400D02*
X142400000Y-89120014D01*
X144693936Y-87104800D02*
X145790000Y-86008736D01*
X142400000Y-87600000D02*
X142895200Y-87104800D01*
X145790000Y-86008736D02*
X145790000Y-85040000D01*
X142400000Y-89120014D02*
X142400000Y-87600000D01*
X136335600Y-92264400D02*
X139255614Y-92264400D01*
%TO.N,/Pi + IMU/IMU_RST_2*%
X154800000Y-81957694D02*
X154800000Y-83890000D01*
X145000000Y-80800000D02*
X153642306Y-80800000D01*
X134600000Y-92600000D02*
X135440400Y-91759600D01*
X144600000Y-85622306D02*
X144600000Y-81200000D01*
X135440400Y-91759600D02*
X139046518Y-91759600D01*
X143622306Y-86600000D02*
X144600000Y-85622306D01*
X142600000Y-86600000D02*
X143622306Y-86600000D01*
X153642306Y-80800000D02*
X154800000Y-81957694D01*
X141800000Y-89006118D02*
X141800000Y-87400000D01*
X154800000Y-83890000D02*
X155950000Y-85040000D01*
X144600000Y-81200000D02*
X145000000Y-80800000D01*
X134600000Y-94600000D02*
X134600000Y-92600000D01*
X142600000Y-86600000D02*
X141800000Y-87400000D01*
X139046518Y-91759600D02*
X141800000Y-89006118D01*
%TO.N,/Pi + IMU/ALERT*%
X178800000Y-91200000D02*
X180312600Y-89687400D01*
X180312600Y-89687400D02*
X180312600Y-83537400D01*
X180312600Y-83537400D02*
X181350000Y-82500000D01*
%TO.N,/Pi + IMU/BKP_EN*%
X152170000Y-83800000D02*
X154000000Y-83800000D01*
X154295200Y-84095200D02*
X154295200Y-84099096D01*
X150870000Y-82500000D02*
X152170000Y-83800000D01*
X151400000Y-89762816D02*
X151400000Y-91200000D01*
X154590905Y-86571911D02*
X151400000Y-89762816D01*
X154295200Y-84099096D02*
X154590905Y-84394800D01*
X154590905Y-84394800D02*
X154590905Y-86571911D01*
X148583800Y-93565000D02*
X149635000Y-93565000D01*
X149635000Y-93565000D02*
X150400000Y-92800000D01*
X148583800Y-94835000D02*
X148583800Y-93565000D01*
X154000000Y-83800000D02*
X154295200Y-84095200D01*
%TO.N,/Pi + IMU/TB_EN*%
X182600000Y-88400000D02*
X183400000Y-89200000D01*
X183000000Y-83390000D02*
X183000000Y-83400000D01*
X183400000Y-89200000D02*
X183400000Y-89432225D01*
X182600000Y-84600000D02*
X182600000Y-88400000D01*
X182800000Y-83600000D02*
X182800000Y-84400000D01*
X179832225Y-93000000D02*
X183400000Y-89432225D01*
X183890000Y-82500000D02*
X183000000Y-83390000D01*
X182800000Y-84400000D02*
X182600000Y-84600000D01*
X177800000Y-93000000D02*
X179832225Y-93000000D01*
X183000000Y-83400000D02*
X182800000Y-83600000D01*
%TO.N,/Pi + IMU/TX_TB*%
X159500000Y-91900000D02*
X159600000Y-92000000D01*
X173000000Y-81200000D02*
X174970000Y-81200000D01*
X172400000Y-81800000D02*
X173000000Y-81200000D01*
X172400000Y-84800000D02*
X172400000Y-81800000D01*
X159600000Y-92000000D02*
X161400000Y-92000000D01*
X174970000Y-81200000D02*
X176270000Y-82500000D01*
%TO.N,/Pi + IMU/RX_TB*%
X178810000Y-85040000D02*
X179600000Y-85830000D01*
X179600000Y-88600000D02*
X178000000Y-90200000D01*
X179600000Y-85830000D02*
X179600000Y-88600000D01*
X161400000Y-92800000D02*
X159400000Y-92800000D01*
%TO.N,/Pi + IMU/IMU_RST_1*%
X150747600Y-93375033D02*
X151052400Y-93070233D01*
X151052400Y-93070233D02*
X151052400Y-92529767D01*
X151200000Y-102200000D02*
X152200000Y-101200000D01*
X152200000Y-100600000D02*
X150747600Y-99147600D01*
X150747600Y-87702400D02*
X153410000Y-85040000D01*
X150747600Y-92224967D02*
X150747600Y-87702400D01*
X150747600Y-99147600D02*
X150747600Y-93375033D01*
X152200000Y-101200000D02*
X152200000Y-100600000D01*
X151052400Y-92529767D02*
X150747600Y-92224967D01*
D51*
%TO.N,+3V3_TB*%
X140900000Y-95050000D02*
X142050000Y-93900000D01*
X143200000Y-97600000D02*
X141900000Y-97600000D01*
X142050000Y-93900000D02*
X142300000Y-93900000D01*
X142300000Y-93900000D02*
X144600000Y-93900000D01*
X140900000Y-96600000D02*
X140900000Y-95050000D01*
X136137500Y-99000000D02*
X136137500Y-97354300D01*
X139591800Y-93900000D02*
X142300000Y-93900000D01*
X141900000Y-97600000D02*
X140900000Y-96600000D01*
X136137500Y-97354300D02*
X139591800Y-93900000D01*
D55*
%TO.N,/UART/A*%
X153816200Y-94835000D02*
X155722500Y-94835000D01*
X161249501Y-97350499D02*
X158140000Y-100460000D01*
X162604210Y-96300000D02*
X162593711Y-96289501D01*
X157700000Y-94700000D02*
X157719000Y-94681000D01*
X156787500Y-95312500D02*
X157400000Y-94700000D01*
X158140000Y-100460000D02*
X158140000Y-106000000D01*
X153816200Y-94835000D02*
X152865000Y-94835000D01*
X161249501Y-96846291D02*
X161249501Y-97350499D01*
X156200000Y-95312500D02*
X156200000Y-97000000D01*
X165200000Y-96300000D02*
X162604210Y-96300000D01*
X157400000Y-94700000D02*
X157700000Y-94700000D01*
X162500000Y-94700000D02*
X164100000Y-96300000D01*
X155722500Y-94835000D02*
X156200000Y-95312500D01*
X157719000Y-94681000D02*
X162500000Y-94681000D01*
X156200000Y-95312500D02*
X156787500Y-95312500D01*
X162500000Y-94681000D02*
X162500000Y-94700000D01*
X164100000Y-96300000D02*
X165200000Y-96300000D01*
X161806291Y-96289501D02*
X161249501Y-96846291D01*
X162593711Y-96289501D02*
X161806291Y-96289501D01*
%TO.N,/UART/B*%
X156187500Y-93475000D02*
X156200000Y-93487500D01*
X152001062Y-97601062D02*
X152001062Y-97198938D01*
X152835000Y-93565000D02*
X152000000Y-94400000D01*
X156187500Y-91900000D02*
X156187500Y-93475000D01*
X156122500Y-93565000D02*
X156200000Y-93487500D01*
X156200000Y-93487500D02*
X156787500Y-93487500D01*
X156787500Y-93487500D02*
X157400000Y-94100000D01*
X152000000Y-94400000D02*
X152000000Y-94600000D01*
X153816200Y-93565000D02*
X156122500Y-93565000D01*
X164099999Y-93300001D02*
X165200000Y-93300001D01*
X155600000Y-106000000D02*
X155600000Y-101200000D01*
X163300000Y-94100000D02*
X164099999Y-93300001D01*
X157400000Y-94100000D02*
X163300000Y-94100000D01*
X153816200Y-93565000D02*
X152835000Y-93565000D01*
X155600000Y-101200000D02*
X152001062Y-97601062D01*
%TD*%
%TA.AperFunction,Conductor*%
%TO.N,GND*%
G36*
X162312352Y-95145685D02*
G01*
X162332994Y-95162319D01*
X162563681Y-95393006D01*
X162597166Y-95454329D01*
X162600000Y-95480687D01*
X162600000Y-95720501D01*
X162580315Y-95787540D01*
X162527511Y-95833295D01*
X162476000Y-95844501D01*
X161747704Y-95844501D01*
X161708522Y-95854999D01*
X161708523Y-95855000D01*
X161634525Y-95874827D01*
X161634524Y-95874828D01*
X161533058Y-95933410D01*
X161533052Y-95933414D01*
X160893414Y-96573052D01*
X160893410Y-96573058D01*
X160834828Y-96674524D01*
X160834827Y-96674527D01*
X160804501Y-96787706D01*
X160804501Y-97114812D01*
X160784816Y-97181851D01*
X160768182Y-97202493D01*
X158606994Y-99363681D01*
X158545671Y-99397166D01*
X158519313Y-99400000D01*
X157019983Y-99400000D01*
X156952944Y-99380315D01*
X156907189Y-99327511D01*
X156897245Y-99258353D01*
X156903802Y-99232665D01*
X156923199Y-99180660D01*
X156923199Y-99180659D01*
X156923200Y-99180657D01*
X156926685Y-99148234D01*
X156929499Y-99122073D01*
X156929499Y-99122066D01*
X156929500Y-99122057D01*
X156929499Y-98527944D01*
X156923200Y-98469343D01*
X156897336Y-98400000D01*
X156873760Y-98336790D01*
X156873759Y-98336789D01*
X156873758Y-98336785D01*
X156788974Y-98223526D01*
X156675715Y-98138742D01*
X156613785Y-98115643D01*
X156543159Y-98089300D01*
X156484565Y-98083000D01*
X155915446Y-98083000D01*
X155915437Y-98083001D01*
X155856840Y-98089300D01*
X155724290Y-98138739D01*
X155724281Y-98138744D01*
X155611025Y-98223526D01*
X155578624Y-98266810D01*
X155522691Y-98308682D01*
X155479357Y-98316500D01*
X155286989Y-98316500D01*
X155219950Y-98296815D01*
X155199308Y-98280181D01*
X155133523Y-98214396D01*
X155106644Y-98174171D01*
X155084355Y-98120358D01*
X154995474Y-98004526D01*
X154995472Y-98004525D01*
X154995472Y-98004524D01*
X154930330Y-97954539D01*
X154879643Y-97915645D01*
X154879640Y-97915644D01*
X154879638Y-97915642D01*
X154744757Y-97859773D01*
X154744752Y-97859771D01*
X154600001Y-97840715D01*
X154599999Y-97840715D01*
X154455247Y-97859771D01*
X154455245Y-97859772D01*
X154320361Y-97915643D01*
X154320358Y-97915644D01*
X154320358Y-97915645D01*
X154204526Y-98004526D01*
X154119262Y-98115645D01*
X154115643Y-98120361D01*
X154059772Y-98255245D01*
X154059771Y-98255247D01*
X154040715Y-98399998D01*
X154040715Y-98400001D01*
X154059771Y-98544752D01*
X154059773Y-98544757D01*
X154115642Y-98679638D01*
X154115645Y-98679644D01*
X154204525Y-98795473D01*
X154204526Y-98795474D01*
X154320355Y-98884354D01*
X154320361Y-98884357D01*
X154374167Y-98906644D01*
X154414396Y-98933524D01*
X154618099Y-99137226D01*
X154669192Y-99188319D01*
X154702677Y-99249642D01*
X154697693Y-99319334D01*
X154655821Y-99375267D01*
X154590357Y-99399684D01*
X154581511Y-99400000D01*
X154480687Y-99400000D01*
X154413648Y-99380315D01*
X154393006Y-99363681D01*
X152550590Y-97521265D01*
X152517105Y-97459942D01*
X152522089Y-97390250D01*
X152523700Y-97386154D01*
X152541290Y-97343692D01*
X152560347Y-97198938D01*
X152558097Y-97181851D01*
X152540737Y-97049985D01*
X152551503Y-96980950D01*
X152597883Y-96928694D01*
X152663676Y-96909800D01*
X153566200Y-96909800D01*
X153566200Y-95979000D01*
X153585885Y-95911961D01*
X153638689Y-95866206D01*
X153690200Y-95855000D01*
X155435913Y-95855000D01*
X155464600Y-95839335D01*
X155534291Y-95844317D01*
X155590223Y-95886185D01*
X155611026Y-95913974D01*
X155705312Y-95984555D01*
X155747181Y-96040486D01*
X155755000Y-96083820D01*
X155755000Y-96228678D01*
X155735315Y-96295717D01*
X155705311Y-96327945D01*
X155613317Y-96396811D01*
X155547852Y-96421228D01*
X155479579Y-96406376D01*
X155451325Y-96385225D01*
X155421100Y-96355000D01*
X154066200Y-96355000D01*
X154066200Y-96909800D01*
X154968928Y-96909800D01*
X154968944Y-96909799D01*
X155028472Y-96903398D01*
X155028479Y-96903396D01*
X155163186Y-96853154D01*
X155163189Y-96853152D01*
X155272188Y-96771555D01*
X155337652Y-96747137D01*
X155405925Y-96761988D01*
X155455331Y-96811393D01*
X155470500Y-96870821D01*
X155470500Y-97297053D01*
X155470501Y-97297062D01*
X155476800Y-97355659D01*
X155526239Y-97488209D01*
X155526241Y-97488213D01*
X155526242Y-97488215D01*
X155611026Y-97601474D01*
X155724285Y-97686258D01*
X155827598Y-97724792D01*
X155845842Y-97731597D01*
X155856843Y-97735700D01*
X155915443Y-97742000D01*
X156484556Y-97741999D01*
X156543157Y-97735700D01*
X156675715Y-97686258D01*
X156788974Y-97601474D01*
X156873758Y-97488215D01*
X156923200Y-97355657D01*
X156926685Y-97323234D01*
X156929499Y-97297073D01*
X156929499Y-97297062D01*
X156929500Y-97297057D01*
X156929499Y-96702944D01*
X156923200Y-96644343D01*
X156873758Y-96511785D01*
X156843799Y-96471764D01*
X156788975Y-96398527D01*
X156694689Y-96327945D01*
X156652818Y-96272011D01*
X156645000Y-96228678D01*
X156645000Y-96083820D01*
X156664685Y-96016781D01*
X156694685Y-95984557D01*
X156788974Y-95913974D01*
X156873758Y-95800715D01*
X156873760Y-95800707D01*
X156878009Y-95792929D01*
X156880102Y-95794072D01*
X156914252Y-95748438D01*
X156956488Y-95727917D01*
X156959264Y-95727174D01*
X157060736Y-95668589D01*
X157143589Y-95585736D01*
X157143588Y-95585736D01*
X157202148Y-95527176D01*
X157548008Y-95181316D01*
X157609330Y-95147834D01*
X157635688Y-95145000D01*
X157758584Y-95145000D01*
X157758586Y-95145000D01*
X157806621Y-95132128D01*
X157813727Y-95130225D01*
X157845820Y-95126000D01*
X162245313Y-95126000D01*
X162312352Y-95145685D01*
G37*
%TD.AperFunction*%
%TA.AperFunction,Conductor*%
G36*
X162042042Y-89419685D02*
G01*
X162068616Y-89444131D01*
X162068652Y-89444096D01*
X162069504Y-89444948D01*
X162073376Y-89448510D01*
X162074398Y-89449842D01*
X162563681Y-89939125D01*
X162597166Y-90000448D01*
X162600000Y-90026806D01*
X162600000Y-93531000D01*
X162580315Y-93598039D01*
X162527511Y-93643794D01*
X162476000Y-93655000D01*
X157635688Y-93655000D01*
X157568649Y-93635315D01*
X157548007Y-93618681D01*
X157060738Y-93131413D01*
X157060737Y-93131412D01*
X157060736Y-93131411D01*
X156998135Y-93095268D01*
X156959263Y-93072825D01*
X156956484Y-93072081D01*
X156954403Y-93070812D01*
X156951760Y-93069718D01*
X156951930Y-93069305D01*
X156896824Y-93035715D01*
X156879027Y-93006514D01*
X156878009Y-93007071D01*
X156873759Y-92999289D01*
X156873758Y-92999285D01*
X156858940Y-92979490D01*
X156788975Y-92886027D01*
X156774243Y-92874999D01*
X156682189Y-92806088D01*
X156640318Y-92750154D01*
X156632500Y-92706821D01*
X156632500Y-92668177D01*
X156652185Y-92601138D01*
X156682184Y-92568915D01*
X156788974Y-92488974D01*
X156863688Y-92389166D01*
X156919618Y-92347299D01*
X156989309Y-92342314D01*
X157050633Y-92375798D01*
X157080658Y-92424476D01*
X157089546Y-92451300D01*
X157089551Y-92451311D01*
X157180052Y-92598034D01*
X157180055Y-92598038D01*
X157301961Y-92719944D01*
X157301965Y-92719947D01*
X157448688Y-92810448D01*
X157448699Y-92810453D01*
X157612347Y-92864680D01*
X157713351Y-92874999D01*
X157762499Y-92874998D01*
X157762500Y-92874998D01*
X157762500Y-91774000D01*
X157782185Y-91706961D01*
X157834989Y-91661206D01*
X157886500Y-91650000D01*
X158138500Y-91650000D01*
X158205539Y-91669685D01*
X158251294Y-91722489D01*
X158262500Y-91774000D01*
X158262500Y-92874999D01*
X158311640Y-92874999D01*
X158311654Y-92874998D01*
X158412652Y-92864680D01*
X158576300Y-92810453D01*
X158576307Y-92810450D01*
X158659094Y-92759386D01*
X158726487Y-92740945D01*
X158793150Y-92761867D01*
X158837920Y-92815509D01*
X158847131Y-92848738D01*
X158859772Y-92944753D01*
X158859773Y-92944757D01*
X158915642Y-93079638D01*
X158915645Y-93079644D01*
X159004525Y-93195473D01*
X159004526Y-93195474D01*
X159120355Y-93284354D01*
X159120361Y-93284357D01*
X159187801Y-93312291D01*
X159255246Y-93340228D01*
X159327623Y-93349756D01*
X159399999Y-93359285D01*
X159400000Y-93359285D01*
X159400001Y-93359285D01*
X159469061Y-93350193D01*
X159544754Y-93340228D01*
X159679643Y-93284355D01*
X159747188Y-93232524D01*
X159812357Y-93207330D01*
X159822675Y-93206900D01*
X160977325Y-93206900D01*
X161044364Y-93226585D01*
X161052808Y-93232522D01*
X161072513Y-93247642D01*
X161120355Y-93284354D01*
X161120361Y-93284357D01*
X161187801Y-93312291D01*
X161255246Y-93340228D01*
X161327623Y-93349756D01*
X161399999Y-93359285D01*
X161400000Y-93359285D01*
X161400001Y-93359285D01*
X161469061Y-93350193D01*
X161544754Y-93340228D01*
X161679643Y-93284355D01*
X161795474Y-93195474D01*
X161884355Y-93079643D01*
X161940228Y-92944754D01*
X161958484Y-92806088D01*
X161959285Y-92800001D01*
X161959285Y-92799998D01*
X161940228Y-92655247D01*
X161940228Y-92655246D01*
X161884355Y-92520358D01*
X161884354Y-92520356D01*
X161849924Y-92475487D01*
X161824729Y-92410318D01*
X161838767Y-92341873D01*
X161849916Y-92324524D01*
X161884355Y-92279643D01*
X161940228Y-92144754D01*
X161959285Y-92000000D01*
X161940228Y-91855246D01*
X161884355Y-91720358D01*
X161795474Y-91604526D01*
X161679643Y-91515645D01*
X161679640Y-91515644D01*
X161679638Y-91515642D01*
X161544757Y-91459773D01*
X161544752Y-91459771D01*
X161400001Y-91440715D01*
X161399999Y-91440715D01*
X161255247Y-91459771D01*
X161255245Y-91459772D01*
X161120360Y-91515643D01*
X161120357Y-91515645D01*
X161052810Y-91567476D01*
X160987641Y-91592670D01*
X160977324Y-91593100D01*
X160024589Y-91593100D01*
X159957550Y-91573415D01*
X159926215Y-91544589D01*
X159895474Y-91504526D01*
X159895472Y-91504525D01*
X159895472Y-91504524D01*
X159860349Y-91477574D01*
X159779643Y-91415645D01*
X159779639Y-91415643D01*
X159773799Y-91413224D01*
X159719396Y-91369383D01*
X159697331Y-91303089D01*
X159714610Y-91235389D01*
X159765748Y-91187779D01*
X159808651Y-91175305D01*
X159912651Y-91164681D01*
X160076300Y-91110453D01*
X160076311Y-91110448D01*
X160223034Y-91019947D01*
X160223038Y-91019944D01*
X160344944Y-90898038D01*
X160344947Y-90898034D01*
X160435448Y-90751311D01*
X160435453Y-90751300D01*
X160489680Y-90587652D01*
X160499999Y-90486654D01*
X160500000Y-90486641D01*
X160500000Y-90450000D01*
X159336500Y-90450000D01*
X159269461Y-90430315D01*
X159223706Y-90377511D01*
X159212500Y-90326000D01*
X159212500Y-90074000D01*
X159232185Y-90006961D01*
X159284989Y-89961206D01*
X159336500Y-89950000D01*
X160499999Y-89950000D01*
X160499999Y-89913360D01*
X160499998Y-89913345D01*
X160489680Y-89812347D01*
X160435453Y-89648699D01*
X160435450Y-89648692D01*
X160398691Y-89589098D01*
X160380250Y-89521706D01*
X160401172Y-89455042D01*
X160454813Y-89410272D01*
X160504229Y-89400000D01*
X161975003Y-89400000D01*
X162042042Y-89419685D01*
G37*
%TD.AperFunction*%
%TD*%
M02*
