%TF.GenerationSoftware,KiCad,Pcbnew,8.0.4*%
%TF.CreationDate,2025-01-10T13:29:33-08:00*%
%TF.ProjectId,X17_Pi_Shield,5831375f-5069-45f5-9368-69656c642e6b,rev?*%
%TF.SameCoordinates,Original*%
%TF.FileFunction,Drillmap*%
%TF.FilePolarity,Positive*%
%FSLAX45Y45*%
G04 Gerber Fmt 4.5, Leading zero omitted, Abs format (unit mm)*
G04 Created by KiCad (PCBNEW 8.0.4) date 2025-01-10 13:29:33*
%MOMM*%
%LPD*%
G01*
G04 APERTURE LIST*
%ADD10C,0.200000*%
%ADD11C,0.102000*%
%ADD12C,0.270000*%
G04 APERTURE END LIST*
D10*
X19468000Y-9842000D02*
X19468000Y-8122000D01*
X10968000Y-8122000D02*
G75*
G02*
X11268000Y-7822000I300000J0D01*
G01*
X11268000Y-13422000D02*
G75*
G02*
X10968000Y-13122000I0J300000D01*
G01*
X18928000Y-11387000D02*
X19468000Y-11387000D01*
X19468000Y-9842000D02*
X18928000Y-9842000D01*
X19168000Y-7822000D02*
G75*
G02*
X19468000Y-8122000I0J-300000D01*
G01*
X11268000Y-13422000D02*
X19168000Y-13422000D01*
X19468000Y-13122000D02*
G75*
G02*
X19168000Y-13422000I-300000J0D01*
G01*
X18928000Y-9842000D02*
X18928000Y-11387000D01*
X19468000Y-11387000D02*
X19468000Y-13122000D01*
X11268000Y-7822000D02*
X19168000Y-7822000D01*
X10968000Y-8122000D02*
X10968000Y-13122000D01*
D11*
X12609000Y-9673000D02*
X12711000Y-9775000D01*
X12711000Y-9673000D02*
X12609000Y-9775000D01*
X13208999Y-9673000D02*
X13310999Y-9775000D01*
X13310999Y-9673000D02*
X13208999Y-9775000D01*
X16169000Y-9673000D02*
X16271000Y-9775000D01*
X16271000Y-9673000D02*
X16169000Y-9775000D01*
X16768999Y-9673000D02*
X16870999Y-9775000D01*
X16870999Y-9673000D02*
X16768999Y-9775000D01*
X17239002Y-9325000D02*
X17341002Y-9427000D01*
X17341002Y-9325000D02*
X17239002Y-9427000D01*
X18439000Y-9325000D02*
X18541000Y-9427000D01*
X18541000Y-9325000D02*
X18439000Y-9427000D01*
D12*
X13453000Y-8172000D02*
G75*
G02*
X13183000Y-8172000I-135000J0D01*
G01*
X13183000Y-8172000D02*
G75*
G02*
X13453000Y-8172000I135000J0D01*
G01*
X13453000Y-13072000D02*
G75*
G02*
X13183000Y-13072000I-135000J0D01*
G01*
X13183000Y-13072000D02*
G75*
G02*
X13453000Y-13072000I135000J0D01*
G01*
X19253000Y-8172000D02*
G75*
G02*
X18983000Y-8172000I-135000J0D01*
G01*
X18983000Y-8172000D02*
G75*
G02*
X19253000Y-8172000I135000J0D01*
G01*
X19253000Y-13072000D02*
G75*
G02*
X18983000Y-13072000I-135000J0D01*
G01*
X18983000Y-13072000D02*
G75*
G02*
X19253000Y-13072000I135000J0D01*
G01*
D10*
X11218777Y-13743484D02*
X11218777Y-13543484D01*
X11218777Y-13543484D02*
X11266396Y-13543484D01*
X11266396Y-13543484D02*
X11294967Y-13553008D01*
X11294967Y-13553008D02*
X11314015Y-13572055D01*
X11314015Y-13572055D02*
X11323539Y-13591103D01*
X11323539Y-13591103D02*
X11333062Y-13629198D01*
X11333062Y-13629198D02*
X11333062Y-13657769D01*
X11333062Y-13657769D02*
X11323539Y-13695865D01*
X11323539Y-13695865D02*
X11314015Y-13714912D01*
X11314015Y-13714912D02*
X11294967Y-13733960D01*
X11294967Y-13733960D02*
X11266396Y-13743484D01*
X11266396Y-13743484D02*
X11218777Y-13743484D01*
X11418777Y-13743484D02*
X11418777Y-13610150D01*
X11418777Y-13648246D02*
X11428301Y-13629198D01*
X11428301Y-13629198D02*
X11437824Y-13619674D01*
X11437824Y-13619674D02*
X11456872Y-13610150D01*
X11456872Y-13610150D02*
X11475920Y-13610150D01*
X11542586Y-13743484D02*
X11542586Y-13610150D01*
X11542586Y-13543484D02*
X11533062Y-13553008D01*
X11533062Y-13553008D02*
X11542586Y-13562531D01*
X11542586Y-13562531D02*
X11552110Y-13553008D01*
X11552110Y-13553008D02*
X11542586Y-13543484D01*
X11542586Y-13543484D02*
X11542586Y-13562531D01*
X11666396Y-13743484D02*
X11647348Y-13733960D01*
X11647348Y-13733960D02*
X11637824Y-13714912D01*
X11637824Y-13714912D02*
X11637824Y-13543484D01*
X11771158Y-13743484D02*
X11752110Y-13733960D01*
X11752110Y-13733960D02*
X11742586Y-13714912D01*
X11742586Y-13714912D02*
X11742586Y-13543484D01*
X11999729Y-13743484D02*
X11999729Y-13543484D01*
X11999729Y-13543484D02*
X12066396Y-13686341D01*
X12066396Y-13686341D02*
X12133062Y-13543484D01*
X12133062Y-13543484D02*
X12133062Y-13743484D01*
X12314015Y-13743484D02*
X12314015Y-13638722D01*
X12314015Y-13638722D02*
X12304491Y-13619674D01*
X12304491Y-13619674D02*
X12285443Y-13610150D01*
X12285443Y-13610150D02*
X12247348Y-13610150D01*
X12247348Y-13610150D02*
X12228301Y-13619674D01*
X12314015Y-13733960D02*
X12294967Y-13743484D01*
X12294967Y-13743484D02*
X12247348Y-13743484D01*
X12247348Y-13743484D02*
X12228301Y-13733960D01*
X12228301Y-13733960D02*
X12218777Y-13714912D01*
X12218777Y-13714912D02*
X12218777Y-13695865D01*
X12218777Y-13695865D02*
X12228301Y-13676817D01*
X12228301Y-13676817D02*
X12247348Y-13667293D01*
X12247348Y-13667293D02*
X12294967Y-13667293D01*
X12294967Y-13667293D02*
X12314015Y-13657769D01*
X12409253Y-13610150D02*
X12409253Y-13810150D01*
X12409253Y-13619674D02*
X12428301Y-13610150D01*
X12428301Y-13610150D02*
X12466396Y-13610150D01*
X12466396Y-13610150D02*
X12485443Y-13619674D01*
X12485443Y-13619674D02*
X12494967Y-13629198D01*
X12494967Y-13629198D02*
X12504491Y-13648246D01*
X12504491Y-13648246D02*
X12504491Y-13705388D01*
X12504491Y-13705388D02*
X12494967Y-13724436D01*
X12494967Y-13724436D02*
X12485443Y-13733960D01*
X12485443Y-13733960D02*
X12466396Y-13743484D01*
X12466396Y-13743484D02*
X12428301Y-13743484D01*
X12428301Y-13743484D02*
X12409253Y-13733960D01*
X12590205Y-13724436D02*
X12599729Y-13733960D01*
X12599729Y-13733960D02*
X12590205Y-13743484D01*
X12590205Y-13743484D02*
X12580682Y-13733960D01*
X12580682Y-13733960D02*
X12590205Y-13724436D01*
X12590205Y-13724436D02*
X12590205Y-13743484D01*
X12590205Y-13619674D02*
X12599729Y-13629198D01*
X12599729Y-13629198D02*
X12590205Y-13638722D01*
X12590205Y-13638722D02*
X12580682Y-13629198D01*
X12580682Y-13629198D02*
X12590205Y-13619674D01*
X12590205Y-13619674D02*
X12590205Y-13638722D01*
D11*
X10856000Y-14021000D02*
X10958000Y-14123000D01*
X10958000Y-14021000D02*
X10856000Y-14123000D01*
D10*
X11323539Y-14163484D02*
X11209253Y-14163484D01*
X11266396Y-14163484D02*
X11266396Y-13963484D01*
X11266396Y-13963484D02*
X11247348Y-13992055D01*
X11247348Y-13992055D02*
X11228301Y-14011103D01*
X11228301Y-14011103D02*
X11209253Y-14020627D01*
X11409253Y-14144436D02*
X11418777Y-14153960D01*
X11418777Y-14153960D02*
X11409253Y-14163484D01*
X11409253Y-14163484D02*
X11399729Y-14153960D01*
X11399729Y-14153960D02*
X11409253Y-14144436D01*
X11409253Y-14144436D02*
X11409253Y-14163484D01*
X11542586Y-13963484D02*
X11561634Y-13963484D01*
X11561634Y-13963484D02*
X11580682Y-13973008D01*
X11580682Y-13973008D02*
X11590205Y-13982531D01*
X11590205Y-13982531D02*
X11599729Y-14001579D01*
X11599729Y-14001579D02*
X11609253Y-14039674D01*
X11609253Y-14039674D02*
X11609253Y-14087293D01*
X11609253Y-14087293D02*
X11599729Y-14125388D01*
X11599729Y-14125388D02*
X11590205Y-14144436D01*
X11590205Y-14144436D02*
X11580682Y-14153960D01*
X11580682Y-14153960D02*
X11561634Y-14163484D01*
X11561634Y-14163484D02*
X11542586Y-14163484D01*
X11542586Y-14163484D02*
X11523539Y-14153960D01*
X11523539Y-14153960D02*
X11514015Y-14144436D01*
X11514015Y-14144436D02*
X11504491Y-14125388D01*
X11504491Y-14125388D02*
X11494967Y-14087293D01*
X11494967Y-14087293D02*
X11494967Y-14039674D01*
X11494967Y-14039674D02*
X11504491Y-14001579D01*
X11504491Y-14001579D02*
X11514015Y-13982531D01*
X11514015Y-13982531D02*
X11523539Y-13973008D01*
X11523539Y-13973008D02*
X11542586Y-13963484D01*
X11685443Y-13982531D02*
X11694967Y-13973008D01*
X11694967Y-13973008D02*
X11714015Y-13963484D01*
X11714015Y-13963484D02*
X11761634Y-13963484D01*
X11761634Y-13963484D02*
X11780682Y-13973008D01*
X11780682Y-13973008D02*
X11790205Y-13982531D01*
X11790205Y-13982531D02*
X11799729Y-14001579D01*
X11799729Y-14001579D02*
X11799729Y-14020627D01*
X11799729Y-14020627D02*
X11790205Y-14049198D01*
X11790205Y-14049198D02*
X11675920Y-14163484D01*
X11675920Y-14163484D02*
X11799729Y-14163484D01*
X11923539Y-13963484D02*
X11942586Y-13963484D01*
X11942586Y-13963484D02*
X11961634Y-13973008D01*
X11961634Y-13973008D02*
X11971158Y-13982531D01*
X11971158Y-13982531D02*
X11980682Y-14001579D01*
X11980682Y-14001579D02*
X11990205Y-14039674D01*
X11990205Y-14039674D02*
X11990205Y-14087293D01*
X11990205Y-14087293D02*
X11980682Y-14125388D01*
X11980682Y-14125388D02*
X11971158Y-14144436D01*
X11971158Y-14144436D02*
X11961634Y-14153960D01*
X11961634Y-14153960D02*
X11942586Y-14163484D01*
X11942586Y-14163484D02*
X11923539Y-14163484D01*
X11923539Y-14163484D02*
X11904491Y-14153960D01*
X11904491Y-14153960D02*
X11894967Y-14144436D01*
X11894967Y-14144436D02*
X11885443Y-14125388D01*
X11885443Y-14125388D02*
X11875920Y-14087293D01*
X11875920Y-14087293D02*
X11875920Y-14039674D01*
X11875920Y-14039674D02*
X11885443Y-14001579D01*
X11885443Y-14001579D02*
X11894967Y-13982531D01*
X11894967Y-13982531D02*
X11904491Y-13973008D01*
X11904491Y-13973008D02*
X11923539Y-13963484D01*
X12075920Y-14163484D02*
X12075920Y-14030150D01*
X12075920Y-14049198D02*
X12085443Y-14039674D01*
X12085443Y-14039674D02*
X12104491Y-14030150D01*
X12104491Y-14030150D02*
X12133063Y-14030150D01*
X12133063Y-14030150D02*
X12152110Y-14039674D01*
X12152110Y-14039674D02*
X12161634Y-14058722D01*
X12161634Y-14058722D02*
X12161634Y-14163484D01*
X12161634Y-14058722D02*
X12171158Y-14039674D01*
X12171158Y-14039674D02*
X12190205Y-14030150D01*
X12190205Y-14030150D02*
X12218777Y-14030150D01*
X12218777Y-14030150D02*
X12237824Y-14039674D01*
X12237824Y-14039674D02*
X12247348Y-14058722D01*
X12247348Y-14058722D02*
X12247348Y-14163484D01*
X12342586Y-14163484D02*
X12342586Y-14030150D01*
X12342586Y-14049198D02*
X12352110Y-14039674D01*
X12352110Y-14039674D02*
X12371158Y-14030150D01*
X12371158Y-14030150D02*
X12399729Y-14030150D01*
X12399729Y-14030150D02*
X12418777Y-14039674D01*
X12418777Y-14039674D02*
X12428301Y-14058722D01*
X12428301Y-14058722D02*
X12428301Y-14163484D01*
X12428301Y-14058722D02*
X12437824Y-14039674D01*
X12437824Y-14039674D02*
X12456872Y-14030150D01*
X12456872Y-14030150D02*
X12485443Y-14030150D01*
X12485443Y-14030150D02*
X12504491Y-14039674D01*
X12504491Y-14039674D02*
X12514015Y-14058722D01*
X12514015Y-14058722D02*
X12514015Y-14163484D01*
X12904491Y-13953960D02*
X12733063Y-14211103D01*
X13161634Y-13963484D02*
X13180682Y-13963484D01*
X13180682Y-13963484D02*
X13199729Y-13973008D01*
X13199729Y-13973008D02*
X13209253Y-13982531D01*
X13209253Y-13982531D02*
X13218777Y-14001579D01*
X13218777Y-14001579D02*
X13228301Y-14039674D01*
X13228301Y-14039674D02*
X13228301Y-14087293D01*
X13228301Y-14087293D02*
X13218777Y-14125388D01*
X13218777Y-14125388D02*
X13209253Y-14144436D01*
X13209253Y-14144436D02*
X13199729Y-14153960D01*
X13199729Y-14153960D02*
X13180682Y-14163484D01*
X13180682Y-14163484D02*
X13161634Y-14163484D01*
X13161634Y-14163484D02*
X13142586Y-14153960D01*
X13142586Y-14153960D02*
X13133063Y-14144436D01*
X13133063Y-14144436D02*
X13123539Y-14125388D01*
X13123539Y-14125388D02*
X13114015Y-14087293D01*
X13114015Y-14087293D02*
X13114015Y-14039674D01*
X13114015Y-14039674D02*
X13123539Y-14001579D01*
X13123539Y-14001579D02*
X13133063Y-13982531D01*
X13133063Y-13982531D02*
X13142586Y-13973008D01*
X13142586Y-13973008D02*
X13161634Y-13963484D01*
X13314015Y-14144436D02*
X13323539Y-14153960D01*
X13323539Y-14153960D02*
X13314015Y-14163484D01*
X13314015Y-14163484D02*
X13304491Y-14153960D01*
X13304491Y-14153960D02*
X13314015Y-14144436D01*
X13314015Y-14144436D02*
X13314015Y-14163484D01*
X13447348Y-13963484D02*
X13466396Y-13963484D01*
X13466396Y-13963484D02*
X13485444Y-13973008D01*
X13485444Y-13973008D02*
X13494967Y-13982531D01*
X13494967Y-13982531D02*
X13504491Y-14001579D01*
X13504491Y-14001579D02*
X13514015Y-14039674D01*
X13514015Y-14039674D02*
X13514015Y-14087293D01*
X13514015Y-14087293D02*
X13504491Y-14125388D01*
X13504491Y-14125388D02*
X13494967Y-14144436D01*
X13494967Y-14144436D02*
X13485444Y-14153960D01*
X13485444Y-14153960D02*
X13466396Y-14163484D01*
X13466396Y-14163484D02*
X13447348Y-14163484D01*
X13447348Y-14163484D02*
X13428301Y-14153960D01*
X13428301Y-14153960D02*
X13418777Y-14144436D01*
X13418777Y-14144436D02*
X13409253Y-14125388D01*
X13409253Y-14125388D02*
X13399729Y-14087293D01*
X13399729Y-14087293D02*
X13399729Y-14039674D01*
X13399729Y-14039674D02*
X13409253Y-14001579D01*
X13409253Y-14001579D02*
X13418777Y-13982531D01*
X13418777Y-13982531D02*
X13428301Y-13973008D01*
X13428301Y-13973008D02*
X13447348Y-13963484D01*
X13685444Y-14030150D02*
X13685444Y-14163484D01*
X13637825Y-13953960D02*
X13590206Y-14096817D01*
X13590206Y-14096817D02*
X13714015Y-14096817D01*
X13828301Y-13963484D02*
X13847348Y-13963484D01*
X13847348Y-13963484D02*
X13866396Y-13973008D01*
X13866396Y-13973008D02*
X13875920Y-13982531D01*
X13875920Y-13982531D02*
X13885444Y-14001579D01*
X13885444Y-14001579D02*
X13894967Y-14039674D01*
X13894967Y-14039674D02*
X13894967Y-14087293D01*
X13894967Y-14087293D02*
X13885444Y-14125388D01*
X13885444Y-14125388D02*
X13875920Y-14144436D01*
X13875920Y-14144436D02*
X13866396Y-14153960D01*
X13866396Y-14153960D02*
X13847348Y-14163484D01*
X13847348Y-14163484D02*
X13828301Y-14163484D01*
X13828301Y-14163484D02*
X13809253Y-14153960D01*
X13809253Y-14153960D02*
X13799729Y-14144436D01*
X13799729Y-14144436D02*
X13790206Y-14125388D01*
X13790206Y-14125388D02*
X13780682Y-14087293D01*
X13780682Y-14087293D02*
X13780682Y-14039674D01*
X13780682Y-14039674D02*
X13790206Y-14001579D01*
X13790206Y-14001579D02*
X13799729Y-13982531D01*
X13799729Y-13982531D02*
X13809253Y-13973008D01*
X13809253Y-13973008D02*
X13828301Y-13963484D01*
X13971158Y-13982531D02*
X13980682Y-13973008D01*
X13980682Y-13973008D02*
X13999729Y-13963484D01*
X13999729Y-13963484D02*
X14047348Y-13963484D01*
X14047348Y-13963484D02*
X14066396Y-13973008D01*
X14066396Y-13973008D02*
X14075920Y-13982531D01*
X14075920Y-13982531D02*
X14085444Y-14001579D01*
X14085444Y-14001579D02*
X14085444Y-14020627D01*
X14085444Y-14020627D02*
X14075920Y-14049198D01*
X14075920Y-14049198D02*
X13961634Y-14163484D01*
X13961634Y-14163484D02*
X14085444Y-14163484D01*
X14161634Y-13963484D02*
X14161634Y-14001579D01*
X14237825Y-13963484D02*
X14237825Y-14001579D01*
X14533063Y-14239674D02*
X14523539Y-14230150D01*
X14523539Y-14230150D02*
X14504491Y-14201579D01*
X14504491Y-14201579D02*
X14494968Y-14182531D01*
X14494968Y-14182531D02*
X14485444Y-14153960D01*
X14485444Y-14153960D02*
X14475920Y-14106341D01*
X14475920Y-14106341D02*
X14475920Y-14068246D01*
X14475920Y-14068246D02*
X14485444Y-14020627D01*
X14485444Y-14020627D02*
X14494968Y-13992055D01*
X14494968Y-13992055D02*
X14504491Y-13973008D01*
X14504491Y-13973008D02*
X14523539Y-13944436D01*
X14523539Y-13944436D02*
X14533063Y-13934912D01*
X14694968Y-13963484D02*
X14656872Y-13963484D01*
X14656872Y-13963484D02*
X14637825Y-13973008D01*
X14637825Y-13973008D02*
X14628301Y-13982531D01*
X14628301Y-13982531D02*
X14609253Y-14011103D01*
X14609253Y-14011103D02*
X14599729Y-14049198D01*
X14599729Y-14049198D02*
X14599729Y-14125388D01*
X14599729Y-14125388D02*
X14609253Y-14144436D01*
X14609253Y-14144436D02*
X14618777Y-14153960D01*
X14618777Y-14153960D02*
X14637825Y-14163484D01*
X14637825Y-14163484D02*
X14675920Y-14163484D01*
X14675920Y-14163484D02*
X14694968Y-14153960D01*
X14694968Y-14153960D02*
X14704491Y-14144436D01*
X14704491Y-14144436D02*
X14714015Y-14125388D01*
X14714015Y-14125388D02*
X14714015Y-14077769D01*
X14714015Y-14077769D02*
X14704491Y-14058722D01*
X14704491Y-14058722D02*
X14694968Y-14049198D01*
X14694968Y-14049198D02*
X14675920Y-14039674D01*
X14675920Y-14039674D02*
X14637825Y-14039674D01*
X14637825Y-14039674D02*
X14618777Y-14049198D01*
X14618777Y-14049198D02*
X14609253Y-14058722D01*
X14609253Y-14058722D02*
X14599729Y-14077769D01*
X14952110Y-14163484D02*
X14952110Y-13963484D01*
X15037825Y-14163484D02*
X15037825Y-14058722D01*
X15037825Y-14058722D02*
X15028301Y-14039674D01*
X15028301Y-14039674D02*
X15009253Y-14030150D01*
X15009253Y-14030150D02*
X14980682Y-14030150D01*
X14980682Y-14030150D02*
X14961634Y-14039674D01*
X14961634Y-14039674D02*
X14952110Y-14049198D01*
X15161634Y-14163484D02*
X15142587Y-14153960D01*
X15142587Y-14153960D02*
X15133063Y-14144436D01*
X15133063Y-14144436D02*
X15123539Y-14125388D01*
X15123539Y-14125388D02*
X15123539Y-14068246D01*
X15123539Y-14068246D02*
X15133063Y-14049198D01*
X15133063Y-14049198D02*
X15142587Y-14039674D01*
X15142587Y-14039674D02*
X15161634Y-14030150D01*
X15161634Y-14030150D02*
X15190206Y-14030150D01*
X15190206Y-14030150D02*
X15209253Y-14039674D01*
X15209253Y-14039674D02*
X15218777Y-14049198D01*
X15218777Y-14049198D02*
X15228301Y-14068246D01*
X15228301Y-14068246D02*
X15228301Y-14125388D01*
X15228301Y-14125388D02*
X15218777Y-14144436D01*
X15218777Y-14144436D02*
X15209253Y-14153960D01*
X15209253Y-14153960D02*
X15190206Y-14163484D01*
X15190206Y-14163484D02*
X15161634Y-14163484D01*
X15342587Y-14163484D02*
X15323539Y-14153960D01*
X15323539Y-14153960D02*
X15314015Y-14134912D01*
X15314015Y-14134912D02*
X15314015Y-13963484D01*
X15494968Y-14153960D02*
X15475920Y-14163484D01*
X15475920Y-14163484D02*
X15437825Y-14163484D01*
X15437825Y-14163484D02*
X15418777Y-14153960D01*
X15418777Y-14153960D02*
X15409253Y-14134912D01*
X15409253Y-14134912D02*
X15409253Y-14058722D01*
X15409253Y-14058722D02*
X15418777Y-14039674D01*
X15418777Y-14039674D02*
X15437825Y-14030150D01*
X15437825Y-14030150D02*
X15475920Y-14030150D01*
X15475920Y-14030150D02*
X15494968Y-14039674D01*
X15494968Y-14039674D02*
X15504491Y-14058722D01*
X15504491Y-14058722D02*
X15504491Y-14077769D01*
X15504491Y-14077769D02*
X15409253Y-14096817D01*
X15580682Y-14153960D02*
X15599730Y-14163484D01*
X15599730Y-14163484D02*
X15637825Y-14163484D01*
X15637825Y-14163484D02*
X15656872Y-14153960D01*
X15656872Y-14153960D02*
X15666396Y-14134912D01*
X15666396Y-14134912D02*
X15666396Y-14125388D01*
X15666396Y-14125388D02*
X15656872Y-14106341D01*
X15656872Y-14106341D02*
X15637825Y-14096817D01*
X15637825Y-14096817D02*
X15609253Y-14096817D01*
X15609253Y-14096817D02*
X15590206Y-14087293D01*
X15590206Y-14087293D02*
X15580682Y-14068246D01*
X15580682Y-14068246D02*
X15580682Y-14058722D01*
X15580682Y-14058722D02*
X15590206Y-14039674D01*
X15590206Y-14039674D02*
X15609253Y-14030150D01*
X15609253Y-14030150D02*
X15637825Y-14030150D01*
X15637825Y-14030150D02*
X15656872Y-14039674D01*
X15733063Y-14239674D02*
X15742587Y-14230150D01*
X15742587Y-14230150D02*
X15761634Y-14201579D01*
X15761634Y-14201579D02*
X15771158Y-14182531D01*
X15771158Y-14182531D02*
X15780682Y-14153960D01*
X15780682Y-14153960D02*
X15790206Y-14106341D01*
X15790206Y-14106341D02*
X15790206Y-14068246D01*
X15790206Y-14068246D02*
X15780682Y-14020627D01*
X15780682Y-14020627D02*
X15771158Y-13992055D01*
X15771158Y-13992055D02*
X15761634Y-13973008D01*
X15761634Y-13973008D02*
X15742587Y-13944436D01*
X15742587Y-13944436D02*
X15733063Y-13934912D01*
X16094968Y-14239674D02*
X16085444Y-14230150D01*
X16085444Y-14230150D02*
X16066396Y-14201579D01*
X16066396Y-14201579D02*
X16056872Y-14182531D01*
X16056872Y-14182531D02*
X16047349Y-14153960D01*
X16047349Y-14153960D02*
X16037825Y-14106341D01*
X16037825Y-14106341D02*
X16037825Y-14068246D01*
X16037825Y-14068246D02*
X16047349Y-14020627D01*
X16047349Y-14020627D02*
X16056872Y-13992055D01*
X16056872Y-13992055D02*
X16066396Y-13973008D01*
X16066396Y-13973008D02*
X16085444Y-13944436D01*
X16085444Y-13944436D02*
X16094968Y-13934912D01*
X16171158Y-14030150D02*
X16171158Y-14163484D01*
X16171158Y-14049198D02*
X16180682Y-14039674D01*
X16180682Y-14039674D02*
X16199730Y-14030150D01*
X16199730Y-14030150D02*
X16228301Y-14030150D01*
X16228301Y-14030150D02*
X16247349Y-14039674D01*
X16247349Y-14039674D02*
X16256872Y-14058722D01*
X16256872Y-14058722D02*
X16256872Y-14163484D01*
X16380682Y-14163484D02*
X16361634Y-14153960D01*
X16361634Y-14153960D02*
X16352111Y-14144436D01*
X16352111Y-14144436D02*
X16342587Y-14125388D01*
X16342587Y-14125388D02*
X16342587Y-14068246D01*
X16342587Y-14068246D02*
X16352111Y-14049198D01*
X16352111Y-14049198D02*
X16361634Y-14039674D01*
X16361634Y-14039674D02*
X16380682Y-14030150D01*
X16380682Y-14030150D02*
X16409253Y-14030150D01*
X16409253Y-14030150D02*
X16428301Y-14039674D01*
X16428301Y-14039674D02*
X16437825Y-14049198D01*
X16437825Y-14049198D02*
X16447349Y-14068246D01*
X16447349Y-14068246D02*
X16447349Y-14125388D01*
X16447349Y-14125388D02*
X16437825Y-14144436D01*
X16437825Y-14144436D02*
X16428301Y-14153960D01*
X16428301Y-14153960D02*
X16409253Y-14163484D01*
X16409253Y-14163484D02*
X16380682Y-14163484D01*
X16504492Y-14030150D02*
X16580682Y-14030150D01*
X16533063Y-13963484D02*
X16533063Y-14134912D01*
X16533063Y-14134912D02*
X16542587Y-14153960D01*
X16542587Y-14153960D02*
X16561634Y-14163484D01*
X16561634Y-14163484D02*
X16580682Y-14163484D01*
X16799730Y-14030150D02*
X16799730Y-14230150D01*
X16799730Y-14039674D02*
X16818777Y-14030150D01*
X16818777Y-14030150D02*
X16856873Y-14030150D01*
X16856873Y-14030150D02*
X16875920Y-14039674D01*
X16875920Y-14039674D02*
X16885444Y-14049198D01*
X16885444Y-14049198D02*
X16894968Y-14068246D01*
X16894968Y-14068246D02*
X16894968Y-14125388D01*
X16894968Y-14125388D02*
X16885444Y-14144436D01*
X16885444Y-14144436D02*
X16875920Y-14153960D01*
X16875920Y-14153960D02*
X16856873Y-14163484D01*
X16856873Y-14163484D02*
X16818777Y-14163484D01*
X16818777Y-14163484D02*
X16799730Y-14153960D01*
X17009254Y-14163484D02*
X16990206Y-14153960D01*
X16990206Y-14153960D02*
X16980682Y-14134912D01*
X16980682Y-14134912D02*
X16980682Y-13963484D01*
X17171158Y-14163484D02*
X17171158Y-14058722D01*
X17171158Y-14058722D02*
X17161635Y-14039674D01*
X17161635Y-14039674D02*
X17142587Y-14030150D01*
X17142587Y-14030150D02*
X17104492Y-14030150D01*
X17104492Y-14030150D02*
X17085444Y-14039674D01*
X17171158Y-14153960D02*
X17152111Y-14163484D01*
X17152111Y-14163484D02*
X17104492Y-14163484D01*
X17104492Y-14163484D02*
X17085444Y-14153960D01*
X17085444Y-14153960D02*
X17075920Y-14134912D01*
X17075920Y-14134912D02*
X17075920Y-14115865D01*
X17075920Y-14115865D02*
X17085444Y-14096817D01*
X17085444Y-14096817D02*
X17104492Y-14087293D01*
X17104492Y-14087293D02*
X17152111Y-14087293D01*
X17152111Y-14087293D02*
X17171158Y-14077769D01*
X17237825Y-14030150D02*
X17314015Y-14030150D01*
X17266396Y-13963484D02*
X17266396Y-14134912D01*
X17266396Y-14134912D02*
X17275920Y-14153960D01*
X17275920Y-14153960D02*
X17294968Y-14163484D01*
X17294968Y-14163484D02*
X17314015Y-14163484D01*
X17456873Y-14153960D02*
X17437825Y-14163484D01*
X17437825Y-14163484D02*
X17399730Y-14163484D01*
X17399730Y-14163484D02*
X17380682Y-14153960D01*
X17380682Y-14153960D02*
X17371158Y-14134912D01*
X17371158Y-14134912D02*
X17371158Y-14058722D01*
X17371158Y-14058722D02*
X17380682Y-14039674D01*
X17380682Y-14039674D02*
X17399730Y-14030150D01*
X17399730Y-14030150D02*
X17437825Y-14030150D01*
X17437825Y-14030150D02*
X17456873Y-14039674D01*
X17456873Y-14039674D02*
X17466396Y-14058722D01*
X17466396Y-14058722D02*
X17466396Y-14077769D01*
X17466396Y-14077769D02*
X17371158Y-14096817D01*
X17637825Y-14163484D02*
X17637825Y-13963484D01*
X17637825Y-14153960D02*
X17618777Y-14163484D01*
X17618777Y-14163484D02*
X17580682Y-14163484D01*
X17580682Y-14163484D02*
X17561635Y-14153960D01*
X17561635Y-14153960D02*
X17552111Y-14144436D01*
X17552111Y-14144436D02*
X17542587Y-14125388D01*
X17542587Y-14125388D02*
X17542587Y-14068246D01*
X17542587Y-14068246D02*
X17552111Y-14049198D01*
X17552111Y-14049198D02*
X17561635Y-14039674D01*
X17561635Y-14039674D02*
X17580682Y-14030150D01*
X17580682Y-14030150D02*
X17618777Y-14030150D01*
X17618777Y-14030150D02*
X17637825Y-14039674D01*
X17714016Y-14239674D02*
X17723539Y-14230150D01*
X17723539Y-14230150D02*
X17742587Y-14201579D01*
X17742587Y-14201579D02*
X17752111Y-14182531D01*
X17752111Y-14182531D02*
X17761635Y-14153960D01*
X17761635Y-14153960D02*
X17771158Y-14106341D01*
X17771158Y-14106341D02*
X17771158Y-14068246D01*
X17771158Y-14068246D02*
X17761635Y-14020627D01*
X17761635Y-14020627D02*
X17752111Y-13992055D01*
X17752111Y-13992055D02*
X17742587Y-13973008D01*
X17742587Y-13973008D02*
X17723539Y-13944436D01*
X17723539Y-13944436D02*
X17714016Y-13934912D01*
X10958000Y-14336000D02*
G75*
G02*
X10758000Y-14336000I-100000J0D01*
G01*
X10758000Y-14336000D02*
G75*
G02*
X10958000Y-14336000I100000J0D01*
G01*
X11209253Y-14246531D02*
X11218777Y-14237008D01*
X11218777Y-14237008D02*
X11237824Y-14227484D01*
X11237824Y-14227484D02*
X11285443Y-14227484D01*
X11285443Y-14227484D02*
X11304491Y-14237008D01*
X11304491Y-14237008D02*
X11314015Y-14246531D01*
X11314015Y-14246531D02*
X11323539Y-14265579D01*
X11323539Y-14265579D02*
X11323539Y-14284627D01*
X11323539Y-14284627D02*
X11314015Y-14313198D01*
X11314015Y-14313198D02*
X11199729Y-14427484D01*
X11199729Y-14427484D02*
X11323539Y-14427484D01*
X11409253Y-14408436D02*
X11418777Y-14417960D01*
X11418777Y-14417960D02*
X11409253Y-14427484D01*
X11409253Y-14427484D02*
X11399729Y-14417960D01*
X11399729Y-14417960D02*
X11409253Y-14408436D01*
X11409253Y-14408436D02*
X11409253Y-14427484D01*
X11485443Y-14227484D02*
X11618777Y-14227484D01*
X11618777Y-14227484D02*
X11533062Y-14427484D01*
X11733062Y-14227484D02*
X11752110Y-14227484D01*
X11752110Y-14227484D02*
X11771158Y-14237008D01*
X11771158Y-14237008D02*
X11780682Y-14246531D01*
X11780682Y-14246531D02*
X11790205Y-14265579D01*
X11790205Y-14265579D02*
X11799729Y-14303674D01*
X11799729Y-14303674D02*
X11799729Y-14351293D01*
X11799729Y-14351293D02*
X11790205Y-14389388D01*
X11790205Y-14389388D02*
X11780682Y-14408436D01*
X11780682Y-14408436D02*
X11771158Y-14417960D01*
X11771158Y-14417960D02*
X11752110Y-14427484D01*
X11752110Y-14427484D02*
X11733062Y-14427484D01*
X11733062Y-14427484D02*
X11714015Y-14417960D01*
X11714015Y-14417960D02*
X11704491Y-14408436D01*
X11704491Y-14408436D02*
X11694967Y-14389388D01*
X11694967Y-14389388D02*
X11685443Y-14351293D01*
X11685443Y-14351293D02*
X11685443Y-14303674D01*
X11685443Y-14303674D02*
X11694967Y-14265579D01*
X11694967Y-14265579D02*
X11704491Y-14246531D01*
X11704491Y-14246531D02*
X11714015Y-14237008D01*
X11714015Y-14237008D02*
X11733062Y-14227484D01*
X11923539Y-14227484D02*
X11942586Y-14227484D01*
X11942586Y-14227484D02*
X11961634Y-14237008D01*
X11961634Y-14237008D02*
X11971158Y-14246531D01*
X11971158Y-14246531D02*
X11980682Y-14265579D01*
X11980682Y-14265579D02*
X11990205Y-14303674D01*
X11990205Y-14303674D02*
X11990205Y-14351293D01*
X11990205Y-14351293D02*
X11980682Y-14389388D01*
X11980682Y-14389388D02*
X11971158Y-14408436D01*
X11971158Y-14408436D02*
X11961634Y-14417960D01*
X11961634Y-14417960D02*
X11942586Y-14427484D01*
X11942586Y-14427484D02*
X11923539Y-14427484D01*
X11923539Y-14427484D02*
X11904491Y-14417960D01*
X11904491Y-14417960D02*
X11894967Y-14408436D01*
X11894967Y-14408436D02*
X11885443Y-14389388D01*
X11885443Y-14389388D02*
X11875920Y-14351293D01*
X11875920Y-14351293D02*
X11875920Y-14303674D01*
X11875920Y-14303674D02*
X11885443Y-14265579D01*
X11885443Y-14265579D02*
X11894967Y-14246531D01*
X11894967Y-14246531D02*
X11904491Y-14237008D01*
X11904491Y-14237008D02*
X11923539Y-14227484D01*
X12075920Y-14427484D02*
X12075920Y-14294150D01*
X12075920Y-14313198D02*
X12085443Y-14303674D01*
X12085443Y-14303674D02*
X12104491Y-14294150D01*
X12104491Y-14294150D02*
X12133063Y-14294150D01*
X12133063Y-14294150D02*
X12152110Y-14303674D01*
X12152110Y-14303674D02*
X12161634Y-14322722D01*
X12161634Y-14322722D02*
X12161634Y-14427484D01*
X12161634Y-14322722D02*
X12171158Y-14303674D01*
X12171158Y-14303674D02*
X12190205Y-14294150D01*
X12190205Y-14294150D02*
X12218777Y-14294150D01*
X12218777Y-14294150D02*
X12237824Y-14303674D01*
X12237824Y-14303674D02*
X12247348Y-14322722D01*
X12247348Y-14322722D02*
X12247348Y-14427484D01*
X12342586Y-14427484D02*
X12342586Y-14294150D01*
X12342586Y-14313198D02*
X12352110Y-14303674D01*
X12352110Y-14303674D02*
X12371158Y-14294150D01*
X12371158Y-14294150D02*
X12399729Y-14294150D01*
X12399729Y-14294150D02*
X12418777Y-14303674D01*
X12418777Y-14303674D02*
X12428301Y-14322722D01*
X12428301Y-14322722D02*
X12428301Y-14427484D01*
X12428301Y-14322722D02*
X12437824Y-14303674D01*
X12437824Y-14303674D02*
X12456872Y-14294150D01*
X12456872Y-14294150D02*
X12485443Y-14294150D01*
X12485443Y-14294150D02*
X12504491Y-14303674D01*
X12504491Y-14303674D02*
X12514015Y-14322722D01*
X12514015Y-14322722D02*
X12514015Y-14427484D01*
X12904491Y-14217960D02*
X12733063Y-14475103D01*
X13161634Y-14227484D02*
X13180682Y-14227484D01*
X13180682Y-14227484D02*
X13199729Y-14237008D01*
X13199729Y-14237008D02*
X13209253Y-14246531D01*
X13209253Y-14246531D02*
X13218777Y-14265579D01*
X13218777Y-14265579D02*
X13228301Y-14303674D01*
X13228301Y-14303674D02*
X13228301Y-14351293D01*
X13228301Y-14351293D02*
X13218777Y-14389388D01*
X13218777Y-14389388D02*
X13209253Y-14408436D01*
X13209253Y-14408436D02*
X13199729Y-14417960D01*
X13199729Y-14417960D02*
X13180682Y-14427484D01*
X13180682Y-14427484D02*
X13161634Y-14427484D01*
X13161634Y-14427484D02*
X13142586Y-14417960D01*
X13142586Y-14417960D02*
X13133063Y-14408436D01*
X13133063Y-14408436D02*
X13123539Y-14389388D01*
X13123539Y-14389388D02*
X13114015Y-14351293D01*
X13114015Y-14351293D02*
X13114015Y-14303674D01*
X13114015Y-14303674D02*
X13123539Y-14265579D01*
X13123539Y-14265579D02*
X13133063Y-14246531D01*
X13133063Y-14246531D02*
X13142586Y-14237008D01*
X13142586Y-14237008D02*
X13161634Y-14227484D01*
X13314015Y-14408436D02*
X13323539Y-14417960D01*
X13323539Y-14417960D02*
X13314015Y-14427484D01*
X13314015Y-14427484D02*
X13304491Y-14417960D01*
X13304491Y-14417960D02*
X13314015Y-14408436D01*
X13314015Y-14408436D02*
X13314015Y-14427484D01*
X13514015Y-14427484D02*
X13399729Y-14427484D01*
X13456872Y-14427484D02*
X13456872Y-14227484D01*
X13456872Y-14227484D02*
X13437825Y-14256055D01*
X13437825Y-14256055D02*
X13418777Y-14275103D01*
X13418777Y-14275103D02*
X13399729Y-14284627D01*
X13637825Y-14227484D02*
X13656872Y-14227484D01*
X13656872Y-14227484D02*
X13675920Y-14237008D01*
X13675920Y-14237008D02*
X13685444Y-14246531D01*
X13685444Y-14246531D02*
X13694967Y-14265579D01*
X13694967Y-14265579D02*
X13704491Y-14303674D01*
X13704491Y-14303674D02*
X13704491Y-14351293D01*
X13704491Y-14351293D02*
X13694967Y-14389388D01*
X13694967Y-14389388D02*
X13685444Y-14408436D01*
X13685444Y-14408436D02*
X13675920Y-14417960D01*
X13675920Y-14417960D02*
X13656872Y-14427484D01*
X13656872Y-14427484D02*
X13637825Y-14427484D01*
X13637825Y-14427484D02*
X13618777Y-14417960D01*
X13618777Y-14417960D02*
X13609253Y-14408436D01*
X13609253Y-14408436D02*
X13599729Y-14389388D01*
X13599729Y-14389388D02*
X13590206Y-14351293D01*
X13590206Y-14351293D02*
X13590206Y-14303674D01*
X13590206Y-14303674D02*
X13599729Y-14265579D01*
X13599729Y-14265579D02*
X13609253Y-14246531D01*
X13609253Y-14246531D02*
X13618777Y-14237008D01*
X13618777Y-14237008D02*
X13637825Y-14227484D01*
X13875920Y-14227484D02*
X13837825Y-14227484D01*
X13837825Y-14227484D02*
X13818777Y-14237008D01*
X13818777Y-14237008D02*
X13809253Y-14246531D01*
X13809253Y-14246531D02*
X13790206Y-14275103D01*
X13790206Y-14275103D02*
X13780682Y-14313198D01*
X13780682Y-14313198D02*
X13780682Y-14389388D01*
X13780682Y-14389388D02*
X13790206Y-14408436D01*
X13790206Y-14408436D02*
X13799729Y-14417960D01*
X13799729Y-14417960D02*
X13818777Y-14427484D01*
X13818777Y-14427484D02*
X13856872Y-14427484D01*
X13856872Y-14427484D02*
X13875920Y-14417960D01*
X13875920Y-14417960D02*
X13885444Y-14408436D01*
X13885444Y-14408436D02*
X13894967Y-14389388D01*
X13894967Y-14389388D02*
X13894967Y-14341769D01*
X13894967Y-14341769D02*
X13885444Y-14322722D01*
X13885444Y-14322722D02*
X13875920Y-14313198D01*
X13875920Y-14313198D02*
X13856872Y-14303674D01*
X13856872Y-14303674D02*
X13818777Y-14303674D01*
X13818777Y-14303674D02*
X13799729Y-14313198D01*
X13799729Y-14313198D02*
X13790206Y-14322722D01*
X13790206Y-14322722D02*
X13780682Y-14341769D01*
X13961634Y-14227484D02*
X14085444Y-14227484D01*
X14085444Y-14227484D02*
X14018777Y-14303674D01*
X14018777Y-14303674D02*
X14047348Y-14303674D01*
X14047348Y-14303674D02*
X14066396Y-14313198D01*
X14066396Y-14313198D02*
X14075920Y-14322722D01*
X14075920Y-14322722D02*
X14085444Y-14341769D01*
X14085444Y-14341769D02*
X14085444Y-14389388D01*
X14085444Y-14389388D02*
X14075920Y-14408436D01*
X14075920Y-14408436D02*
X14066396Y-14417960D01*
X14066396Y-14417960D02*
X14047348Y-14427484D01*
X14047348Y-14427484D02*
X13990206Y-14427484D01*
X13990206Y-14427484D02*
X13971158Y-14417960D01*
X13971158Y-14417960D02*
X13961634Y-14408436D01*
X14161634Y-14227484D02*
X14161634Y-14265579D01*
X14237825Y-14227484D02*
X14237825Y-14265579D01*
X14533063Y-14503674D02*
X14523539Y-14494150D01*
X14523539Y-14494150D02*
X14504491Y-14465579D01*
X14504491Y-14465579D02*
X14494968Y-14446531D01*
X14494968Y-14446531D02*
X14485444Y-14417960D01*
X14485444Y-14417960D02*
X14475920Y-14370341D01*
X14475920Y-14370341D02*
X14475920Y-14332246D01*
X14475920Y-14332246D02*
X14485444Y-14284627D01*
X14485444Y-14284627D02*
X14494968Y-14256055D01*
X14494968Y-14256055D02*
X14504491Y-14237008D01*
X14504491Y-14237008D02*
X14523539Y-14208436D01*
X14523539Y-14208436D02*
X14533063Y-14198912D01*
X14694968Y-14294150D02*
X14694968Y-14427484D01*
X14647348Y-14217960D02*
X14599729Y-14360817D01*
X14599729Y-14360817D02*
X14723539Y-14360817D01*
X14952110Y-14427484D02*
X14952110Y-14227484D01*
X15037825Y-14427484D02*
X15037825Y-14322722D01*
X15037825Y-14322722D02*
X15028301Y-14303674D01*
X15028301Y-14303674D02*
X15009253Y-14294150D01*
X15009253Y-14294150D02*
X14980682Y-14294150D01*
X14980682Y-14294150D02*
X14961634Y-14303674D01*
X14961634Y-14303674D02*
X14952110Y-14313198D01*
X15161634Y-14427484D02*
X15142587Y-14417960D01*
X15142587Y-14417960D02*
X15133063Y-14408436D01*
X15133063Y-14408436D02*
X15123539Y-14389388D01*
X15123539Y-14389388D02*
X15123539Y-14332246D01*
X15123539Y-14332246D02*
X15133063Y-14313198D01*
X15133063Y-14313198D02*
X15142587Y-14303674D01*
X15142587Y-14303674D02*
X15161634Y-14294150D01*
X15161634Y-14294150D02*
X15190206Y-14294150D01*
X15190206Y-14294150D02*
X15209253Y-14303674D01*
X15209253Y-14303674D02*
X15218777Y-14313198D01*
X15218777Y-14313198D02*
X15228301Y-14332246D01*
X15228301Y-14332246D02*
X15228301Y-14389388D01*
X15228301Y-14389388D02*
X15218777Y-14408436D01*
X15218777Y-14408436D02*
X15209253Y-14417960D01*
X15209253Y-14417960D02*
X15190206Y-14427484D01*
X15190206Y-14427484D02*
X15161634Y-14427484D01*
X15342587Y-14427484D02*
X15323539Y-14417960D01*
X15323539Y-14417960D02*
X15314015Y-14398912D01*
X15314015Y-14398912D02*
X15314015Y-14227484D01*
X15494968Y-14417960D02*
X15475920Y-14427484D01*
X15475920Y-14427484D02*
X15437825Y-14427484D01*
X15437825Y-14427484D02*
X15418777Y-14417960D01*
X15418777Y-14417960D02*
X15409253Y-14398912D01*
X15409253Y-14398912D02*
X15409253Y-14322722D01*
X15409253Y-14322722D02*
X15418777Y-14303674D01*
X15418777Y-14303674D02*
X15437825Y-14294150D01*
X15437825Y-14294150D02*
X15475920Y-14294150D01*
X15475920Y-14294150D02*
X15494968Y-14303674D01*
X15494968Y-14303674D02*
X15504491Y-14322722D01*
X15504491Y-14322722D02*
X15504491Y-14341769D01*
X15504491Y-14341769D02*
X15409253Y-14360817D01*
X15580682Y-14417960D02*
X15599730Y-14427484D01*
X15599730Y-14427484D02*
X15637825Y-14427484D01*
X15637825Y-14427484D02*
X15656872Y-14417960D01*
X15656872Y-14417960D02*
X15666396Y-14398912D01*
X15666396Y-14398912D02*
X15666396Y-14389388D01*
X15666396Y-14389388D02*
X15656872Y-14370341D01*
X15656872Y-14370341D02*
X15637825Y-14360817D01*
X15637825Y-14360817D02*
X15609253Y-14360817D01*
X15609253Y-14360817D02*
X15590206Y-14351293D01*
X15590206Y-14351293D02*
X15580682Y-14332246D01*
X15580682Y-14332246D02*
X15580682Y-14322722D01*
X15580682Y-14322722D02*
X15590206Y-14303674D01*
X15590206Y-14303674D02*
X15609253Y-14294150D01*
X15609253Y-14294150D02*
X15637825Y-14294150D01*
X15637825Y-14294150D02*
X15656872Y-14303674D01*
X15733063Y-14503674D02*
X15742587Y-14494150D01*
X15742587Y-14494150D02*
X15761634Y-14465579D01*
X15761634Y-14465579D02*
X15771158Y-14446531D01*
X15771158Y-14446531D02*
X15780682Y-14417960D01*
X15780682Y-14417960D02*
X15790206Y-14370341D01*
X15790206Y-14370341D02*
X15790206Y-14332246D01*
X15790206Y-14332246D02*
X15780682Y-14284627D01*
X15780682Y-14284627D02*
X15771158Y-14256055D01*
X15771158Y-14256055D02*
X15761634Y-14237008D01*
X15761634Y-14237008D02*
X15742587Y-14208436D01*
X15742587Y-14208436D02*
X15733063Y-14198912D01*
X16094968Y-14503674D02*
X16085444Y-14494150D01*
X16085444Y-14494150D02*
X16066396Y-14465579D01*
X16066396Y-14465579D02*
X16056872Y-14446531D01*
X16056872Y-14446531D02*
X16047349Y-14417960D01*
X16047349Y-14417960D02*
X16037825Y-14370341D01*
X16037825Y-14370341D02*
X16037825Y-14332246D01*
X16037825Y-14332246D02*
X16047349Y-14284627D01*
X16047349Y-14284627D02*
X16056872Y-14256055D01*
X16056872Y-14256055D02*
X16066396Y-14237008D01*
X16066396Y-14237008D02*
X16085444Y-14208436D01*
X16085444Y-14208436D02*
X16094968Y-14198912D01*
X16171158Y-14294150D02*
X16171158Y-14427484D01*
X16171158Y-14313198D02*
X16180682Y-14303674D01*
X16180682Y-14303674D02*
X16199730Y-14294150D01*
X16199730Y-14294150D02*
X16228301Y-14294150D01*
X16228301Y-14294150D02*
X16247349Y-14303674D01*
X16247349Y-14303674D02*
X16256872Y-14322722D01*
X16256872Y-14322722D02*
X16256872Y-14427484D01*
X16380682Y-14427484D02*
X16361634Y-14417960D01*
X16361634Y-14417960D02*
X16352111Y-14408436D01*
X16352111Y-14408436D02*
X16342587Y-14389388D01*
X16342587Y-14389388D02*
X16342587Y-14332246D01*
X16342587Y-14332246D02*
X16352111Y-14313198D01*
X16352111Y-14313198D02*
X16361634Y-14303674D01*
X16361634Y-14303674D02*
X16380682Y-14294150D01*
X16380682Y-14294150D02*
X16409253Y-14294150D01*
X16409253Y-14294150D02*
X16428301Y-14303674D01*
X16428301Y-14303674D02*
X16437825Y-14313198D01*
X16437825Y-14313198D02*
X16447349Y-14332246D01*
X16447349Y-14332246D02*
X16447349Y-14389388D01*
X16447349Y-14389388D02*
X16437825Y-14408436D01*
X16437825Y-14408436D02*
X16428301Y-14417960D01*
X16428301Y-14417960D02*
X16409253Y-14427484D01*
X16409253Y-14427484D02*
X16380682Y-14427484D01*
X16504492Y-14294150D02*
X16580682Y-14294150D01*
X16533063Y-14227484D02*
X16533063Y-14398912D01*
X16533063Y-14398912D02*
X16542587Y-14417960D01*
X16542587Y-14417960D02*
X16561634Y-14427484D01*
X16561634Y-14427484D02*
X16580682Y-14427484D01*
X16799730Y-14294150D02*
X16799730Y-14494150D01*
X16799730Y-14303674D02*
X16818777Y-14294150D01*
X16818777Y-14294150D02*
X16856873Y-14294150D01*
X16856873Y-14294150D02*
X16875920Y-14303674D01*
X16875920Y-14303674D02*
X16885444Y-14313198D01*
X16885444Y-14313198D02*
X16894968Y-14332246D01*
X16894968Y-14332246D02*
X16894968Y-14389388D01*
X16894968Y-14389388D02*
X16885444Y-14408436D01*
X16885444Y-14408436D02*
X16875920Y-14417960D01*
X16875920Y-14417960D02*
X16856873Y-14427484D01*
X16856873Y-14427484D02*
X16818777Y-14427484D01*
X16818777Y-14427484D02*
X16799730Y-14417960D01*
X17009254Y-14427484D02*
X16990206Y-14417960D01*
X16990206Y-14417960D02*
X16980682Y-14398912D01*
X16980682Y-14398912D02*
X16980682Y-14227484D01*
X17171158Y-14427484D02*
X17171158Y-14322722D01*
X17171158Y-14322722D02*
X17161635Y-14303674D01*
X17161635Y-14303674D02*
X17142587Y-14294150D01*
X17142587Y-14294150D02*
X17104492Y-14294150D01*
X17104492Y-14294150D02*
X17085444Y-14303674D01*
X17171158Y-14417960D02*
X17152111Y-14427484D01*
X17152111Y-14427484D02*
X17104492Y-14427484D01*
X17104492Y-14427484D02*
X17085444Y-14417960D01*
X17085444Y-14417960D02*
X17075920Y-14398912D01*
X17075920Y-14398912D02*
X17075920Y-14379865D01*
X17075920Y-14379865D02*
X17085444Y-14360817D01*
X17085444Y-14360817D02*
X17104492Y-14351293D01*
X17104492Y-14351293D02*
X17152111Y-14351293D01*
X17152111Y-14351293D02*
X17171158Y-14341769D01*
X17237825Y-14294150D02*
X17314015Y-14294150D01*
X17266396Y-14227484D02*
X17266396Y-14398912D01*
X17266396Y-14398912D02*
X17275920Y-14417960D01*
X17275920Y-14417960D02*
X17294968Y-14427484D01*
X17294968Y-14427484D02*
X17314015Y-14427484D01*
X17456873Y-14417960D02*
X17437825Y-14427484D01*
X17437825Y-14427484D02*
X17399730Y-14427484D01*
X17399730Y-14427484D02*
X17380682Y-14417960D01*
X17380682Y-14417960D02*
X17371158Y-14398912D01*
X17371158Y-14398912D02*
X17371158Y-14322722D01*
X17371158Y-14322722D02*
X17380682Y-14303674D01*
X17380682Y-14303674D02*
X17399730Y-14294150D01*
X17399730Y-14294150D02*
X17437825Y-14294150D01*
X17437825Y-14294150D02*
X17456873Y-14303674D01*
X17456873Y-14303674D02*
X17466396Y-14322722D01*
X17466396Y-14322722D02*
X17466396Y-14341769D01*
X17466396Y-14341769D02*
X17371158Y-14360817D01*
X17637825Y-14427484D02*
X17637825Y-14227484D01*
X17637825Y-14417960D02*
X17618777Y-14427484D01*
X17618777Y-14427484D02*
X17580682Y-14427484D01*
X17580682Y-14427484D02*
X17561635Y-14417960D01*
X17561635Y-14417960D02*
X17552111Y-14408436D01*
X17552111Y-14408436D02*
X17542587Y-14389388D01*
X17542587Y-14389388D02*
X17542587Y-14332246D01*
X17542587Y-14332246D02*
X17552111Y-14313198D01*
X17552111Y-14313198D02*
X17561635Y-14303674D01*
X17561635Y-14303674D02*
X17580682Y-14294150D01*
X17580682Y-14294150D02*
X17618777Y-14294150D01*
X17618777Y-14294150D02*
X17637825Y-14303674D01*
X17714016Y-14503674D02*
X17723539Y-14494150D01*
X17723539Y-14494150D02*
X17742587Y-14465579D01*
X17742587Y-14465579D02*
X17752111Y-14446531D01*
X17752111Y-14446531D02*
X17761635Y-14417960D01*
X17761635Y-14417960D02*
X17771158Y-14370341D01*
X17771158Y-14370341D02*
X17771158Y-14332246D01*
X17771158Y-14332246D02*
X17761635Y-14284627D01*
X17761635Y-14284627D02*
X17752111Y-14256055D01*
X17752111Y-14256055D02*
X17742587Y-14237008D01*
X17742587Y-14237008D02*
X17723539Y-14208436D01*
X17723539Y-14208436D02*
X17714016Y-14198912D01*
M02*
